<svg style="height:auto;width:100%" version="1.1" viewBox="0 0 1277 648" xmlns="http://www.w3.org/2000/svg" xmlns:xlink="http://www.w3.org/1999/xlink">
 <defs>
  <linearGradient id="linearGradient8111">
   <stop stop-color="#fef200" offset="0"/>
   <stop stop-color="#fb0501" offset="1"/>
  </linearGradient>
  <linearGradient id="linearGradient1270" x1="30.49" x2="30.59" y1="10.92" y2="26.58" gradientTransform="matrix(.9738 0 0 1.007 -.1223 -.1678)" gradientUnits="userSpaceOnUse">
   <stop stop-color="#fe0802" offset="0"/>
   <stop stop-color="#fef200" offset="1"/>
  </linearGradient>
  <linearGradient id="linearGradient8113" x1="17.79" x2="17.91" y1="39.05" y2="31.56" gradientUnits="userSpaceOnUse" xlink:href="#linearGradient8111"/>
  <filter id="filter86101" x="-.1502" y="-.1527" width="1.3" height="1.305" color-interpolation-filters="sRGB">
   <feGaussianBlur stdDeviation="33.225001"/>
  </filter>
 </defs>
 <g transform="matrix(3.204 0 0 3.063 125.3 4.165)">
  <clipPath id="SVGID_2_">
   <use width="100%" height="100%" xlink:href="#SVGID_1_"/>
  </clipPath>
  <g clip-path="url(#SVGID_2_)">
   <mask id="SVGID_23_" x="-13.797" y="0" width="348.547" height="153" maskUnits="userSpaceOnUse">
    <g filter="url(#Adobe_OpacityMaskFilter)">
     <polygon points="167.7 0 174.8 153 146.1 153 157.3 0" fill="url(#SVGID_24_)"/>
     <polygon points="124.4 0 99.22 153 70.52 153 114 0" fill="url(#SVGID_25_)"/>
     <polygon points="79.03 0 14.9 153 -13.8 153 68.62 0" fill="url(#SVGID_26_)"/>
     <polygon points="200.2 0 221.7 153 250.4 153 210.6 0" fill="url(#SVGID_27_)"/>
     <polygon points="245.6 0 306.1 153 334.8 153 256 0" fill="url(#SVGID_28_)"/>
    </g>
   </mask>
   <mask id="SVGID_29_" x="0.203" y="23" width="74.297" height="148" maskUnits="userSpaceOnUse">
    <g filter="url(#Adobe_OpacityMaskFilter_1_)">
     <polygon points="74.5 171 0.297 171 0 23" fill="url(#SVGID_30_)"/>
    </g>
   </mask>
   <mask id="SVGID_31_" x="250.5" y="23" width="74.5" height="148" maskUnits="userSpaceOnUse">
    <g filter="url(#Adobe_OpacityMaskFilter_2_)">
     <polygon points="250.5 171 324.7 171 325 23" fill="url(#SVGID_32_)"/>
    </g>
   </mask>
  </g>
 </g>
 <g transform="matrix(6.962 0 0 7.255 -105.3 -61.34)" stroke-width=".1889">
  <path d="m32.03 10.72c-0.4557 0.1982-0.8532 0.4828-1.272 0.7587-0.9149 0.5714-1.606 1.407-1.317 2.748 0.06028 0.4525 0.2391 1.025 0.1203 1.198-0.1557-0.2399-0.2131-0.4615-0.3988-0.6563-0.1341 0.2725-0.2197 0.4705-0.3609 0.7393-0.1751-0.1326-0.3461-0.2584-0.3672-0.3761-0.08168-0.8072 0.1425-1.875-0.3102-2.505-0.3604-0.5321-1.864-1.277-2.304-1.275 0.0049 0.1509 0.09676 0.3936 0.2532 0.7141 0.2644 0.4121 0.9583 0.8358 0.8864 1.377-0.1544 0.9348-0.4133 1.796-0.8102 2.754-0.3954-0.448-0.5046-0.8703-0.4431-1.23 0.1299-0.3553 0.6995-1.047 1.12-1.517-0.2021-0.223-0.387-0.395-0.5635-0.5418-0.6369 0.4348-0.9373 1.164-1.177 1.836-0.6116 0.9328-1.129 1.964-1.14 3.519 0.08639 0.536 0.2551 1.164 0.2532 1.326-0.05948 0.1186-0.116 0.2402-0.1519 0.3825 0.08985 0.2207 0.2173 0.4982 0.3545 0.7902-0.1262 0.4444-0.1151 0.9086-0.07597 1.377 0.3481 1.347 0.8167 2.235 2.355 4.003 0.1801 0.1877 0.911 0.627 1.264 0.6754 1.209 0.1675 2.495 0.4696 3.751 0.1833 0.4569-0.0993 2.839-1.24 3.077-1.723 0.2498-0.06509 1.076-2.067 0.9995-3.7-0.1234-1.089-0.5686-2.115-1.317-3.085 0.2719-0.5879 0.3777-1.155 0.3798-1.709-0.1178-0.0033-0.2361 0.02586-0.3545 0.07009 0.1119-0.3588 0.1696-0.7926 0.1203-1.045-0.137-0.911-0.7322-1.676-1.165-2.843 0.072-0.3659 0.2232-0.6427 0.3482-0.9561-0.2248-0.1155-0.4522-0.2301-0.7597-0.3123-0.3395 0.3909-0.2422 0.7946-0.2659 1.186-0.2189 0.5336-0.3238 1.077-0.1393 1.644 0.09509 0.5268 0.4019 0.9998 0.2406 1.587-0.1266 0.03773-0.1962 0.02161-0.3229-0.02544 0.01496-0.3364 0.02196-0.6161-0.01267-0.9687-0.266 0.1529-0.3947 0.3834-0.5443 0.5865-0.6425-0.8222-0.7752-1.641-0.785-2.377 0.03608-1.013 1.065-2.63 0.8359-2.607zm-1.734 7.723c0.7434 0.2527 1.454 0.994 2.176 1.578 0.2221 0.1859 0.6247 1.401 0.6803 2.281-0.1059 0.4612-0.3715 0.8442-0.7108 1.54-0.5233 0.5297-1.05 1.031-1.62 1.136-1.076-0.01651-1.565-0.6554-1.764-0.8382l-0.7516-0.9199c-0.613-0.6554-0.7257-1.386-0.6234-1.946l0.197-1.469c0.132-0.398 0.2782-0.7941 0.7611-1.145 0.4733-0.1517 1.041-0.2086 1.656-0.2164z" fill="url(#linearGradient1270)"/>
  <g transform="matrix(1.08,0,0,1.09,42.3,-18.79)" fill="url(#linearGradient8113)" stroke-linecap="round" stroke-linejoin="round">
   <path d="m-2.639 39.14v-4.804c0.03856-0.1591-0.05693-0.35-0.1437-0.5389 0.13-0.3912 0.3986-0.6479 0.6515-0.9199 0.09959-0.2874-0.04397-0.6688-0.1629-1.004 0.2752 0.07796 0.5453 0.206 0.7952 0.5296 0.03178 0.2742 0.1366 0.5129 0.02874 0.8548 0.1519-0.04086 0.2882-0.07663 0.3641-0.09292l0.3258-0.09292c-0.2414-0.2137-0.323-0.4274-0.3353-0.6411 0.06224-0.1862 0.2768-0.2837 0.4599-0.3995 0.00451 0.5511 0.2045 0.632 0.3545 1.069 0.1493-0.1057 0.2557-0.2322 0.3545-0.3624 0.03826 0.1117 0.1104 0.08223 0.2108 0.158 0.1275-0.107 0.2256-0.2282 0.2012-0.4088 0.02407-0.1822-0.04346-0.3682-0.412-0.5668-0.1585-0.116 0.3298-0.2162 0.6132-0.1951 0.41 0.1029 0.4213 0.4438 0.5174 0.734-0.03101 0.1515-0.01354 0.3218-0.1629 0.4274 0.06903 0.116 0.1362 0.2247 0.2299 0.4367 0.0528 0.0754 0.07469 0.1636 0.2108 0.2044-0.03665-0.1951 0.03391-0.3282 0.1246-0.4739l0.4311-0.04646-0.1533-0.5203c-0.0095-0.3035 0.1842-0.4755 0.3162-0.6876l0.3832 0.9199c0.2235 0.2013 0.2864 0.4913 0.3449 0.7155 0.00451 0.1889 0.03294 0.3407-0.1054 0.5296-0.1142 0.1472-0.08448 0.5342-0.1054 0.8455h-3.44l-0.00958 1.087 1.725-0.01858c0.0861 0.3082 0.1564 0.6241 0.1916 0.957l-1.964 0.03717-0.01916 2.267z"/>
   <path d="m3.503 35.23-0.2108-0.9663c-0.2404-0.2675-0.04802-0.5544 0.07665-0.8455 0.1377-0.1806 0.2969-0.2358 0.4599-0.2695-0.0343 0.3874-0.1056 0.7354 0.1054 1.384 0.07995 0.1792 0.1942 0.3089 0.3162 0.4274l0.1054-0.2137 0.3737 0.1951c0.01004-0.4254-0.2065-0.8344-0.3449-1.236 0.306 0.1306 0.6497 0.2247 0.7856 0.5203l0.08623 1.161c-0.2407 0.6037-0.07004 1.307-0.02874 1.979 0.02697 0.1753 0.07479 0.4091 0.3737 0.446 0.1476 0.0024 0.2572-0.2364 0.3066-0.5389 0.04696-0.5165 0.0488-1.048 0.01916-1.589l-0.1916-0.3438 0.2204-0.2137-0.3162-0.9942c0.01018-0.5817 0.3512-0.8518 0.6036-1.199l0.06707 1.217c0.3091-0.03041 0.4409 0.03603 0.4695 0.07433 0.2585 0.03149 0.4495 0.1362 0.6323 0.4367 0.05093 0.3318 0.1406 0.6287-0.00959 0.9849 0.01477 0.3443 0.0687 0.7341 0.2108 1.226 0.04473 0.2849 0.1588 0.8922-0.3353 1.477-0.2982 0.3154-0.6154 0.52-0.9389 0.6876-0.2701 0.1838-1.332 0.2229-1.6 0.09292-1.259-0.8404-1.121-1.662-1.341-2.509l-0.2299-0.7805-0.182-0.381c0.05769-0.192 0.1253-0.3841 0.2587-0.5761z"/>
   <path d="m7.819 34.62c0.00451 0.2892 0.00904 0.5783 0.01355 0.8673 0.252 0.2378 0.564 0.3578 0.4878 0.8804l0.2845 2.786h1.836l-0.0067-2.142c0.04689-0.3093 0.4178-0.4168 0.9078-0.4862 0.1083-0.0105 0.4965 0.2204 0.6707 0.4796 0.0366-0.3092 0.05291-0.5965 0.1965-0.9921-0.8087-0.6255-1.438-0.5117-1.958 0.05256-0.07579-0.1819-0.0045-0.4522 0.02031-0.6504 0.1092-0.781-0.04435-1.204-0.6436-1.656 0.0334 0.4065-0.0141 0.7715-0.08807 1.143-0.09939-0.3258-0.253-0.2611-0.3455-0.1314-0.1189-0.6928-0.1542-1.364-0.07453-2.004-0.3815 0.2426-0.6112 0.6174-0.8875 0.979 0.06393 0.4057 0.02476 0.7465 0.1219 1.281-0.1943-0.1743-0.3769-0.3204-0.5352-0.4074z"/>
   <path d="m13.17 36.17c0.1387-0.03899 0.3809 0.111 0.4607 0.2497l-0.271 0.3417c0.02753 0.1305 0.03184 0.3284 0.1761 0.3942l1.192-2.641 0.06097-1.196c0.07258-0.1778 0.1602-0.2678 0.2507-0.3416l0.08808-0.4468 0.4675-0.1577 0.06775-0.6505c0.1501-0.03646 0.3061-0.02221 0.4742 0.09855l0.01355 0.6833c-0.02311 0.3044 0.02321 0.6462 0.1626 1.038 0.1068 0.3101 0.2497 0.6418 0.149 0.749 0.2716 0.7389 0.6149 1.641 0.8333 2.122l0.7791-2.05c-0.1249-0.4792-0.1269-0.747 0.271-1.084 0.101-0.1927 0.0041-0.3855-0.02711-0.5782 0.09989-0.3487 0.3537-0.544 0.542-0.7556 0.1605 0.32 0.1374 0.7939 0.1965 1.229 0.3049-0.3287 0.5797-0.1108 0.5826 0.07884-0.218 0.2643-0.136 0.4205-0.0841 0.5419l1.125 2.851 0.1857-0.5945c0.09123-0.0114 0.1986 0.0084 0.3658 0.1445l-0.1761 0.8147 0.2303-0.8804c0.1219-0.03899 0.2439-0.03039 0.3658 0.07884-0.0668 0.2925-0.1348 0.5823-0.02711 1.261 0.01489 0.3176-0.09454 1.043 0 1.537l-1.721 0.03238-0.8768-2.453-1.239 2.468-1.274-0.0077-1.072-2.483-1.06 2.522-1.687-0.1183c-0.5404-0.7208-0.04371-0.9699 0.1152-1.432-0.2426-0.4555-0.2437-0.9111 0.3591-1.367z"/>
   <path d="m24.02 33.28c-0.4785 0.1491-0.7647 0.4537-1.03 0.7753-0.04325 0.2894-0.02835 0.7196 0 1.183-0.1634-0.04359-0.3063-0.2061-0.4336-0.4598-0.08659 0.2716-0.1736 0.5431-0.1897 0.8147 0.0055 0.1306 0.0471 0.2891 0.2303 0.4337-0.5163 0.3833-0.9277 1.87 0.4065 2.576 0.4739 0.2063 1.464 0.4587 2.737 0.09194v0.46l1.789-0.2892-0.4201-4.165-1.648-0.04409-0.03235 0.8982c-0.0194-1.045-0.4524-1.045-0.915-1.74-0.1758 0.3492 0.4084 0.689 0.2567 1.187-0.1184-0.04354-0.2826-0.2682-0.4257-0.4197-0.0096 0.1444-0.01254 0.2901 0.04072 0.4468-0.4066-0.265-0.6533-0.5411-0.5556-0.8411 0.07944-0.1924 0.1327-0.5591 0.1897-0.9066zm1.15 2.927c0.1263 0.0011 0.2555 0.01074 0.3812 0.01005l0.04734 1.485c-0.02994 0.1951-0.1062 0.2252-0.1896 0.23-0.5577-0.1271-1.144-0.3076-1.145-0.6964 0.02887-0.3202 0.0186-0.6547 0.3253-0.8739 0.1674-0.1342 0.3703-0.1564 0.5808-0.1546z"/>
   <path d="m28.49 39.1 1.822 0.0657 0.02031-2.208c0.3577-0.2017 0.621-0.4163 0.8673-0.4098 0.1691 0.0045 0.3012 0.1028 0.5893 0.423 0.1647-0.071 0.2085-0.5582 0.2236-0.8673-0.2024-0.3161-0.9784-0.5057-1.098-0.4599-0.2025 0.03893-0.542 0.1862-0.7927 0.4336-0.02586-0.2791-0.06405-0.5866 0.09485-0.8147-0.02887-0.8822-0.3986-1.265-0.7046-1.485-0.1717 0.3229 0.02409 0.7527-0.1016 1.11l-0.1558-0.3022-0.149 0.23c0.03169-0.3402 0.0078-0.6355-0.1761-0.8016-0.0498-0.3532 0.04691-0.685 0.1694-1.078-0.3717-0.1804-0.8618 0.6806-0.9146 0.8344-0.02275 0.3766-0.07754 0.7565 0.0067 1.202-0.2182-0.06357-0.3031-0.2824-0.4404-0.4402-0.2021 0.2985-0.1564 0.632-0.07452 0.8738 0.178 0.266 0.5788 0.4055 0.4268 0.8935z"/>
   <path d="m32.08 39.18 1.993-0.05575 0.09581-1.292 1.619 1.384c0.4333-0.07961 0.9266-0.3919 1.408-0.6597 0.2643-0.1962 0.4859-0.4172 0.6228-0.6876l-0.2491-0.8084c-0.08594-0.1364-0.04681-0.4775-0.03831-0.6597-0.1424-0.1696-0.5174 0.06504-0.5174 0.06504-0.08645 0.2493-0.1777 0.4978-0.115 0.7712l-0.5365-0.6597c-0.1595 0.2291 0.1967 0.6508 0.06707 1.05l-0.9294-0.6783 0.9964-0.8734c0.2564-0.5161 0.2084-0.8707 0.1725-1.245-0.1851 0.1933-0.3099 0.299-0.3928 0.3438-0.1782-0.4531-0.2007-0.8811-0.2299-1.31-0.5368 0.3562-0.5296 0.7124-0.5174 1.069l-0.1246-0.4367c-0.1767 0.2003-0.3455 0.3851-0.5461 0.6318-0.1005 0.1949-0.197 0.3921-0.1725 0.6597l-0.6419 0.5947-0.08623-2.072c0.2831-0.7062 0.03184-1.44-0.4024-2.146 0.1629-0.07555 0.2137-0.1972 0.2491-0.3717 0.04771-0.2671-0.1924-0.4316-0.3737-0.4274-0.4134 0.3357-0.9401 0.5981-0.8431 1.264-0.1532 0.2447-0.3031 0.491-0.5557 0.6876-0.1387 0.2299-0.06809 0.7555 0.1533 1.031z"/>
  </g>
 </g>
 <g transform="matrix(1.345 0 0 1.409 140.7 -30.82)">
  <path d="m-50.32 479.9c-61.74-29.11-58.62-237.7 37.47-257.2 61.61-80.5-72.04-182 334.3-124.1 185.1-143.8 286.2-20.71 348 85.06 104.3-136 196.3-24.96 174.1 297.5z" fill="#fff" opacity=".03158"/>
  <path d="m825.8 47.59a4.249 3.924 0 1 1-4.2-3.924 4.249 3.924 0 0 1 4.2 3.924z" fill="#84726a" fill-rule="evenodd" stroke-width="2.347"/>
  <path d="m690.5 40.06a4.249 3.948 0 1 1-4.224-3.926 4.224 3.926 0 0 1 4.224 3.926z" fill="#84726a" fill-rule="evenodd" stroke-width="2.354"/>
  <path d="m833 107.5a3.099 2.931 0 1 1-3.081-2.914 3.081 2.914 0 0 1 3.081 2.914z" fill="#84726a" fill-rule="evenodd" stroke-width="1.732"/>
  <path d="m794.7 81.93a1.933 1.781 0 1 1-1.922-1.771 1.922 1.771 0 0 1 1.922 1.771z" fill="#84726a" fill-rule="evenodd" stroke-width="1.066"/>
  <path d="m728.1 53.71a1.933 1.781 0 1 1-1.922-1.771 1.922 1.771 0 0 1 1.922 1.771z" fill="#84726a" fill-rule="evenodd" stroke-width="1.066"/>
  <path d="m714.7 85.56a1.933 1.781 0 1 1-1.922-1.771 1.922 1.771 0 0 1 1.922 1.771z" fill="#84726a" fill-rule="evenodd" stroke-width="1.066"/>
  <path d="m682.1 106.1a2.998 2.931 0 1 1-2.981-2.914 2.981 2.914 0 0 1 2.981 2.914z" fill="#84726a" fill-rule="evenodd" stroke-width="1.704"/>
  <path d="m773.8 47.69a3.08 2.931 0 1 1-3.062-2.914 3.062 2.914 0 0 1 3.062 2.914z" fill="#84726a" fill-rule="evenodd" stroke-width="1.727"/>
  <path d="m600.1 401v-1.41-4.13-15.9c0-13.84 0-33.88-0.08-58.72 0-49.71 0-118.6-0.08-195.6v-0.12c2.25-4.47 4.68-9.28 7.11-14.12v0.12-32.9l0.26 0.25-228.3-0.14 0.11-0.11v24.14q0 4.09 0 6.2v2.1-2.1-6.2c0-5.47 0-13.58-0.06-24.14v-0.12h0.12l228.3-0.14h0.25v0.26 31.88 1.06l-7.4 14.16v-0.12c0 77-0.06 145.9-0.08 195.6 0 24.84-0.06 44.88-0.08 58.72v15.9 4.13c0 0.93-0.07 1.45-0.07 1.45z" fill="#e0e0e0"/>
  <path d="m644.9 203.3v-1.5c0-0.99-0.05-2.46-0.09-4.38-0.07-3.85-0.17-9.5-0.3-16.75-0.23-14.51-0.56-35.39-1-60.91q3.81-10.16 8-21.32v0.08-48.93l0.25 0.25h-170.1l-0.07-0.13-6.29-13.31 0.2 0.12-71.6-0.09-20-0.06h-7.05 1.8 5.25l20-0.06 71.6-0.09h0.13l0.06 0.12 6.35 13.09-0.21-0.13h170.2v0.25 48.93l-8 21.3v-0.08c0.33 25.53 0.6 46.41 0.79 60.92 0.08 7.25 0.15 12.9 0.19 16.75q0 2.88 0 4.38c-0.06 1.04-0.08 1.55-0.08 1.55z" fill="#e0e0e0"/>
  <path d="m632.4 214.4s0-0.56-0.07-1.66-0.07-2.73-0.13-4.85c-0.1-4.28-0.25-10.56-0.45-18.62-0.37-16.15-0.9-39.43-1.55-68l9.4-22v0.08c0.29-12 0.61-25 0.94-38.69l0.24 0.24h-110.8l-179.8-0.07 0.14-0.05-14.61 14.49h-0.07l-48.71-0.37-13-0.14h-4.49 17.49l48.63 0.27h-0.12q6.82-6.84 14.59-14.62l0.05-0.06h0.08l179.8-0.07h111v0.25c-0.34 13.64-0.68 26.65-1 38.69-3.29 7.68-6.45 15-9.44 22v-0.08c0.58 28.58 1 51.87 1.37 68 0.15 8.06 0.27 14.34 0.35 18.62 0 2.12 0.06 3.75 0.07 4.85s0.05 1.79 0.05 1.79z" fill="#e0e0e0"/>
  <path d="m272.5 74.55a1.74 1.74 0 1 1-1.74-1.74 1.73 1.73 0 0 1 1.74 1.74z" fill="#e0e0e0" fill-rule="evenodd"/>
  <path d="m376.8 36.18a1.74 1.74 0 1 1-1.74-1.74 1.74 1.74 0 0 1 1.74 1.74z" fill="#e0e0e0" fill-rule="evenodd"/>
  <path d="m775.2 378.2h-38.02c11.13-36.18 13.66-104 11.8-148.9h13.98c-0.7322 44.77 2.646 112.2 12.24 148.9z" fill="#4a413d" stroke-width="1.023"/>
  <path d="m805.1 422.8c0.91-7.297 1.747-15.06-1.558-21.74s-12.37-11.47-19.28-7.917c2.552-10.12-1.925-21.47-10.9-27.62-9.119-6.154-21.66-6.721-31.46-1.423-9.57 5.318-15.2 16.22-13.69 26.51-9.951-0.5507-19.48 3.569-25.01 10.81-5.654 7.614-6.789 17.13-3.054 25.59-37.15-11.11-40.1 27.45-33.82 43.49l177.3 0.0549c-0.7323-21.24 2.338-44.97-38.54-47.76z" fill="#504742" stroke-width=".9767"/>
  <path d="m739.5 178.1 32.09 10.58c7.081 6.95 2.322 16.76-3.661 20.53a11.43 10.93 0 0 1-3.033 20.62 10.23 9.78 0 1 1-18.05 8.95c-1.349-3.39-0.7112-7.39-2.615-10.52-1.799-2.93-5.345-4.34-8.242-6.32-7.175-4.9-10.46-14-9.413-22.37s6.244-15.94 12.93-21.47z" fill="#514743" stroke-width="1.023"/>
  <path d="m728.1 148.1-0.1778 0.13a42.74 40.86 0 0 0-15.97 31.89v7.77l16.14-10.73z" fill="#4a413d" stroke-width="1.023"/>
  <path d="m774.2 148 0.1778 0.13a42.15 40.3 0 0 1 15.76 31.44v7.67l-15.94-10.57z" fill="#4a413d" stroke-width="1.023"/>
  <path d="m751.1 71.96c3.65 0 10.37 9 16.6 24.09a93.72 89.6 0 0 1 6.474 27.79v64.86h-46.07v-58.86a94.61 90.46 0 0 1 1.611-17.12 113.8 108.8 0 0 1 4.801-16.7c5.847-15.1 12.98-24 16.59-24.06" fill="#594e49" stroke-width="1.023"/>
  <path d="m740.6 109.4a12.45 11.9 0 1 0 17.26-3.33 12.45 11.9 0 0 0-17.26 3.33z" fill="#4a413d" stroke-width="1.023"/>
  <path d="m740.6 109.4a26.38 25.22 0 0 1 2.092-2.14 12.49 11.94 0 0 1 7.51-3 12.22 11.68 0 0 1 10.58 4.76 12.13 11.6 0 0 1 2.364 6.38 12.17 11.64 0 0 1-7.97 11.47 11.6 11.09 0 0 1-3.577 0.7 11.4 10.9 0 0 1-3.493-0.3 12.23 11.69 0 0 1-5.638-3 12.06 11.53 0 0 1-3.054-4.53 12.38 11.84 0 0 1-0.0523-7.76 22.83 21.83 0 0 1 1.255-2.66 4.32 4.13 0 0 0-0.4498 0.63 5.774 5.52 0 0 0-0.4811 0.8 8.43 8.06 0 0 0-0.523 1.16 12.55 12 0 0 0 2.991 12.67 12.7 12.14 0 0 0 5.836 3.11 12.55 12 0 0 0 7.322-0.39 12.61 12.06 0 0 0 8.367-12 12.8 12.24 0 0 0-2.479-6.64 12.78 12.22 0 0 0-5.23-3.94 12.55 12 0 0 0-13.37 2.28 8.367 8 0 0 0-0.91 0.92 5.962 5.7 0 0 0-0.5962 0.73 3.368 3.22 0 0 0-0.502 0.75z" fill="#4a413d" stroke-width="1.023"/>
  <path d="m751.1 71.96c3.65 0 10.37 9 16.6 24.09h-33.19c5.847-15.13 12.98-24.03 16.59-24.09" fill="#4a413d" stroke-width="1.023"/>
  <path d="m751.1 71.96-0.6485 0.07a5.805 5.55 0 0 0-1.705 0.79 22.09 21.12 0 0 0-4.947 5.13c-3.661 5-7.907 13-11.35 23.5a112.6 107.6 0 0 0-3.954 17.71 95.75 91.55 0 0 0-0.6485 10.13v10.79 48.64 0.3h46.65v-0.25c0-17.44 0-33.85-0.0628-48.65v-10.79-5.16c0-1.69-0.2196-3.36-0.4184-5a99.79 95.41 0 0 0-4.069-17.68 120 114.7 0 0 0-5.857-13.73 77.81 74.39 0 0 0-5.784-9.74 22.95 21.94 0 0 0-4.864-5.2c-0.3661-0.2-0.6589-0.41-0.9518-0.53a6.014 5.75 0 0 0-0.7531-0.27l-0.638-0.07s0.2092 0 0.6276 0.12a6.213 5.94 0 0 1 0.7321 0.28 8.367 8 0 0 1 0.9204 0.55 23.27 22.25 0 0 1 4.769 5.23 78.44 75 0 0 1 5.648 9.68 122 116.7 0 0 1 5.774 13.73 100.2 95.8 0 0 1 3.985 17.61c0.1987 1.62 0.3661 3.28 0.3974 5v5.15q0 5.23 0 10.79v48.65l0.272-0.26h-46.13l0.2615 0.26c0-17.43 0-33.84-0.0523-48.64v-10.79a95.43 91.24 0 0 1 0.6171-10.09 112.3 107.4 0 0 1 3.87-17.65c3.378-10.55 7.573-18.55 11.16-23.55a22.9 21.89 0 0 1 4.843-5.17 6.025 5.76 0 0 1 1.663-0.81z" fill="#4a413d" stroke-width="1.023"/>
  <g transform="matrix(.76 0 0 1 151.7 0)" fill="#49606c">
   <path d="m316.5 479.4c-949 3.136-426-17.51 1.404-15.78 711.3-0.2394 663.4 18.69-1.404 15.78z" fill="#4e4541" stroke-width=".9177"/>
  </g>
  <g transform="translate(1.923 8.085)">
   <path d="m646.6 407.8a11.29 11.29 0 0 1 5.83 6.6 19.88 19.88 0 0 1 0.77 8.94c-0.66 5.8-3.95 11.66-7.5 16.3-4.89-4.27-6-11.7-6.35-15.51-0.52-6 2.18-17.22 7.25-16.33" fill="#fe7a01"/>
   <path d="m651.3 449.2a9.62 9.62 0 0 1 3.1-9.12 12.75 12.75 0 0 1 9.4-2.93 5.36 5.36 0 0 1 4.17 1.85 4.1 4.1 0 0 1 0.06 4.16 8.34 8.34 0 0 1-3.07 3c-4.24 2.65-8.82 4.45-13.61 3" fill="#fe7a01"/>
   <path d="m645.1 467a7.12 7.12 0 0 1 0.17-1.19c0.16-0.84 0.36-1.92 0.59-3.22a33.78 33.78 0 0 1 3.33-10.3 20.49 20.49 0 0 1 7.39-7.84 13.94 13.94 0 0 1 3-1.34c0.37-0.12 0.67-0.17 0.86-0.22a1 1 0 0 1 0.31 0 22.13 22.13 0 0 0-4 1.85 21.31 21.31 0 0 0-7.17 7.8 36.19 36.19 0 0 0-3.4 10.15c-0.3 1.35-0.54 2.44-0.72 3.19a6.59 6.59 0 0 1-0.36 1.12z" fill="#49606c"/>
   <path d="m645.2 416.5a1.65 1.65 0 0 1 0.06 0.52c0 0.38 0.06 0.88 0.09 1.49 0.07 1.3 0.15 3.18 0.22 5.5 0.15 4.65 0.27 11.08 0.24 18.17s-0.2 13.53-0.39 18.17c-0.1 2.33-0.19 4.21-0.27 5.5 0 0.62-0.08 1.11-0.1 1.5a2 2 0 0 1-0.07 0.52 3 3 0 0 1 0-0.52v-1.5c0-1.35 0.08-3.22 0.14-5.51 0.11-4.64 0.24-11.06 0.27-18.16s0-13.51-0.12-18.16c0-2.28-0.06-4.15-0.08-5.5v-1.5a3 3 0 0 1 0.01-0.52z" fill="#49606c"/>
   <path d="m642.9 452.7a22.42 22.42 0 0 0-12.25-16.43c-1.63-0.78-3.76-1.3-5.1-0.08s-1 3.4-0.39 5.09a19.17 19.17 0 0 0 17.63 11.9" fill="#fe7a01"/>
   <path d="m631.4 441.8a5.72 5.72 0 0 1 1 0.45 10.93 10.93 0 0 1 1.17 0.63 17.26 17.26 0 0 1 1.49 0.93 19.18 19.18 0 0 1 1.71 1.29 20.65 20.65 0 0 1 1.81 1.64 24.88 24.88 0 0 1 3.45 4.44 24.64 24.64 0 0 1 2.28 5.14 22 22 0 0 1 0.57 2.38 16 16 0 0 1 0.29 2.12c0.09 0.65 0.06 1.24 0.09 1.76a10.53 10.53 0 0 1 0 1.32 6.2 6.2 0 0 1-0.13 1.13c-0.1 0 0.07-1.62-0.21-4.18-0.09-0.64-0.17-1.34-0.34-2.08a22 22 0 0 0-0.61-2.34 25.07 25.07 0 0 0-2.26-5 25.53 25.53 0 0 0-3.37-4.38 22.24 22.24 0 0 0-1.76-1.66 19 19 0 0 0-1.65-1.3c-2.1-1.54-3.57-2.21-3.53-2.29z" fill="#49606c"/>
  </g>
  <g transform="matrix(1.042 0 0 1 -13.55 0)">
   <path d="m554.9 147.5h-359.8a11.23 11.23 0 0 0-11.23 11.23v254.2a11.23 11.23 0 0 0 11.23 11.23h138.1l-6.7 44.4h100.1l-5.62-44.4h133.9a11.23 11.23 0 0 0 11.23-11.23v-254.2a11.23 11.23 0 0 0-11.23-11.23z" fill="#455a64"/>
   <path d="m379.8 397.4c4.9 7-2.76 14.66-9.76 9.76a2.44 2.44 0 0 1-0.6-0.6c-4.88-7 2.77-14.65 9.76-9.76a2.44 2.44 0 0 1 0.6 0.6z" fill="#263238"/>
   <path d="m203.6 157.2h342.8a9.7 9.7 0 0 1 9.7 9.7v210.7h-362.2v-210.7a9.7 9.7 0 0 1 9.7-9.7z" fill="#263238"/>
   <path d="m381.9 291.6s-1.304 6.748 2.966 11.4c2.726 2.975 8.939-0.2447 14.1-3.851-0.9844-1.211-1.695-2.653-2.041-4.231-10.82 1.101-15.03-3.323-15.03-3.323zm8.155-17.21s-5.751 3.857-6.064 10.14c-0.2016 4.018 6.532 6.085 12.78 7.135 0.1827-1.603 0.7368-3.097 1.584-4.385-8.496-6.793-8.3-12.88-8.3-12.88zm18.08-6.471s-6.832-1.288-11.55 2.93c-3.024 2.704 0.2804 8.899 3.957 14.01 1.213-0.9659 2.653-1.661 4.232-2.009-1.147-10.75 3.358-14.93 3.358-14.93zm-2.21 34.98c-1.643-0.1674-3.176-0.7212-4.493-1.565-6.851 8.307-12.98 8.113-12.98 8.113s3.911 5.679 10.26 5.989c4.056 0.206 6.141-6.394 7.21-12.54zm16.09-39.14h-87.92c-6.129 0-16.16 4.52-18.44 10.26 5.698-2.756 14.24-4.198 19.7-4.198h0.678c4.022-2.202 8.697-3.664 13.69-3.664 4.995 0 9.674 1.462 13.69 3.664h29.89c4.022-2.202 8.697-3.664 13.69-3.664 4.994 0 9.674 1.462 13.69 3.664h0.0713c5.457 0 14 1.442 19.7 4.198-2.289-5.737-12.32-10.26-18.44-10.26zm-4.6 50.82c3.006-2.692-0.2411-8.822-3.892-13.92-1.226 0.9916-2.686 1.706-4.283 2.06 1.095 10.65-3.371 14.79-3.371 14.79s6.826 1.288 11.55-2.93zm-2.142-44.6c-4.081-0.1996-6.175 6.504-7.238 12.69 1.617 0.161 3.129 0.7019 4.434 1.519 6.885-8.41 13.06-8.216 13.06-8.216s-3.898-5.686-10.26-5.995zm16.82 23.85s1.304-6.748-2.966-11.4c-2.739-2.988-9.004 0.2769-14.18 3.909 0.9974 1.198 1.715 2.621 2.08 4.179 10.85-1.12 15.07 3.316 15.07 3.316zm-25.1 7.901c5.001 0 9.056-4.005 9.056-8.944 0-4.939-4.056-8.944-9.056-8.944-5.001 0-9.057 4.005-9.057 8.944 0 4.945 4.056 8.944 9.057 8.944zm-82.37-10.13s-1.304 6.748 2.966 11.4c2.726 2.975 8.939-0.2447 14.1-3.851-0.9844-1.211-1.695-2.653-2.041-4.231-10.82 1.101-15.03-3.323-15.03-3.323zm33.39-21.61c-4.081-0.1996-6.175 6.504-7.238 12.69 1.617 0.161 3.129 0.7019 4.434 1.519 6.885-8.41 13.06-8.216 13.06-8.216s-3.898-5.686-10.26-5.995zm-8.292 31.75c5.001 0 9.057-4.005 9.057-8.944s-4.056-8.944-9.057-8.944c-5.001 0-9.057 4.005-9.057 8.944 0 4.945 4.056 8.944 9.057 8.944zm25.12-7.901s1.304-6.748-2.966-11.4c-2.739-2.988-9.004 0.2769-14.18 3.909 0.9974 1.198 1.715 2.621 2.08 4.179 10.85-1.12 15.07 3.316 15.07 3.316zm55.18 7.062c0.2016-4.012-6.526-6.079-12.77-7.135-0.1553 1.616-0.6976 3.123-1.532 4.43 8.431 6.774 8.242 12.83 8.242 12.83s5.751-3.851 6.064-10.13zm-97.24-26.51s-5.751 3.857-6.064 10.14c-0.2016 4.018 6.532 6.085 12.78 7.135 0.1765-1.603 0.7368-3.097 1.584-4.385-8.489-6.793-8.3-12.88-8.3-12.88zm27.37 40.18c3.006-2.692-0.2411-8.822-3.892-13.92-1.226 0.9916-2.686 1.706-4.283 2.06 1.095 10.65-3.371 14.79-3.371 14.79s6.832 1.288 11.55-2.93zm6.538-3.548s5.751-3.864 6.064-10.14c0.2016-4.012-6.526-6.079-12.77-7.135-0.1554 1.616-0.6975 3.123-1.532 4.43 8.437 6.781 8.242 12.84 8.242 12.84zm-18.03-8.126c-1.643-0.1674-3.176-0.7212-4.493-1.565-6.851 8.307-12.98 8.113-12.98 8.113s3.904 5.679 10.26 5.988c4.056 0.206 6.141-6.394 7.21-12.54zm31.21-9.968c0-8.487 4.003-16.51 10.23-20.92h-23.46c6.234 4.404 10.23 12.43 10.23 20.92 0 8.487-4.003 16.51-10.23 20.92h23.46c-6.234-4.404-10.23-12.43-10.23-20.92zm-40.54-22.09c-3.024 2.704 0.2869 8.899 3.957 14.01 1.213-0.9659 2.653-1.661 4.232-2.009-1.154-10.76 3.352-14.94 3.352-14.94s-6.826-1.281-11.54 2.936zm-23.78 37.86c3.898 2.344 11.11 4.411 17.28 4.913-6.148-4.913-10.3-12.42-10.3-20.84 0-8.429 4.121-15.94 10.28-20.85-6.166 0.4443-13.36 2.312-17.26 4.656zm105.1 6.804c-4.022 3.303-8.697 3.664-13.69 3.664-4.995 0-9.674-0.3606-13.69-3.664h-29.89c-4.022 3.303-8.697 3.664-13.69 3.664-4.995 0-9.674-0.3606-13.69-3.664h-0.678c-5.457 0-14-1.166-19.7-3.928 2.289 5.737 12.32 10.53 18.44 10.53h87.92c6.129 0 16.16-4.791 18.44-10.53-5.698 2.756-14.24 3.928-19.7 3.928zm13.43-22.73c0 8.384-3.365 15.87-9.466 20.78 6.036-0.586 12.97-2.595 17.43-4.849v-32.13c-4.459-2.26-11.41-4.076-17.45-4.604 6.122 4.913 9.485 12.41 9.485 20.8zm-101.3 34.43c0 2.047 1.734 4.276 3.808 4.276h54.08c2.073 0 4.53-2.228 4.53-4.276v-3.432h-62.42zm-30.81-62.89h-5.001c-0.9584 0-1.728 0.7083-1.728 1.655 0 0.9466 0.7759 1.648 1.728 1.648h5.001c2.64 0 4.558 0.7148 5.704 1.944 0.9207 0.9831 1.469 2.503 1.689 3.748v56.28c0 0.9401 0.9974 1.706 1.949 1.706 0.9518 0 1.949-0.7663 1.949-1.706v-56.13c0-0.6182-0.3389-3.677-2.556-6.098-1.825-2.002-5.06-3.046-8.735-3.046z" fill="#fe7a01" stroke-width=".6478"/>
   <rect x="270.3" y="230.3" width="210.4" height="21.23" fill="#607787"/>
   <rect x="270.3" y="230.3" width="111.2" height="21.23" fill="#4f9857"/>
   <g transform="matrix(.2056 0 0 .2125 50.1 -62.72)">
    <path d="m255.5 1226-275.5-52.04-1.005 75.06 244.3 9.007z" fill="#5c3d3a"/>
    <path d="m-20.98 1041 247.3 138.1 29.16 47.03-275.5-52.04z" fill="#37211d"/>
    <path d="m-20.98 1041 0.06866-90.71 193 1.649 94.51 152.1-40.22 75.06z" fill="#5c3d3a"/>
    <path d="m266.6 1104 67.36-94.07-38.21-58.04h-123.7z" fill="#37211d"/>
    <path d="m333.9 1010 154.8-14.01-1.005-45.03-192 1.001z" fill="#5c3d3a"/>
    <path d="m488.8 995.6 128.7 40.03 159.9-87.06-289.6 2.001z" fill="#37211d"/>
    <path d="m617.5 1036 159.9-87.06 164.8 1.353-0.9369 112.7-250.4 65.05z" fill="#5c3d3a"/>
    <path d="m690.9 1128 4.022 81.06 247.3-5.004-1.005-141.1z" fill="#37211d"/>
    <path d="m694.9 1209 247.3-5.004v117.1l-255.4-77.06z" fill="#5c3d3a"/>
    <path d="m686.8 1244-11.06 39.03 266.4 136.1v-98.07z" fill="#37211d"/>
    <path d="m675.8 1283-39.21 68.05 115.6 155.1 190 1.649 0.0685-88.71z" fill="#5c3d3a"/>
    <path d="m505.9 1409-24.13 100.1 270.5-3.002-115.6-155.1z" fill="#37211d"/>
    <path d="m505.9 1409-114.6-25.02-76.41 123.1 166.9 2.001z" fill="#5c3d3a"/>
    <path d="m391.2 1384-76.41 123.1-162.9 5.004 168.9-120.1z" fill="#37211d"/>
    <path d="m320.9 1392-87.47-68.05-254.4 72.05 0.06866 111.7 172.9 4.356z" fill="#5c3d3a"/>
    <path d="m276.6 1311-53.29-53.04-244.3-9.007v147.1z" fill="#37211d"/>
    <ellipse cx="462.6" cy="1214" rx="265.5" ry="261" fill="#fe7a01" filter="url(#filter86101)"/>
    <ellipse cx="457.2" cy="1220" rx="67.3" ry="66.36" fill="#401e0c"/>
    <path d="m-24.82 907v4.908l-1.005 600.6h972.9l1.005-605.6zm8.813 47.85h953.3v547.9h-953.3z" color="#000000" fill="#455a64" style="-inkscape-stroke:none"/>
    <ellipse cx="907.3" cy="930.9" rx="14.22" ry="13.7" fill="#fff"/>
    <ellipse cx="856.6" cy="931.3" rx="14.22" ry="13.7" fill="#fff"/>
    <ellipse cx="804" cy="931.3" rx="14.22" ry="13.7" fill="#fff"/>
   </g>
   <path d="m458.2 424.1c0 0.13-30.17 0.23-67.37 0.23s-67.37-0.1-67.37-0.23 30.16-0.22 67.37-0.22 67.37 0.08 67.37 0.22z" fill="#263238"/>
   <rect x="431.1" y="324.5" width="178" height="104.4" fill="#e0e0e0" stroke-width="1.017"/>
   <rect x="498.1" y="384.3" width="36.46" height="35.81" rx="6.389" fill="#506874" stroke-width=".6415"/>
   <polygon transform="matrix(.6501 0 0 .6357 95.83 233.4)" points="666.8 257.1 643.8 279.4 628.9 265.2 634.2 259.8 644.6 269 661.8 251.7" fill="#4f9857"/>
   <g transform="scale(1.002 .9977)" fill="#4f9857" stroke-width=".7115" aria-label="12,564">
    <path d="m482 373.9h-11.2v-2.112h4.308v-13.87h-4.308v-3.833c0.5837 0 1.209-0.0463 1.876-0.139 0.667-0.1019 1.172-0.2455 1.515-0.4308 0.4262-0.2316 0.7597-0.5234 1.001-0.8755 0.2501-0.3613 0.3937-0.8431 0.4308-1.445h3.471v7.433l-1.317 0.1881v12.97h4.225z"/>
    <path d="m501.3 373.9h-14.01v-2.904c0.9728-0.8338 1.946-1.668 2.918-2.501 0.982-0.8338 1.895-1.663 2.738-2.488 1.779-1.723 2.997-3.09 3.655-4.1 0.6578-1.019 0.233-1.895 0.233-3.072 0-1.075-0.3567-1.913-1.07-2.515-0.7041-0.6114-1.691-0.9172-2.96-0.9172-0.8431 0-1.756 0.1482-2.738 0.4447-0.982 0.2965-1.187 0.5288-2.123 1.14h-0.139l-0.133-4.869c0.6578-0.3243 1.533-0.6207 2.626-0.8894 1.102-0.2687 2.168-0.403 3.196-0.403 2.122 0 3.785 0.5142 4.989 1.543 1.204 1.019 3.114 3.564 2.848 5.67-0.0987 0.7813-1.01 1.96-1.214 2.645-0.1946 0.6763-0.4864 1.32-0.8755 1.932-0.3613 0.5744-0.7875 1.14-1.278 1.695-0.4818 0.5559-1.07 1.172-1.765 1.848-0.9913 0.9728-2.015 1.918-3.071 2.835-1.056 0.9079-2.043 1.751-2.96 2.529h11.13z"/>
    <path d="m511.1 370-3.919 9.102h-2.029l2.418-9.102z"/>
    <path d="m529.6 367.4q0 1.445-0.5281 2.765-0.5281 1.32-1.445 2.223-1.001 0.9728-2.39 1.501-1.376 0.5142-3.196 0.5142-1.695 0-3.266-0.3613-1.57-0.3474-2.654-0.8477v-2.932h0.1946q1.14 0.7226 2.668 1.237 1.529 0.5003 3.002 0.5003 0.9867 0 1.904-0.2779 0.9311-0.2779 1.654-0.9728 0.6114-0.5976 0.9172-1.431 0.3196-0.8338 0.3196-1.932 0-1.07-0.3752-1.807-0.3613-0.7365-1.014-1.181-0.7226-0.5281-1.765-0.7365-1.028-0.2224-2.307-0.2224-1.223 0-2.362 0.1668-1.126 0.1668-1.946 0.3335v-10.66h12.45v2.432h-9.769v5.503q0.5976-0.0556 1.223-0.0834 0.6254-0.0278 1.084-0.0278 1.682 0 2.946 0.2918 1.265 0.2779 2.321 1.001 1.112 0.7643 1.723 1.973 0.6114 1.209 0.6114 3.029z"/>
    <path d="m548.1 367.2q0 3.155-2.085 5.156-2.071 1.987-5.086 1.987-1.529 0-2.779-0.4725-1.251-0.4725-2.21-1.404-1.195-1.153-1.848-3.057-0.6392-1.904-0.6392-4.586 0-2.752 0.5837-4.878 0.5976-2.126 1.89-3.78 1.223-1.57 3.155-2.446 1.932-0.8894 4.503-0.8894 0.8199 0 1.376 0.0695t1.126 0.2502v2.654h-0.139q-0.3891-0.2084-1.181-0.3891-0.7782-0.1946-1.598-0.1946-2.988 0-4.767 1.876-1.779 1.862-2.071 5.045 1.167-0.7087 2.293-1.07 1.14-0.3752 2.626-0.3752 1.32 0 2.321 0.2501 1.014 0.2362 2.071 0.9728 1.223 0.8477 1.834 2.14 0.6254 1.292 0.6254 3.141zm-2.821 0.1112q0-1.292-0.3891-2.14-0.3752-0.8477-1.251-1.473-0.6392-0.4447-1.417-0.5837-0.7782-0.139-1.626-0.139-1.181 0-2.196 0.2779-1.014 0.2779-2.084 0.8616-0.0278 0.3057-0.0417 0.5976-0.0139 0.2779-0.0139 0.7087 0 2.196 0.4447 3.474 0.4586 1.265 1.251 2.001 0.6392 0.6114 1.376 0.9033 0.7504 0.2779 1.626 0.2779 2.015 0 3.168-1.223 1.153-1.237 1.153-3.544z"/>
    <path d="m566.4 368.1h-3.071v5.823h-2.668v-5.823h-9.908v-3.196l10.02-11.67h2.557v12.65h3.071zm-5.739-2.223v-9.339l-8.018 9.339z"/>
   </g>
   <g transform="matrix(.1865 0 0 .1903 434 143)">
    <path d="m-24.82 901.2v4.908l-1.005 600.6h972.9l1.005-605.6zm8.813 53.6h953.3v547.9h-953.3z" color="#000000" fill="#455a64" style="-inkscape-stroke:none"/>
    <ellipse cx="907.8" cy="927.4" rx="14.22" ry="13.7" fill="#fff"/>
    <ellipse cx="857.1" cy="927.8" rx="14.22" ry="13.7" fill="#fff"/>
    <ellipse cx="804.5" cy="927.8" rx="14.22" ry="13.7" fill="#fff"/>
   </g>
   <g transform="translate(-20.44 .8845)" opacity=".3">
    <path d="m300.9 423.5c2-10-4.5-39.91-4.5-39.91l-48.62 6.18-2 33.51z"/>
   </g>
   <path d="m218.6 384.5s2.14 39.77-6.78 53.45l60.55 1.49s4.7-23.23 3.63-54.94z" fill="#fe7a01"/>
   <g transform="translate(-472.6 -133.5)">
    <path d="m1033 386.9 32.11-55.52-39.45-43.98 26.49-15.59s47.24 44.71 46.69 59.87c-0.49 13.8-49.94 62.6-49.94 62.6z" fill="#ffbf9d"/>
    <path d="m1007 474.5a48.59 48.59 0 1 1-60.51-70 48.59 48.59 0 0 1 60.51 70zm-80.19-48.88a45.32 45.32 0 1 0 21-18.13 45.31 45.31 0 0 0-21 18.08z" fill="#fe7a01"/>
    <g transform="translate(543 175.5)" opacity=".3">
     <path d="m463.6 299a48.59 48.59 0 1 1-60.51-70 48.59 48.59 0 0 1 60.51 70zm-80.19-48.88a45.32 45.32 0 1 0 21-18.13 45.31 45.31 0 0 0-21 18.08z"/>
    </g>
    <path d="m1005 472.4a48.59 48.59 0 1 1-60.51-70 48.59 48.59 0 0 1 60.51 70zm-80.19-48.88a45.31 45.31 0 1 0 21-18.14 45.29 45.29 0 0 0-21 18.14z" fill="#fe7a01"/>
    <path d="m1075 383 1.9 3c1.71 2.64-0.38 6.9-4.12 8.63l-63.43 38.84-5.92-8.66 61.83-43.29c4-3.06 7.54-1.92 9.74 1.48z" fill="#fe7a01"/>
    <path d="m965.1 406.7a4.15 4.15 0 0 1-0.8 0c-0.52 0-1.29-0.07-2.28 0a34.88 34.88 0 0 0-8.25 1.35 42.47 42.47 0 0 0-5.44 2 48 48 0 0 0-5.84 3.14 45.38 45.38 0 0 0-5.87 4.36 43.13 43.13 0 0 0-5.45 5.66 40.72 40.72 0 0 0-4.25 6.59 43.63 43.63 0 0 0-2.68 6.81 41.15 41.15 0 0 0-1.65 12.26 39.29 39.29 0 0 0 1 8.3c0.18 1 0.45 1.7 0.56 2.22a3.75 3.75 0 0 1 0.18 0.77 5.76 5.76 0 0 1-0.28-0.74c-0.14-0.51-0.44-1.23-0.66-2.2a37 37 0 0 1-1.19-8.34 40.52 40.52 0 0 1 1.56-12.4 42.41 42.41 0 0 1 2.69-6.91 40.1 40.1 0 0 1 4.3-6.69 43.47 43.47 0 0 1 5.52-5.72 44 44 0 0 1 6-4.4 45.25 45.25 0 0 1 5.92-3.12 43.39 43.39 0 0 1 5.51-1.92 33.06 33.06 0 0 1 8.32-1.17 22.62 22.62 0 0 1 2.3 0.08 4.92 4.92 0 0 1 0.78 0.07z" fill="#fff"/>
    <path d="m1003 458.7c-0.12 0 0.78-2.22 1.41-5.95 0.07-0.47 0.15-1 0.22-1.46s0.09-1.05 0.15-1.6c0.12-1.1 0.1-2.29 0.12-3.54a37.79 37.79 0 0 0-3.69-15.66c-0.57-1.11-1.08-2.18-1.68-3.11-0.29-0.47-0.55-0.94-0.84-1.37s-0.58-0.82-0.85-1.21c-2.23-3.05-4-4.61-3.92-4.7a11.82 11.82 0 0 1 1.23 1.1 13.2 13.2 0 0 1 1.34 1.4 21.54 21.54 0 0 1 1.64 2c0.29 0.38 0.58 0.78 0.89 1.2s0.57 0.89 0.88 1.37a34.69 34.69 0 0 1 1.75 3.12 40.47 40.47 0 0 1 2.76 7.73 39.42 39.42 0 0 1 1 8.14c0 1.26 0 2.46-0.17 3.58-0.06 0.55-0.09 1.1-0.18 1.61s-0.18 1-0.26 1.47a24.92 24.92 0 0 1-0.58 2.51 13.7 13.7 0 0 1-0.58 1.85 9.71 9.71 0 0 1-0.64 1.52z" fill="#fff"/>
    <path d="m973 424.2c0.1 0.11-6.44 6.23-14.61 13.68s-14.86 13.41-15 13.3 6.44-6.23 14.61-13.67 14.86-13.42 15-13.31z" fill="#fff"/>
    <path d="m985.5 432.1a3.68 3.68 0 0 1-0.47 0.44l-1.4 1.2-5.18 4.37c-4.38 3.68-10.42 8.78-17 14.49s-12.53 10.94-16.8 14.74l-5.08 4.5-1.39 1.21a2.65 2.65 0 0 1-0.51 0.39 3.73 3.73 0 0 1 0.44-0.47l1.33-1.28c1.16-1.11 2.85-2.68 5-4.62 4.22-3.87 10.1-9.15 16.71-14.87s12.69-10.76 17.14-14.37c2.22-1.81 4-3.26 5.29-4.24l1.46-1.13a2.41 2.41 0 0 1 0.46-0.36z" fill="#fff"/>
    <g transform="translate(543 175.5)" fill="#fff" opacity=".3">
     <path d="m381.7 294.3 66.71-57.56s6.59 5 9.39 9.56l-68.27 58.73a34.87 34.87 0 0 1-7.83-10.73z"/>
     <path d="m396.8 310.4 65-56.62s0.32-0.53 1.21 3.54l-63.02 54.85a8.11 8.11 0 0 1-3.19-1.77z"/>
    </g>
    <path d="m1033 386.9s-19.56 21.55-20 22.36-5.71 13.25-4.41 15.77 11.1 11.37 11.1 11.37 3.5-1.51 0.19-7.43l-3.31-5.91 1.78-6s2.64 7.57 4.17 9.23 7.59 4.5 9.11 3c0.9067-0.8672 1.519-1.997 1.75-3.23 0 0 4.15 3.3 7.08-1.95 0 0 3.69-0.57 5.27-3.15s1.42-7.46 1.42-7.46c-0.6524-1.362-2.405-1.758-3.58-0.81-1.568 1.191-2.778 2.789-3.5 4.62l-1.71-2.28c0.4458-3.078 1.324-6.078 2.61-8.91 1.19-2.28 8.87-7.25 9.78-11.21 0.77-3.35-5.93-5.57-9.37-5.38-0.5158 0.0289-1.291-1.193-1.777-1.017z" fill="#ffbf9d"/>
    <path d="m1031 414.5a1.93 1.93 0 0 0 0 0.59 9.09 9.09 0 0 0 0.27 1.56 10.25 10.25 0 0 0 7 7.27 8.78 8.78 0 0 0 1.56 0.32 1.84 1.84 0 0 0 0.58 0c0-0.06-0.83-0.12-2.08-0.54a10.86 10.86 0 0 1-4.32-2.71 11 11 0 0 1-2.55-4.41c-0.38-1.25-0.41-2.08-0.46-2.08z" fill="#ff9a6c"/>
    <path d="m1025 413.8a2.93 2.93 0 0 0 0 0.62 5.75 5.75 0 0 0 0.08 0.73 8.33 8.33 0 0 0 0.16 1 15.73 15.73 0 0 0 0.75 2.41 15 15 0 0 0 3.46 5.09 13.33 13.33 0 0 0 2 1.59c0.29 0.21 0.58 0.36 0.82 0.51s0.47 0.25 0.65 0.33a2.66 2.66 0 0 0 0.58 0.24c0-0.05-0.78-0.42-1.93-1.25a14.83 14.83 0 0 1-1.9-1.61 16.63 16.63 0 0 1-1.94-2.34 20.34 20.34 0 0 1-1.66-2.78 13 13 0 0 1-0.6-2.24c-0.36-1.42-0.41-2.31-0.47-2.3z" fill="#ff9a6c"/>
    <path d="m1017 412.3s-0.17 0.29-0.24 0.81a4.51 4.51 0 0 0 0.24 2 3.79 3.79 0 0 0 1.1 1.72c0.38 0.36 0.67 0.51 0.69 0.48a7.09 7.09 0 0 1-1.52-2.3 7.22 7.22 0 0 1-0.27-2.71z" fill="#ff9a6c"/>
    <path d="m1084 327.6c2e-4 0.08-1.071-0.6378-2.933-1.304a15.06 15.06 44.95 0 0-7.551-0.6946 13 13 44.94 0 0-6.703 3.454c-1.437 1.353-2.145 2.374-2.225 2.325a2.64 2.64 44.95 0 1 0.4485-0.7609 14.1 14.1 44.94 0 1 1.526-1.823 12.5 12.5 44.97 0 1 6.892-3.744 14.35 14.35 44.93 0 1 7.772 0.8741 12.11 12.11 44.94 0 1 2.122 1.096c0.4308 0.3491 0.6712 0.5487 0.6513 0.5787z" fill="#ff9a6c"/>
    <path d="m976 220.6c0-6.55 0-13.14-1.14-19.6s-3.39-12.83-7.45-18c-0.62-0.78-5.35-5.81-6.26-5.42-0.65 0.29 2.87 5.27 2.72 6-1.44 6.62-0.16 13.61 2.44 19.87a88.72 88.72 0 0 0 9.69 17.16" fill="#263238"/>
    <path d="m968.9 196.6c-4.55-15.8-17.53-26.32-33.2-21.33l-1.42 0.54a29.4 29.4 0 0 0-17.67 35.73c4 13.67 8.64 28.72 11.45 35.8 5.84 14.66 21.45 11.3 21.45 11.3l9.74 22.4 31-15.89z" fill="#ffbf9d"/>
    <path d="m949.6 258.7a38.13 38.13 0 0 0 17-13s0.44 13.77-14.77 18.09z" fill="#ff9a6c"/>
    <path d="m927.1 224.8a2.24 2.24 0 0 0 2.84 1.31 2.15 2.15 0 0 0 1.44-2.72 2.25 2.25 0 0 0-2.84-1.28 2.15 2.15 0 0 0-1.44 2.69z" fill="#263238"/>
    <path d="m922.1 216.4c0.37 0.18 1.51-1.61 3.78-2.48s4.36-0.36 4.49-0.73c0.08-0.17-0.38-0.57-1.3-0.82a6.17 6.17 0 0 0-3.73 0.26 5.9 5.9 0 0 0-2.87 2.31c-0.5 0.8-0.54 1.39-0.37 1.46z" fill="#263238"/>
    <path d="m946.5 218a2.25 2.25 0 0 0 2.84 1.35 2.15 2.15 0 0 0 1.44-2.73 2.25 2.25 0 0 0-2.84-1.35 2.16 2.16 0 0 0-1.44 2.73z" fill="#263238"/>
    <path d="m944.7 208.8c0.37 0.18 1.51-1.62 3.78-2.48s4.35-0.36 4.49-0.74c0.08-0.16-0.38-0.56-1.3-0.81a6.24 6.24 0 0 0-3.73 0.25 6 6 0 0 0-2.88 2.32c-0.48 0.8-0.53 1.39-0.36 1.46z" fill="#263238"/>
    <path d="m943.2 229.3c0-0.14-1.54 0.16-3.93 0.74-0.6 0.17-1.19 0.26-1.44-0.1a3.05 3.05 0 0 1-0.27-1.86v-5.05c0-7.18-0.29-13-0.58-13s-0.5 5.83-0.47 13c0 1.77 0 3.45 0.06 5.06a3.65 3.65 0 0 0 0.57 2.38 1.58 1.58 0 0 0 1.28 0.48 4.35 4.35 0 0 0 1-0.24c2.39-0.75 3.82-1.28 3.78-1.41z" fill="#263238"/>
    <path d="m950.5 228.3c-0.38 0.12 0.56 2.57-0.87 5.12s-4.15 3.29-4 3.64c0 0.17 0.77 0.25 1.88-0.14a6.58 6.58 0 0 0 3.41-2.86 5.73 5.73 0 0 0 0.57-4.24c-0.32-1.1-0.83-1.6-0.99-1.52z" fill="#263238"/>
    <path d="m941.3 199.6c0.46 0.53 2.61-0.63 5.39-1.33s5.2-0.8 5.34-1.48c0.06-0.33-0.54-0.76-1.63-1a9.38 9.38 0 0 0-4.34 0.13 9.11 9.11 0 0 0-3.83 2c-0.83 0.75-1.13 1.43-0.93 1.68z" fill="#263238"/>
    <path d="m920.2 208.5c0.6 0.36 1.95-0.77 3.82-1.51s3.59-1 3.75-1.67c0.06-0.32-0.39-0.74-1.27-1a6 6 0 0 0-6.09 2.56c-0.5 0.83-0.5 1.44-0.21 1.62z" fill="#263238"/>
    <path d="m971.9 207.9c0.21-0.21 9-6.88 12.51 3.31s-7.39 11.65-7.51 11.36-5-14.67-5-14.67z" fill="#ffbf9d"/>
    <path d="m978.7 217.7s0.22 0.06 0.57 0.09a1.87 1.87 0 0 0 1.34-0.43c0.93-0.77 1.25-2.79 0.66-4.65a6.37 6.37 0 0 0-1.34-2.37 2.17 2.17 0 0 0-1.81-0.89 1 1 0 0 0-0.88 0.85c0 0.33 0.1 0.51 0.05 0.55s-0.28-0.1-0.34-0.55a1.14 1.14 0 0 1 0.18-0.78 1.42 1.42 0 0 1 0.89-0.6 2.63 2.63 0 0 1 2.4 0.94 6.22 6.22 0 0 1 1.6 2.63c0.65 2.07 0.27 4.36-1.06 5.3a2 2 0 0 1-1.71 0.29c-0.45-0.14-0.58-0.35-0.55-0.38z" fill="#ff9a6c"/>
    <path d="m917.6 192.3c-2-0.35 1.19-7.39 4.63-10.6 5.2-4.87 14-9.75 20.22-10.06 7.47-0.37 14.28 1.11 19.8 6.16a42.3 42.3 0 0 1 11.45 19 12.85 12.85 0 0 1 0.67 6.73c-0.67 2.74-2.92 5.09-1.75 8.17a4.51 4.51 0 0 1 0 3.48c-1.2 2.62-4.12 1.52-5.8 0-3.6-3.24-5.47-7.94-7.21-12.46-1.24-3.21-2.5-6.5-2.64-9.94-0.07-1.87 0.19-3.75 0-5.62a6.5 6.5 0 0 0-2.45-4.86 6.77 6.77 0 0 0-1.12-0.56 11.24 11.24 0 0 0-11.25 1.56c-5.07 4-13.87 10.34-17.1 9.26-4.64-1.57-6.15-3.1-6.15-3.1z" fill="#263238"/>
    <path d="m902.1 287.2s-1.46-4.12 3.49-9.66 44.18-16.42 44.18-16.42 14.26 16.15 26.6 5.12c9-8 9.3-16 9.3-16h35.5l4.43 36.47-14.15 0.08z" fill="#fe7a01"/>
    <path d="m1015 250.2s9.26-1.87 17.72 2c14.21 6.45 37.12 30.89 37.12 30.89l-31.78 24.12-17.25-20.42z" fill="#fe7a01"/>
    <path d="m1028 292.7a1.76 1.76 0 0 1-0.39-0.2c-0.24-0.15-0.6-0.37-1-0.68a30.33 30.33 0 0 1-3.53-2.86 32.82 32.82 0 0 1-4.45-5.08 18.57 18.57 0 0 1-3.31-7.58c-1-5.82-0.13-11.34 1.75-14.74a11.09 11.09 0 0 1 2.92-3.5 8.86 8.86 0 0 1 1.05-0.66c0.24-0.14 0.38-0.21 0.39-0.19s-0.48 0.36-1.32 1a11.83 11.83 0 0 0-2.72 3.51c-1.74 3.35-2.58 8.77-1.56 14.47a18.55 18.55 0 0 0 3.19 7.4 34.22 34.22 0 0 0 4.31 5.09 41 41 0 0 0 3.4 3 15.31 15.31 0 0 1 1.27 1.02z" fill="#263238"/>
    <path d="m1021 286.7c0 0.14-24.44 0.36-54.59 0.48s-54.6 0.1-54.6-0.05 24.44-0.35 54.6-0.47 54.59-0.11 54.59 0.04z" fill="#263238"/>
    <path d="m889.3 281.7c0.07 0.15 0.13 0.3 0.19 0.45a8.26 8.26 0 0 1 0.44 2.2 9.4 9.4 0 0 0 0.05 1.06 4.39 4.39 0 0 0 0.29 0.62 10.44 10.44 0 0 1 0.39 4.38 8.36 8.36 0 0 0 0.81 4.68c0.84 1.38 2.79 2.19 4.12 1.27a2.1 2.1 0 0 0 1.57 2.3 3 3 0 0 0 2.81-0.87 5.63 5.63 0 0 0 1.4-2.69 2.33 2.33 0 0 0 2.32 2.25 3.58 3.58 0 0 0 2.94-1.8 8.32 8.32 0 0 0 1-3.43 41.93 41.93 0 0 1 0.73-4.6s1.51 0.25 2.2 0.31h0.2a9.41 9.41 0 0 0 1.44-2.5c1-2 1.7-3.24 2.43-5 0.56-1.34 0.91-2.69 0.08-3.56-2-2.11-5.92 2.18-5.92 2.18-0.56-1.5-5.11-1.74-6 0.25-0.36-1.1-0.22-1.73-1.11-2.47a3.68 3.68 0 0 0-3.22-0.81 2.61 2.61 0 0 0-2 2.53 4.44 4.44 0 0 0-4.62-1.93 4.37 4.37 0 0 0-2.57 1.78 4.46 4.46 0 0 0-0.65 1.44 1.77 1.77 0 0 0-0.11 0.6 0.89 0.89 0 0 0 0.09 0.26c0.26 0.36 0.52 0.7 0.7 1.1z" fill="#ffbf9d"/>
    <path d="m902.9 278.9c0.25 0 0.58 3.74 0.18 8.34s-1.36 8.24-1.6 8.19 0.29-3.73 0.67-8.27 0.46-8.25 0.75-8.26z" fill="#ff9a6c"/>
    <path d="m909.1 279.8c0.26 0 0.37 3.11-0.12 6.89s-1.06 6.77-1.3 6.75-0.1-3.12 0.38-6.87 0.78-6.78 1.04-6.77z" fill="#ff9a6c"/>
   </g>
   <g transform="matrix(.7132 0 0 .7098 -444.1 292.7)">
    <g fill="#fff" aria-label="Testing 56%">
     <path d="m1045-134.1h-10.39v25.64h-3.867v-25.64h-10.39v-3.438h24.65z"/>
     <path d="m1063-119h-16.07q0 2.012 0.6054 3.516 0.6055 1.484 1.66 2.441 1.016 0.9375 2.402 1.406 1.406 0.4688 3.086 0.4688 2.226 0 4.473-0.8789 2.266-0.8984 3.223-1.758h0.1953v4.004q-1.856 0.7812-3.789 1.309t-4.062 0.5273q-5.43 0-8.476-2.93-3.047-2.949-3.047-8.359 0-5.352 2.91-8.496 2.93-3.145 7.695-3.145 4.414 0 6.797 2.578 2.402 2.578 2.402 7.324zm-3.574-2.812q-0.02-2.891-1.465-4.473-1.426-1.582-4.356-1.582-2.949 0-4.707 1.738-1.738 1.738-1.973 4.316z"/>
     <path d="m1084-114.7q0 2.988-2.48 4.902-2.461 1.914-6.738 1.914-2.422 0-4.453-0.5664-2.012-0.5859-3.379-1.27v-4.121h0.1953q1.738 1.309 3.867 2.09 2.129 0.7617 4.082 0.7617 2.422 0 3.789-0.7812t1.367-2.461q0-1.289-0.7422-1.953-0.7422-0.6641-2.852-1.133-0.7813-0.1758-2.051-0.4102-1.25-0.2344-2.285-0.5078-2.871-0.7617-4.082-2.227-1.191-1.484-1.191-3.633 0-1.348 0.5469-2.539 0.5664-1.191 1.699-2.129 1.094-0.918 2.773-1.445 1.699-0.5469 3.789-0.5469 1.953 0 3.945 0.4883 2.012 0.4688 3.34 1.152v3.926h-0.1953q-1.406-1.035-3.418-1.738-2.012-0.7227-3.945-0.7227-2.012 0-3.398 0.7812-1.387 0.7617-1.387 2.285 0 1.348 0.8398 2.031 0.8203 0.6836 2.656 1.113 1.016 0.2344 2.266 0.4688 1.27 0.2344 2.109 0.4297 2.559 0.5859 3.945 2.012 1.387 1.445 1.387 3.828z"/>
     <path d="m1101-108.6q-1.035 0.2734-2.266 0.4492-1.211 0.1758-2.168 0.1758-3.34 0-5.078-1.797-1.738-1.797-1.738-5.762v-11.6h-2.48v-3.086h2.48v-6.27h3.672v6.27h7.578v3.086h-7.578v9.941q0 1.719 0.078 2.695 0.078 0.957 0.5469 1.797 0.4297 0.7812 1.172 1.152 0.7617 0.3516 2.305 0.3516 0.8984 0 1.875-0.2539 0.9765-0.2734 1.406-0.4492h0.1953z"/>
     <path d="m1109-133.9h-4.141v-3.809h4.141zm-0.2344 25.47h-3.672v-21.82h3.672z"/>
     <path d="m1134-108.4h-3.672v-12.42q0-1.504-0.1758-2.812-0.1757-1.328-0.6445-2.07-0.4883-0.8203-1.406-1.211-0.918-0.4102-2.383-0.4102-1.504 0-3.144 0.7422-1.641 0.7422-3.144 1.895v16.29h-3.672v-21.82h3.672v2.422q1.719-1.426 3.555-2.227 1.836-0.8008 3.77-0.8008 3.535 0 5.391 2.129 1.856 2.129 1.856 6.133z"/>
     <path d="m1159-110.9q0 5.547-2.52 8.145-2.52 2.598-7.754 2.598-1.738 0-3.398-0.2539-1.641-0.2344-3.242-0.6836v-3.75h0.1953q0.8984 0.3516 2.852 0.8594 1.953 0.5274 3.906 0.5274 1.875 0 3.105-0.4492 1.23-0.4492 1.914-1.25 0.6836-0.7617 0.9766-1.836 0.2929-1.074 0.2929-2.402v-1.992q-1.66 1.328-3.184 1.992-1.504 0.6445-3.848 0.6445-3.906 0-6.211-2.812-2.285-2.832-2.285-7.969 0-2.812 0.7812-4.844 0.8008-2.051 2.168-3.535 1.27-1.387 3.086-2.148 1.816-0.7812 3.613-0.7812 1.895 0 3.164 0.3906 1.289 0.3711 2.715 1.152l0.2344-0.9375h3.438zm-3.672-3.516v-11.89q-1.465-0.6641-2.734-0.9375-1.25-0.293-2.5-0.293-3.027 0-4.766 2.031-1.738 2.031-1.738 5.898 0 3.672 1.289 5.566 1.289 1.895 4.277 1.895 1.602 0 3.203-0.6055 1.621-0.625 2.969-1.66z"/>
     <path d="m1199-117.7q0 2.031-0.7422 3.887t-2.031 3.125q-1.406 1.367-3.359 2.109-1.934 0.7227-4.492 0.7227-2.383 0-4.59-0.5078-2.207-0.4883-3.73-1.191v-4.121h0.2735q1.602 1.016 3.75 1.738 2.148 0.7031 4.219 0.7031 1.387 0 2.676-0.3906 1.309-0.3906 2.324-1.367 0.8594-0.8398 1.289-2.012 0.4492-1.172 0.4492-2.715 0-1.504-0.5273-2.539-0.5078-1.035-1.426-1.66-1.016-0.7422-2.48-1.035-1.445-0.3125-3.242-0.3125-1.719 0-3.32 0.2344-1.582 0.2344-2.734 0.4688v-14.98h17.5v3.418h-13.73v7.734q0.8398-0.0781 1.719-0.1172 0.8789-0.0391 1.524-0.0391 2.363 0 4.141 0.4102 1.777 0.3906 3.262 1.406 1.562 1.074 2.422 2.773t0.8594 4.258z"/>
     <path d="m1225-117.9q0 4.434-2.93 7.246-2.91 2.793-7.148 2.793-2.148 0-3.906-0.6641-1.758-0.6641-3.105-1.973-1.68-1.621-2.598-4.297-0.8984-2.676-0.8984-6.445 0-3.867 0.8203-6.855 0.8398-2.988 2.656-5.312 1.719-2.207 4.434-3.438 2.715-1.25 6.328-1.25 1.152 0 1.934 0.0977 0.7813 0.0977 1.582 0.3516v3.73h-0.1953q-0.5469-0.293-1.66-0.5469-1.094-0.2734-2.246-0.2734-4.199 0-6.699 2.637-2.5 2.617-2.91 7.09 1.641-0.9961 3.223-1.504 1.602-0.5274 3.691-0.5274 1.856 0 3.262 0.3516 1.426 0.332 2.91 1.367 1.719 1.191 2.578 3.008 0.8789 1.816 0.8789 4.414zm-3.965 0.1562q0-1.816-0.5469-3.008-0.5274-1.191-1.758-2.07-0.8985-0.625-1.992-0.8203-1.094-0.1953-2.285-0.1953-1.66 0-3.086 0.3906-1.426 0.3906-2.93 1.211-0.039 0.4297-0.059 0.8398-0.02 0.3906-0.02 0.9961 0 3.086 0.625 4.883 0.6445 1.777 1.758 2.812 0.8984 0.8594 1.934 1.27 1.055 0.3906 2.285 0.3906 2.832 0 4.453-1.719 1.621-1.738 1.621-4.98z"/>
     <path d="m1245-129.4q0 4.375-1.856 6.504-1.836 2.129-5.312 2.129-3.555 0-5.371-2.129-1.816-2.129-1.816-6.484 0-4.375 1.856-6.504t5.332-2.129q3.535 0 5.352 2.148t1.816 6.465zm13.5-8.066-15.23 29.08h-3.223l15.23-29.08zm9.375 21.02q0 4.375-1.856 6.504-1.855 2.129-5.332 2.129-3.535 0-5.352-2.148t-1.816-6.465q0-4.375 1.836-6.504 1.855-2.129 5.332-2.129 3.555 0 5.371 2.129t1.816 6.484zm-26.35-12.95q0-3.359-0.8789-4.688-0.8593-1.328-2.812-1.328-1.992 0-2.852 1.328-0.8594 1.328-0.8594 4.707 0 3.379 0.8594 4.707 0.8593 1.309 2.852 1.309 1.953 0 2.812-1.309 0.8789-1.328 0.8789-4.727zm22.87 12.95q0-3.359-0.8789-4.688-0.8594-1.328-2.812-1.328-1.992 0-2.852 1.328-0.8594 1.328-0.8594 4.707 0 3.379 0.8594 4.707 0.8593 1.309 2.852 1.309 1.953 0 2.812-1.309 0.8789-1.328 0.8789-4.727z"/>
    </g>
   </g>
   <path d="m235.9 400.5c0.8165 1.428 1.177 3.187 1.812 5.795l6.411-3.235c1.411 9.67-0.5566 16.42-6.55 24.66l11.01 0.4043c3.972-11.72 3.532-27.3 2.091-34.37-4.859 1.979-9.59 5.315-14.77 6.739z" fill="#e0e0e0"/>
  </g>
  <g transform="matrix(.7434 0 0 .7098 1356 -427.4)">
   <g transform="translate(16.92 -5.639)">
    <polygon class="st35" transform="matrix(2.106 0 0 2.224 -2878 696)" points="559.6 157.8 551.7 147.6 484.5 147.6 476 158.1 476 250.7 484.5 261.2 552.6 261.2 559 252.2" fill="#2d4857"/>
    <polygon class="st41" transform="matrix(2.106 0 0 2.224 -2878 696)" points="532 147.6 484.5 147.6 476 158.1 476 158.2 532 158.2" fill="#233844"/>
    <polygon class="st41" transform="matrix(2.106 0 0 2.224 -2878 696)" points="476 250.7 532 250.7 532 261.2 484.5 261.2" fill="#233844"/>
    <polygon class="st34" transform="matrix(2.106 0 0 2.224 -2878 696)" points="526.3 147.6 517.8 158.1 517.8 250.7 525.5 261.2 594.4 261.2 600.7 252.2 601.4 157.8 593.5 147.6" fill="#29414f"/>
    <path class="st42" d="m-1746 1256h101.7c11.16 0 20.43-9.564 20.43-21.58v-167.7c0-11.79-9.057-21.58-20.43-21.58h-101.7c-11.16 0-20.43 9.564-20.43 21.58v167.7c0 11.79 9.057 21.58 20.43 21.58z" fill="#263238" stroke="#384952" stroke-width="3.896"/>
    <rect class="st43" transform="scale(-1)" x="1807" y="-1254" width="54.34" height="157.5" fill="#465b66" stroke-width="2.164"/>
    <rect class="st34" transform="scale(-1)" x="1810" y="-1254" width="47.18" height="154.1" fill="#21333d" stroke-width="2.164"/>
    <rect class="st38" transform="scale(-1)" x="1832" y="-1254" width="8.215" height="118.1" fill="#fe7a01" stroke-width="2.164"/>
   </g>
  </g>
 </g>
</svg>
