<svg version="1.1" viewBox="0 0 128 128" xmlns="http://www.w3.org/2000/svg" xmlns:xlink="http://www.w3.org/1999/xlink">
 <defs>
  <linearGradient id="linearGradient1270" x1="30.49" x2="30.59" y1="10.92" y2="26.58" gradientTransform="matrix(7.581 0 0 7.849 -169.2 -84.79)" gradientUnits="userSpaceOnUse">
   <stop stop-color="#fe0802" offset="0"/>
   <stop stop-color="#fef200" offset="1"/>
  </linearGradient>
 </defs>
 <path d="m75.11 0.6332c-3.548 1.545-6.643 3.764-9.906 5.915-7.123 4.455-12.51 10.97-10.25 21.42 0.4693 3.528 1.861 7.991 0.9364 9.341-1.212-1.87-1.659-3.598-3.105-5.117-1.044 2.124-1.71 3.668-2.809 5.763-1.363-1.034-2.694-2.014-2.859-2.932-0.6359-6.293 1.11-14.62-2.415-19.53-2.806-4.149-14.51-9.957-17.94-9.938 0.03814 1.176 0.7533 3.069 1.972 5.567 2.059 3.213 7.461 6.516 6.901 10.73-1.202 7.287-3.218 14-6.308 21.47-3.079-3.492-3.929-6.784-3.45-9.591 1.011-2.77 5.446-8.161 8.723-11.83-1.573-1.739-3.013-3.079-4.387-4.224-4.958 3.39-7.297 9.072-9.167 14.31-4.762 7.272-8.789 15.31-8.873 27.43 0.6726 4.179 1.986 9.076 1.972 10.34-0.4631 0.9243-0.9029 1.873-1.183 2.982 0.6995 1.721 1.692 3.884 2.76 6.161-0.9829 3.465-0.8964 7.083-0.5915 10.73 2.711 10.5 6.359 17.42 18.34 31.21 1.402 1.463 7.093 4.888 9.843 5.265 9.411 1.306 19.43 3.661 29.2 1.429 3.557-0.7741 22.1-9.667 23.96-13.43 1.945-0.5074 8.375-16.11 7.782-28.85-0.9604-8.486-4.427-16.49-10.25-24.05 2.117-4.584 2.941-9.001 2.957-13.32-0.9174-0.02572-1.838 0.2016-2.76 0.5464 0.8712-2.797 1.32-6.179 0.9364-8.15-1.066-7.102-5.7-13.07-9.069-22.16 0.5606-2.853 1.737-5.011 2.711-7.454-1.751-0.9008-3.521-1.794-5.915-2.435-2.644 3.048-1.885 6.195-2.07 9.243-1.704 4.16-2.521 8.396-1.085 12.82 0.7403 4.107 3.129 7.794 1.873 12.37-0.9858 0.2941-1.528 0.1685-2.514-0.1983 0.1165-2.622 0.171-4.803-0.09864-7.552-2.071 1.192-3.073 2.989-4.238 4.572-5.002-6.41-6.035-12.79-6.111-18.53 0.2809-7.896 8.294-20.5 6.508-20.32zm-13.5 60.21c5.788 1.97 11.32 7.749 16.94 12.3 1.729 1.449 4.864 10.92 5.297 17.78-0.8243 3.595-2.892 6.581-5.534 12.01-4.074 4.13-8.174 8.036-12.62 8.853-8.374-0.1287-12.18-5.109-13.73-6.535l-5.852-7.172c-4.773-5.109-5.65-10.81-4.853-15.17l1.534-11.45c1.028-3.103 2.166-6.191 5.926-8.925 3.685-1.183 8.101-1.626 12.9-1.687z" fill="#605841"/>
 <path d="m81.15 0.06395c-3.548 1.545-6.643 3.764-9.906 5.915-7.123 4.455-12.51 10.97-10.25 21.42 0.4693 3.528 1.861 7.991 0.9364 9.341-1.212-1.87-1.659-3.598-3.105-5.117-1.044 2.124-1.71 3.668-2.809 5.763-1.363-1.034-2.694-2.014-2.859-2.932-0.6359-6.293 1.11-14.62-2.415-19.53-2.806-4.149-14.51-9.957-17.94-9.938 0.03814 1.176 0.7533 3.069 1.972 5.567 2.059 3.213 7.461 6.516 6.901 10.73-1.202 7.287-3.218 14-6.308 21.47-3.079-3.492-3.929-6.784-3.45-9.591 1.011-2.77 5.446-8.161 8.723-11.83-1.573-1.739-3.013-3.079-4.387-4.224-4.958 3.39-7.297 9.072-9.167 14.31-4.762 7.272-8.789 15.31-8.873 27.43 0.6726 4.179 1.986 9.076 1.972 10.34-0.4631 0.9243-0.9029 1.873-1.183 2.982 0.6995 1.721 1.692 3.884 2.76 6.161-0.9829 3.465-0.8964 7.083-0.5915 10.73 2.711 10.5 6.359 17.42 18.34 31.21 1.402 1.463 7.093 4.888 9.843 5.265 9.411 1.306 19.43 3.661 29.2 1.429 3.557-0.7741 22.1-9.667 23.96-13.43 1.945-0.5074 8.375-16.11 7.782-28.85-0.9604-8.486-4.427-16.49-10.25-24.05 2.117-4.584 2.941-9.001 2.957-13.32-0.9174-0.02572-1.838 0.2016-2.76 0.5464 0.8712-2.797 1.32-6.179 0.9364-8.15-1.066-7.102-5.7-13.07-9.069-22.16 0.5606-2.853 1.737-5.011 2.711-7.454-1.751-0.9008-3.521-1.794-5.915-2.435-2.644 3.048-1.885 6.195-2.07 9.243-1.704 4.16-2.521 8.396-1.085 12.82 0.7403 4.107 3.129 7.794 1.873 12.37-0.9858 0.2941-1.528 0.1685-2.514-0.1983 0.1165-2.622 0.171-4.803-0.09864-7.552-2.071 1.192-3.073 2.989-4.238 4.572-5.002-6.41-6.035-12.79-6.111-18.53 0.2809-7.896 8.294-20.5 6.508-20.32zm-13.5 60.21c5.788 1.97 11.32 7.749 16.94 12.3 1.729 1.449 4.864 10.92 5.297 17.78-0.8243 3.595-2.892 6.581-5.534 12.01-4.074 4.13-8.174 8.036-12.62 8.853-8.374-0.1287-12.18-5.109-13.73-6.535l-5.852-7.172c-4.773-5.109-5.65-10.81-4.853-15.17l1.534-11.45c1.028-3.103 2.166-6.191 5.926-8.925 3.685-1.183 8.101-1.626 12.9-1.687z" fill="url(#linearGradient1270)"/>
</svg>