<svg width="200" height="200" version="1.1" viewBox="1 0 33 42" xmlns="http://www.w3.org/2000/svg">
 <g transform="matrix(.2081 0 0 .21 -3.332 .1203)">
  <path d="m200 36s-7.1 3.3-7.1 12.6c-0.1 0 7.6-1.8 7.1-12.6z" enable-background="new    " fill="#f07e1a" opacity=".5"/>
  <g fill="#f07e1a" opacity=".5">
   <path d="m164.9 116.1c10.9-10.9 18.2-30.6 23-50.6 0.3-0.8 2.2-9 2.2-9s-5.1 5.7-6 6.6c-4.2 3.7-9.3 6.3-14.8 7.3-1.2 0.2-2.4-0.6-2.7-1.9-7.2-28.3 13.4-50 24.2-59.1 5.7-4.3 9-4.3 9-4.3s-9.7 0.1-10.9 0.3c-1.4 0.1-11.7 1-16.5 2.2-8 1.9-23.2 7.3-23.2 7.3-1.5 0.2 7.5-8 6-7.8-26 4.3-54.4 14.7-69.5 29.8-4 4-7.2 8.5-9.6 13.3-5.1 10.2-13.8 18.3-24.4 22.7-6.1 2.5-11.7 6.1-16.6 11-10.9 10.9-18.2 30.6-23 50.6-0.3 0.8-2.2 9-2.2 9s5.1-5.7 6-6.6c4.2-3.7 9.3-6.3 14.8-7.3 1.2-0.2 2.4 0.6 2.7 1.9 7.2 28.3-13.4 50-24.2 59.1-5.7 4.3-9 4.3-9 4.3s9.7-0.1 10.9-0.3c1.4-0.1 11.7-1 16.5-2.2 8-1.9 23.2-7.3 23.2-7.3 1.5-0.2-7.5 8-6 7.8 26-4.3 54.4-14.7 69.5-29.8 4-4 7.2-8.5 9.6-13.3 5.1-10.3 13.8-18.3 24.4-22.7 6.1-2.5 11.7-6.1 16.6-11z"/>
   <path d="m0 164s7.1-3.3 7.1-12.6c0.1 0-7.6 1.9-7.1 12.6z"/>
  </g>
  <path d="m119.5 133.3c3.1-6.7 8.6-11.9 15.1-15.4 2.9-1.6 5.6-3.6 8-6 14.5-14.5 19.9-51.9 21.7-68.9 0.3-1.4 0.3-9 0.3-9s-4.2 6.1-4.8 6.8c-7.1 7.6-20.8 18.8-38.3 14.9-1.4-0.3-2.3-1.7-2-3.1v-0.1c0.7-2.5 1.8-4.9 3.3-7 0.9-1.1 5.8-6.2 5.8-6.2-0.7-0.6-7.9 1.8-8.7 2.1-13 3.3-25.4 8.2-32.5 15.2-3 3-5.3 6.3-7 10-3.1 6.7-8.6 11.9-15.1 15.4-2.9 1.6-5.6 3.6-8 6-14.4 14.6-19.8 52-21.6 69-0.3 1.4-0.3 9-0.3 9s4.2-6.1 4.8-6.8c7.1-7.6 20.8-18.8 38.3-14.9 1.4 0.3 2.3 1.7 2 3.1v0.1c-0.7 2.5-1.8 4.9-3.3 7-0.9 1.1-5.8 6.2-5.8 6.2 0.7 0.6 7.9-1.8 8.7-2.1 13-3.3 25.4-8.2 32.5-15.2 2.9-3.1 5.2-6.4 6.9-10.1z" enable-background="new    " fill="#ffdb05" opacity=".5"/>
  <g fill="#fff">
   <path d="m129.1 93.6v0c0-0.1 0.1-0.3 0 0z" enable-background="new    " opacity=".5"/>
   <path d="m72.4 107.9c0 0.1-0.1 0.3 0 0z" enable-background="new    " opacity=".5"/>
   <path d="m110.6 123c1.3-1.4 2.4-3 3.3-4.6 1.9-3.7 4.5-6.8 7.5-9.7h0.1c3.7-4.3 6.3-9.5 7.7-15-0.1 0.2-0.1 0.3 0 0 1.6-5.1 1.9-6.5 0.1-5.5l-3.8 2.4c-0.3 0.1-0.8 0.3-1.1 0.3-1.4 0.1-2.4-1.1-2.5-2.5-0.6-6.4 1.7-12.7 6.2-17.2 0.6-0.6 6.9-5 6.9-5s-7.9 0.4-9.3 0.7c-10.3 1.3-27.4 4.4-34.5 11.5l-0.2 0.2c-1.3 1.4-2.4 3-3.3 4.6-1.9 3.7-4.5 6.8-7.5 9.7h-0.1c-3.7 4.3-6.3 9.5-7.7 15 0.1-0.2 0.1-0.3 0 0-1.6 5.1-1.9 6.5-0.1 5.5l3.8-2.4c0.3-0.1 0.8-0.3 1.1-0.3 1.4-0.1 2.4 1.1 2.5 2.5 0.6 6.4-1.7 12.7-6.2 17.2-0.6 0.6-6.9 5-6.9 5s7.9-0.4 9.3-0.7c10.3-1.3 27.4-4.4 34.5-11.5l0.2-0.2z" enable-background="new    " opacity=".5"/>
  </g>
  <polyline points="52.5 120.4 45.6 116.6 32.9 139.9 25.8 135.7 17.7 145.8 25.9 139.7 34.3 144.5 46.5 122.4 54.8 126.5" fill="#e52421"/>
  <polygon points="50 69.2 93.3 53.2 129.9 55.5 97.3 99" fill="#f3f3f3"/>
  <polygon points="95.4 162.7 50 155.4 50 69.2 95.4 74.2" fill="#52535f"/>
  <polygon points="129.9 133.6 95.4 162.7 95.4 74.2 129.9 55.5" fill="#89898b"/>
  <polygon points="91.7 137.1 53.7 131.1 53.7 73.6 91.7 78.1" fill="#2b2b2f"/>
  <g fill="#050607">
   <polygon points="57.2 129.7 56 129.6 56 126 57.2 126"/>
   <polyline points="58.2 126.3 59.4 126.3 59.4 130 58.2 129.9"/>
   <path d="m85.1 88.6-3.6-0.4c-0.6-0.1-1.1-0.6-1.1-1.2v-3.6c0-0.7 0.6-1.3 1.3-1.2l3.6 0.4c0.6 0.1 1.1 0.6 1.1 1.2v3.6c0.1 0.7-0.5 1.3-1.3 1.2z"/>
  </g>
  <g fill="#68c4d5">
   <circle cx="76" cy="84.6" r=".9"/>
   <circle cx="72" cy="84.2" r=".9"/>
   <circle cx="67.3" cy="83.7" r=".9"/>
  </g>
  <path d="m85.5 92-1.3-0.1c-0.2 0-0.4-0.2-0.4-0.4v-1.3c0-0.3 0.2-0.5 0.5-0.4l1.3 0.1c0.2 0 0.4 0.2 0.4 0.4v1.3c0 0.2-0.2 0.4-0.5 0.4z" fill="#050607"/>
  <path d="m116.7 88.6c-0.1 0.3-3.9 7.2-4.1 6.9-0.2-0.4-2.9-3.4-2.9-3.4l-0.1 7.4-4.3 4.4h6.1l-1.2 12.7 4.5-12.5 4.1 0.1-1.9-4.2 2.9-2.2s-4.2-2.5-4-3 0.9-6.2 0.9-6.2z" fill="#2b2b2f"/>
  <g fill="#52535f">
   <path d="m115.8 95c-0.1-0.1-0.1-0.2-0.1-0.2 0.2-0.5 0.9-6.2 0.9-6.2 0 0.1-0.5 1-1.1 2-0.2 1.6-0.5 3.3-0.6 3.5 0.1 0.2 0.4 0.5 0.9 0.9z"/>
   <path d="m119.7 97.8s-0.4-0.2-0.9-0.5l-2.7 2.1 1.9 4.2-4.1-0.1-3.5 9.6-0.3 3.6 4.5-12.5 4.1 0.1-1.9-4.2z"/>
   <polygon points="105.3 103.8 110.6 103.8 110.7 103.8 111.4 103.8 110.7 103.2 106 103.2"/>
   <path d="m111.9 94.8 0.7 0.6-0.7-0.6c0-0.2 0-0.2-0.1-0.3-0.8-1-2.1-2.5-2.1-2.5v0.2c0.6 0.7 1.5 1.8 1.9 2.3z"/>
  </g>
  <path d="m116.7 88.6c0.2-2.2 0.6-4.4 1-6.5v0.3c-1.1-2-2.1-4.1-3-6.2l-0.1-0.2 0.1-0.1c0.3-0.3 0.6-0.7 0.9-1l1-1c-0.2 0.4-0.5 0.8-0.7 1.2s-0.5 0.8-0.7 1.1v-0.3c1.2 2 2.3 4 3.3 6l0.1 0.2v0.2c-0.5 2.1-1.1 4.2-1.9 6.3z" fill="#2b2b2f"/>
  <path d="m109.8 92.2c-0.6-0.7-0.9-1.4-1.1-2.2s-0.4-1.6-0.2-2.5c0.6 0.7 1 1.4 1.2 2.2 0.1 0.4 0.2 0.8 0.2 1.2s0 0.9-0.1 1.3z" fill="#2b2b2f"/>
  <path d="m119.7 97.8c0.4 1.1 0.8 2.2 1 3.3l-0.4-0.3c0.7 0 1.4-0.1 2.1-0.1h0.4l0.1 0.4c0.2 1.3 0.2 2.5 0.3 3.8v0.3l-0.2 0.1c-0.7 0.3-1.3 0.5-2 0.7l0.1-0.3c0.2 0.4 0.4 0.8 0.6 1.1l-0.9-0.9-0.1-0.2 0.2-0.1c0.6-0.4 1.2-0.8 1.8-1.1l-0.2 0.4c-0.2-1.3-0.4-2.5-0.5-3.8l0.5 0.4c-0.7 0-1.4 0-2.1-0.1h-0.4v-0.3c-0.2-1-0.3-2.2-0.3-3.3z" fill="#2b2b2f"/>
  <path d="m118.8 104.1c-0.2 0.9-0.4 1.8-0.7 2.6-0.3 0.9-0.6 1.7-0.9 2.5l-0.1-0.5c0.5 0.6 1 1.2 1.5 1.9l0.2 0.2-0.1 0.2c-0.5 1.4-1.1 2.8-1.9 4.1 0.2-1.5 0.6-3 1-4.4l0.1 0.4-1.5-1.8-0.2-0.2 0.1-0.3 1.2-2.4c0.3-0.7 0.8-1.5 1.3-2.3z" fill="#2b2b2f"/>
  <path d="m119.7 108.3c-0.6-0.1-1-0.4-1.3-0.7-0.3-0.4-0.5-0.8-0.5-1.4 0.6 0.1 1 0.4 1.3 0.7 0.3 0.4 0.5 0.8 0.5 1.4z" fill="#2b2b2f"/>
  <path d="m121.9 80.1c-0.2 1.2-0.6 2.4-1.1 3.5s-1 2.2-1.6 3.3l-0.3 0.4-0.3-0.3c-0.4-0.5-0.9-0.9-1.2-1.5 0.6 0.3 1.1 0.6 1.7 0.9l-0.5 0.1c0.4-1.2 0.8-2.3 1.4-3.4 0.5-0.9 1.1-2 1.9-3z" fill="#2b2b2f"/>
  <path d="m107.9 103.2 15.3-12.4 7.3 7 22.6-35.8v18.2l18.2-46.3s1.5 14.2 2.6 13.1 9.9-24.1 9.9-24.1l-10.1 38.3-3.6-9.8-18.2 45.8-3.1-17.9-18.1 24.2-7.7-5.8-11.5 6.7 0.1-0.6-0.7-0.6z" fill="#e52421"/>
  <path d="m174.9 25.8c-0.3-1-0.8-1.9-1.2-2.8s-0.9-1.8-1.4-2.7c-1-1.8-2-3.6-2.9-5.4h1c-1.3 2.6-2.5 5.2-3.8 7.8s-2.6 5.1-3.9 7.7-2.7 5.1-4 7.7-2.7 5.1-4.1 7.6l-0.5 0.9-0.9-0.6c-3.1-2-6.1-4.1-9.1-6.1l1.3-0.5c-1.2 3.8-2.4 7.6-3.6 11.3-0.6 1.9-1.3 3.8-1.9 5.6-0.6 1.9-1.3 3.8-2 5.6 0.4-1.9 0.9-3.9 1.4-5.8s0.9-3.9 1.4-5.8c1-3.8 2-7.7 3-11.5l0.3-1.1 1 0.6c3.1 2 6.2 3.9 9.3 5.9l-1.4 0.4c1.3-2.6 2.7-5.1 4-7.6 1.4-2.5 2.7-5.1 4.1-7.6s2.8-5.1 4.2-7.6 2.8-5 4.3-7.5l0.5-0.9 0.5 0.9c0.9 1.9 1.7 3.7 2.5 5.6 0.4 0.9 0.8 1.9 1.2 2.9 0.1 1 0.4 2 0.7 3z" fill="#e52421"/>
  <path d="m145.8 99c-0.9 1.5-1.9 3-2.9 4.4s-2.1 2.9-3.1 4.3c-1.1 1.4-2.2 2.8-3.3 4.1s-2.3 2.7-3.5 4l-0.6 0.7-0.6-0.6c-1.3-1.2-2.6-2.4-3.9-3.7s-2.5-2.6-3.7-3.9c1.5 0.9 3 1.9 4.5 3 1.5 1 2.9 2.1 4.3 3.2l-1.3 0.1c1.1-1.4 2.2-2.8 3.3-4.1s2.3-2.7 3.5-4 2.4-2.6 3.6-3.9c1.1-1.2 2.4-2.5 3.7-3.6z" fill="#e52421"/>
  <path d="m44 106.9c-1 1.9-2.1 3.7-3.2 5.5s-2.3 3.6-3.5 5.3c-2.5 3.5-5 6.8-7.8 10l-0.3 0.3-0.3-0.1c-2.6-1-5.2-1.9-7.7-3 2.7 0.6 5.4 1.2 8.1 1.9l-0.6 0.2c2.2-3.6 4.6-7.1 7.2-10.5 1.3-1.7 2.6-3.3 4-5 1.2-1.5 2.6-3.1 4.1-4.6z" fill="#e52421"/>
  <path d="m76.9 48.2-8 4-8 3.9c-5.3 2.6-10.7 5.2-15.9 8-0.7 0.3-1.3 0.7-1.9 1l-0.9 0.6c-0.1 0.1-0.3 0.2-0.4 0.3 0 0-0.1 0-0.1 0.1v-0.1c0-0.1 0-0.2-0.1-0.2v0.3c0 0.1 0.1 0.3 0.1 0.4v0.9 1.1 2.2c0 3 0 5.9-0.1 8.9-0.1 5.9-0.3 11.9-0.6 17.8l-0.2-17.8 0.2-9.1v-2.2-1.1-0.8-0.2-0.7c0.1-0.1 0.1-0.2 0.2-0.2l0.1-0.1c0.2-0.1 0.3-0.2 0.5-0.3 0.3-0.2 0.6-0.4 1-0.6 0.7-0.4 1.3-0.7 2-1.1 5.3-2.7 10.7-5.3 16-7.8 5.2-2.5 10.7-4.9 16.1-7.2z" fill="#e52421"/>
  <path d="m138.9 121.5c0.2 5.2 0.3 10.4 0.4 15.5v0.2l-0.1 0.1-7.7 6.8c-2.6 2.3-5.2 4.5-7.8 6.7s-5.2 4.4-7.9 6.6c-2.6 2.2-5.3 4.4-8 6.5 2.5-2.3 5-4.7 7.6-7 2.5-2.3 5.1-4.6 7.7-6.8s5.1-4.5 7.7-6.8l7.8-6.7-0.1 0.3c0.1-5 0.2-10.2 0.4-15.4z" fill="#e52421"/>
  <path d="m145.8 130c0.2 2.1 0.3 4.2 0.4 6.4 0.1 2.1 0.1 4.2 0.1 6.4v0.2l-0.2 0.2-6 5.1c-2.1 1.6-4.1 3.3-6.3 4.8 1.8-1.9 3.8-3.7 5.7-5.5 2-1.8 3.9-3.5 5.9-5.2l-0.2 0.4c0-2.1 0-4.2 0.1-6.4 0.2-2.1 0.3-4.2 0.5-6.4z" fill="#e52421"/>
 </g>
</svg>
