<svg width="200" height="200" version="1.1" viewBox="1 0 33 42" xmlns="http://www.w3.org/2000/svg">
 <g transform="matrix(.2091 0 0 .21 -3.38 .4064)">
  <path d="m200 34s-7.1 3.3-7.1 12.6c-0.1 0 7.6-1.9 7.1-12.6z" enable-background="new    " fill="#f07e1a" opacity=".5"/>
  <g fill="#f07e1a" opacity=".5">
   <path d="m164.9 114c10.9-10.9 18.2-30.6 23-50.6 0.3-0.8 2.2-9 2.2-9s-5.1 5.7-6 6.6c-4.2 3.7-9.3 6.3-14.8 7.3-1.2 0.2-2.4-0.6-2.7-1.9-7.2-28.3 13.4-50 24.2-59.1 5.7-4.3 9-4.3 9-4.3s-9.7 0.1-10.9 0.3c-1.4 0.1-11.7 1-16.5 2.2-8 1.9-23.2 7.3-23.2 7.3-1.5 0.2 7.5-8 6-7.8-26 4.3-54.4 14.7-69.5 29.8-4 4-7.2 8.5-9.6 13.3-5.1 10.3-13.8 18.4-24.4 22.7-6.1 2.5-11.7 6.2-16.6 11.1-10.9 10.9-18.2 30.6-23 50.6-0.3 0.8-2.2 9-2.2 9s5.1-5.7 6-6.6c4.2-3.7 9.3-6.3 14.8-7.3 1.2-0.2 2.4 0.6 2.7 1.9 7.2 28.3-13.4 50-24.2 59.1-5.7 4.3-9 4.3-9 4.3s9.7-0.1 10.9-0.3c1.4-0.1 11.7-1 16.5-2.2 8-1.9 23.2-7.3 23.2-7.3 1.5-0.2-7.5 8-6 7.8 26-4.3 54.4-14.7 69.5-29.8 4-4 7.2-8.5 9.6-13.3 5.1-10.3 13.8-18.3 24.4-22.7 6.1-2.5 11.7-6.2 16.6-11.1z"/>
   <path d="m0 161.9s7.1-3.3 7.1-12.6c0.1 0-7.6 1.9-7.1 12.6z"/>
  </g>
  <path d="m119.5 131.3c3.1-6.7 8.6-11.9 15.1-15.4 2.9-1.6 5.6-3.6 8-6 14.5-14.5 19.9-51.9 21.7-68.9 0.3-1.4 0.3-9 0.3-9s-4.2 6.1-4.8 6.8c-7.1 7.6-20.8 18.8-38.3 14.9-1.4-0.3-2.3-1.7-2-3.1v-0.1c0.7-2.5 1.8-4.9 3.3-7 0.9-1.1 5.8-6.2 5.8-6.2-0.7-0.6-7.9 1.8-8.7 2.1-13 3.3-25.4 8.2-32.5 15.2-3 3-5.3 6.3-7 10-3.1 6.7-8.6 11.9-15.1 15.4-2.9 1.6-5.6 3.6-8 6-14.5 14.5-19.9 51.9-21.6 68.9-0.3 1.4-0.3 9-0.3 9s4.2-6.1 4.8-6.8c7.1-7.6 20.8-18.8 38.3-14.9 1.4 0.3 2.3 1.7 2 3.1v0.1c-0.7 2.5-1.8 4.9-3.3 7-0.9 1.1-5.8 6.2-5.8 6.2 0.7 0.6 7.9-1.8 8.7-2.1 13-3.3 25.4-8.2 32.5-15.2 2.9-3 5.2-6.4 6.9-10z" enable-background="new    " fill="#ffdb05" opacity=".5"/>
  <g fill="#fff">
   <path d="m129.1 91.6c0-0.2 0.1-0.3 0 0z" enable-background="new    " opacity=".5"/>
   <path d="m72.4 105.8c0 0.2-0.1 0.4 0 0z" enable-background="new    " opacity=".5"/>
   <path d="m110.6 121c1.3-1.4 2.4-3 3.3-4.6 1.9-3.7 4.5-6.8 7.5-9.7h0.1c3.7-4.3 6.3-9.5 7.7-15-0.1 0.2-0.1 0.3 0 0 1.6-5.1 1.9-6.5 0.1-5.5l-3.8 2.4c-0.3 0.1-0.8 0.3-1.1 0.3-1.4 0.1-2.4-1.1-2.5-2.5-0.6-6.4 1.7-12.7 6.2-17.2 0.6-0.6 6.9-5 6.9-5s-7.9 0.4-9.3 0.7c-10.3 1.3-27.4 4.4-34.5 11.5l-0.2 0.2c-1.3 1.4-2.4 3-3.3 4.6-1.9 3.7-4.5 6.8-7.5 9.7h-0.1c-3.7 4.3-6.3 9.5-7.7 15 0.1-0.2 0.1-0.3 0 0-1.6 5.1-1.9 6.5-0.1 5.5l3.8-2.4c0.3-0.1 0.8-0.3 1.1-0.3 1.4-0.1 2.4 1.1 2.5 2.5 0.6 6.4-1.7 12.7-6.2 17.2-0.6 0.6-6.9 5-6.9 5s7.9-0.4 9.3-0.7c10.3-1.3 27.4-4.4 34.5-11.5 0.1-0.1 0.1-0.2 0.2-0.2z" enable-background="new    " opacity=".5"/>
  </g>
  <path d="m42.1 154.8h99.5v-99.2h-99.5z" fill="#2b2b2f"/>
  <circle cx="91.6" cy="105" r="46.1" fill="#f3f3f3"/>
  <path d="m91.6 60.3c-11.8 0-23.2 4.7-31.6 13.1l14.6 14.6c9.4-9.4 24.6-9.4 34 0l14.6-14.6c-8.3-8.4-19.7-13.1-31.6-13.1z" fill="#ffdb05"/>
  <path d="m74.6 88-14.6-14.6c-11.9 11.9-16.1 29.4-10.9 45.3h22.9c-6.7-9.6-5.5-22.5 2.7-30.8h-0.1z" enable-background="new    " fill="#67b32e" opacity=".5"/>
  <path d="m123.2 73.4-14.6 14.6c8.2 8.2 9.4 21.2 2.8 30.8h22.9c5.2-16 1-33.5-10.9-45.3z" fill="#e52421"/>
  <path d="m117.3 84.1-28 16c-1.4 0.9-2.8 1.9-4 3-3.6 3.6-3.6 9.4 0 13s9.4 3.6 13 0c1.1-1.1 2-2.3 2.8-3.7z" fill="#2b2b2f"/>
  <circle cx="91.6" cy="109.6" r="4.6" fill="#f3f3f3"/>
  <g fill="#e52421" stroke="#e30613" stroke-miterlimit="10">
   <path d="m74.3 125.1h9.1v1.8h-7.2v5.7h7.2v1.8h-7.2v8.9h-1.8z"/>
   <path d="m86.5 125.1h3.6c2.1 0 3.5 0.1 4.2 0.3 1 0.3 1.9 0.8 2.5 1.6 0.7 0.8 1 1.8 1 3s-0.3 2.2-1 3c-0.6 0.8-1.5 1.3-2.6 1.6-0.8 0.2-2.4 0.3-4.6 0.3h-1.3v8.4h-1.8v-18.2zm1.8 1.8v6.1h3.1c1.2 0 2.1-0.1 2.7-0.3s1-0.6 1.4-1.1c0.3-0.5 0.5-1.1 0.5-1.7s-0.2-1.2-0.5-1.7-0.8-0.9-1.3-1.1-1.4-0.3-2.6-0.3h-3.3z"/>
   <path d="m99.5 139.8 1.5-0.9c1.1 2 2.3 3 3.7 3 0.6 0 1.2-0.1 1.7-0.4s0.9-0.7 1.2-1.1c0.3-0.5 0.4-1 0.4-1.5 0-0.6-0.2-1.2-0.6-1.8-0.6-0.8-1.6-1.8-3.1-2.9s-2.4-2-2.8-2.5c-0.6-0.9-1-1.8-1-2.8 0-0.8 0.2-1.5 0.6-2.1s0.9-1.2 1.6-1.5c0.7-0.4 1.4-0.6 2.2-0.6 0.9 0 1.6 0.2 2.4 0.6 0.7 0.4 1.5 1.2 2.4 2.3l-1.5 1.1c-0.7-0.9-1.3-1.5-1.7-1.8s-1-0.4-1.6-0.4c-0.7 0-1.3 0.2-1.8 0.7-0.5 0.4-0.7 1-0.7 1.6 0 0.4 0.1 0.8 0.2 1.1 0.2 0.4 0.5 0.8 0.9 1.2 0.2 0.2 1 0.8 2.3 1.8 1.6 1.2 2.6 2.2 3.2 3.1s0.9 1.8 0.9 2.7c0 1.3-0.5 2.4-1.5 3.4s-2.2 1.4-3.6 1.4c-1.1 0-2.1-0.3-3-0.9-0.7-0.4-1.5-1.4-2.3-2.8z"/>
  </g>
  <path d="m76.9 46.6c-3.6 0.2-7.3 0.3-10.9 0.4s-7.3 0.2-10.9 0.3c-7.3 0.1-14.5 0.2-21.8 0.3l1-1v14.2c0 4.7-0.1 9.5-0.1 14.2-0.1 4.7-0.2 9.5-0.3 14.2-0.2 4.7-0.3 9.5-0.5 14.2-0.2-4.7-0.4-9.5-0.5-14.2s-0.2-9.5-0.3-14.2c0-4.7-0.1-9.5-0.1-14.2v-14.2-1h1c7.3 0 14.5 0.1 21.8 0.3 3.6 0.1 7.3 0.2 10.9 0.3 3.5 0.1 7.1 0.2 10.7 0.4z" fill="#e52421"/>
  <path d="m51.2 165.1c4.6-0.4 9.2-0.6 13.8-0.8s9.2-0.2 13.8-0.2 9.2 0.1 13.8 0.2 9.2 0.4 13.8 0.8c-4.6 0.4-9.2 0.6-13.8 0.8s-9.2 0.2-13.8 0.2-9.2-0.1-13.8-0.2-9.2-0.4-13.8-0.8z" fill="#e52421"/>
  <path d="m134.5 165.1c5.9-0.5 11.9-0.7 17.8-0.8l-0.8 0.8c-0.1-3.7-0.1-7.5-0.1-11.2s0-7.5 0.1-11.2 0.1-7.5 0.3-11.2c0.1-3.7 0.3-7.5 0.6-11.2 0.3 3.7 0.5 7.5 0.6 11.2s0.2 7.5 0.3 11.2c0 3.7 0.1 7.5 0.1 11.2s-0.1 7.5-0.1 11.2v0.9h-0.8c-6.1-0.2-12.1-0.4-18-0.9z" fill="#e52421"/>
  <path d="m137.7 46.7c-1.9 0.4-3.8 0.6-5.6 0.7-1.9 0.1-3.7 0.2-5.6 0.2s-3.7-0.1-5.6-0.3-3.7-0.4-5.6-0.8c1.9-0.4 3.8-0.6 5.6-0.7 1.9-0.1 3.7-0.2 5.6-0.2s3.7 0.1 5.6 0.3 3.8 0.4 5.6 0.8z" fill="#e52421"/>
 </g>
</svg>
