<svg version="1.1" viewBox="0 0 300.6 165" xmlns="http://www.w3.org/2000/svg" xmlns:xlink="http://www.w3.org/1999/xlink">
 <defs>
  <linearGradient id="linearGradient8111">
   <stop stop-color="#fef200" offset="0"/>
   <stop stop-color="#fb0501" offset="1"/>
  </linearGradient>
  <linearGradient id="linearGradient1270" x1="30.49" x2="30.59" y1="10.92" y2="26.58" gradientTransform="matrix(.9738 0 0 1.007 -.1223 -.1678)" gradientUnits="userSpaceOnUse">
   <stop stop-color="#fe0802" offset="0"/>
   <stop stop-color="#fef200" offset="1"/>
  </linearGradient>
  <linearGradient id="linearGradient8113" x1="17.79" x2="17.91" y1="39.05" y2="31.56" gradientUnits="userSpaceOnUse" xlink:href="#linearGradient8111"/>
 </defs>
 <style type="text/css">.custom-controls {
height: 64px;
fill: #fff;
}

.control-icon {
opacity: 0;
animation: icon-fade-in-out 4s ease-in-out infinite;
animation-fill-mode: forwards;
}

.stop {
animation-delay: .3s;
}

.play {
animation-delay: .5s;
}

.gamepad {
animation-delay: .7s;
padding: 0 0 0 20px;
}

@keyframes icon-fade-in-out {
0% {
opacity: 0;
}

10% {
opacity: 1;
}

80% {
opacity: 1;
}

90% {
opacity: 0;
}

100% {
opacity: 0;
}
}</style>
 <g transform="matrix(.03782 0 0 .03786 -.1798 -.1598)" clip-rule="evenodd" fill-rule="evenodd" image-rendering="optimizeQuality" shape-rendering="geometricPrecision">
  <g transform="matrix(.7464 0 0 .761 1051 1011)">
   <rect x="-1398" y="-1318" width="10642" height="5717" rx="0" ry="0" fill="#35322e"/>
   <path class="fil0" transform="matrix(1.129 0 0 .9917 23.23 6.601)" d="m-703.9 1777c-416.1 860.7-524.5 1803-246.7 2663l8860-14.23c383.3-1398 337.7-3612-919.7-4057 43.11-1883-2886-1842-3990-859-2405 2141-4343-3223-3704 2267z" fill="#3b3a35"/>
   <g transform="matrix(16.07 0 0 15.08 -320.3 -2064)">
    <rect x="416.8" y="398.5" width="33.12" height=".25" fill="#ebebeb"/>
    <rect x="322.5" y="401.2" width="8.69" height=".25" fill="#ebebeb"/>
    <rect x="396.6" y="389.2" width="19.19" height=".25" fill="#ebebeb"/>
    <rect x="52.46" y="390.9" width="43.19" height=".25" fill="#ebebeb"/>
    <rect x="104.6" y="390.9" width="6.33" height=".25" fill="#ebebeb"/>
    <rect x="131.5" y="395.1" width="93.68" height=".25" fill="#ebebeb"/>
    <rect y="382.4" width="500" height=".25" fill="#ebebeb"/>
    <g transform="matrix(1.069 -.211 .1918 1.079 -11.95 -.8638)">
     <path d="m40.42 235.4 13.82-34.78-17.39-24.87-3.47 55.81a2.594 2.728 26.92 0 0 0.4669 1.712l1.989 2.843a2.604 2.738 26.92 0 0 4.591-0.7118z" fill="#817f74"/>
     <path d="m37.81 175.1 17.39 24.87 35.94-3.131a2.604 2.738 26.92 0 0 2.049-4.346l-2.011-2.875a2.584 2.718 26.92 0 0-1.412-0.9919z" fill="#817f74"/>
     <path d="m141.4 246.5c-56.52-24.43-25.02-2.049-13.21 9.99-16.99-11.49-32.84-16.71-10.97 8.295-32.56-33.68-14.24-2.786-10.38 7.848-22.88-26-13.62-2.447-11.85 8.963-6.185-23.36-14.3-34.44-16.44 12.44-15.78-41.76 5.544-43.42-27.27-85.41l11.78-8.8c30.52 43.46 44.73 17.46 78.33 46.68z" fill="#67655c" stroke-width="1.142"/>
     <path d="m-14.97 100.7c-7.641 5.821 7.496 41.04 14.92 51.65 4.051 5.791 28.23 36.32 50.62 61.95a84.6 88.98 26.92 0 0 8.582-5.821 83.11 87.41 26.92 0 0 9.454-8.256c-16.55-30.01-36.94-63.19-40.98-68.96-7.423-10.61-34.95-36.39-42.6-30.56z" fill="#737167"/>
     <path d="m2.292 125.4q5.985-4.56 11.31-9.344c-10.65-9.914-23.7-19.09-28.59-15.36-4.887 3.723-0.4617 19.43 5.317 33.09 3.976-2.546 7.982-5.351 11.96-8.385z" fill="#817f74"/>
     <path d="m20.23 151a12.18 12.81 26.92 1 1 3.032-17.77 12.19 12.82 26.92 0 1-3.032 17.77zm-12.84-18.36a9.995 10.51 26.92 1 0 14.06 1.963 9.995 10.51 26.92 0 0-14.06-1.963z" fill="#817f74"/>
     <ellipse transform="matrix(.7954 -.606 .5732 .8194 0 0)" cx="-70.03" cy="120.2" rx="8.164" ry="7.925" fill="#817f74"/>
     <rect transform="matrix(.7954 -.606 .5732 .8194 0 0)" x="-72.77" y="162.3" width="5.493" height="52.24" rx="2.457" fill="#817f74"/>
     <path d="m256.2 197.7-2.449 39.51 71.37 11.15 3.37-33.86-3.846-5.15z" fill="none"/>
    </g>
    <path d="m409.8 140.8a32.27 32.27 0 0 0 0.08-4.16l5.44-2.88a33.45 33.45 0 0 0-0.87-4.85l-5.94 0.1a28 28 0 0 0-3.53-7.2l3.49-5.08a32 32 0 0 0-3.24-3.55l-5.35 3a27.91 27.91 0 0 0-6.83-4.17l0.61-5.93a36.17 36.17 0 0 0-4.73-1.3l-3.34 5.2a29.42 29.42 0 0 0-4.13-0.29 30.58 30.58 0 0 0-4.18 0.29l-2.43-5.2a42 42 0 0 0-5 1.3l-0.42 5.93a35.27 35.27 0 0 0-7.56 4.17l-4.82-3a41.84 41.84 0 0 0-3.86 3.55l2.61 5.08a35.15 35.15 0 0 0-4.8 7.2l-5.92-0.1a40.42 40.42 0 0 0-1.72 4.85l4.94 2.88a30.83 30.83 0 0 0-0.73 8.31l-5.44 2.89a33.56 33.56 0 0 0 0.87 4.84l5.96-0.09a27.87 27.87 0 0 0 3.53 7.2l-3.49 5.09a32 32 0 0 0 3.24 3.55l5.35-3.05a27.57 27.57 0 0 0 6.83 4.16l-0.61 5.93a33.29 33.29 0 0 0 4.73 1.3l3.34-5.19a31 31 0 0 0 4.13 0.28 32.25 32.25 0 0 0 4.18-0.28l2.43 5.19a38.05 38.05 0 0 0 5-1.3l0.42-5.93a34.57 34.57 0 0 0 7.56-4.16l4.82 3.05a41.84 41.84 0 0 0 3.86-3.55l-2.6-5.09a34.84 34.84 0 0 0 4.79-7.2l5.92 0.1a39.19 39.19 0 0 0 1.72-4.84l-4.94-2.89a31.73 31.73 0 0 0 0.63-4.16zm-32 10.56a9.52 9.52 0 0 1-9.63-10.56 11.76 11.76 0 0 1 11.48-10.56 9.52 9.52 0 0 1 9.63 10.56 11.76 11.76 0 0 1-11.46 10.56z" fill="#737167"/>
    <path d="m481.4 110.8a23.8 23.8 0 0 0 0.09-2.66l7.61-4a30.26 30.26 0 0 0-0.6-3.34l-8.32 0.14a21.22 21.22 0 0 0-2.26-4.61l4.9-7.12a28.67 28.67 0 0 0-2.23-2.44l-7.48 4.24a22 22 0 0 0-4.37-2.67l0.86-8.3a31.75 31.75 0 0 0-3.25-0.89l-4.67 7.26a23.15 23.15 0 0 0-2.65-0.15 23.94 23.94 0 0 0-2.68 0.15l-3.4-7.26c-1.15 0.24-2.29 0.54-3.41 0.89l-0.59 8.3a27.81 27.81 0 0 0-4.84 2.67l-6.75-4.27a36 36 0 0 0-2.65 2.44l3.65 7.12a26.79 26.79 0 0 0-3.07 4.61l-8.29-0.14a34.83 34.83 0 0 0-1.19 3.34l6.91 4a26.2 26.2 0 0 0-0.38 2.66 26.66 26.66 0 0 0-0.09 2.67l-7.61 4a30.51 30.51 0 0 0 0.6 3.33l8.32-0.14a21.92 21.92 0 0 0 2.26 4.61l-4.89 7.13a28.41 28.41 0 0 0 2.22 2.44l7.5-4.27a21.78 21.78 0 0 0 4.38 2.66l-0.87 8.31a31.75 31.75 0 0 0 3.25 0.89l4.67-7.26a25.68 25.68 0 0 0 2.65 0.14 26.42 26.42 0 0 0 2.68-0.14l3.4 7.26c1.15-0.24 2.29-0.54 3.41-0.89l0.59-8.31a27.76 27.76 0 0 0 4.84-2.66l6.75 4.27c0.92-0.77 1.81-1.59 2.65-2.44l-3.64-7.13a26.93 26.93 0 0 0 3.06-4.61l8.3 0.14c0.44-1.09 0.84-2.2 1.18-3.33l-6.91-4a26.39 26.39 0 0 0 0.36-2.64zm-25.45 10.41a9.39 9.39 0 0 1-9.49-10.41 11.58 11.58 0 0 1 11.31-10.4 9.37 9.37 0 0 1 9.49 10.4 11.58 11.58 0 0 1-11.31 10.41z" fill="#737167"/>
    <path d="m450.9 176.8c0-0.44 0.05-0.87 0-1.3l3.7-2c-0.07-0.55-0.17-1.09-0.29-1.62l-4 0.07a11.37 11.37 0 0 0-1.1-2.24l2.37-3.46a13.48 13.48 0 0 0-1.08-1.19l-3.64 2.08a10.46 10.46 0 0 0-2.13-1.3l0.42-4a16 16 0 0 0-1.58-0.44l-2.27 3.53c-0.42 0-0.85-0.07-1.28-0.07s-0.88 0-1.3 0.07l-1.66-3.53c-0.56 0.12-1.11 0.27-1.65 0.44l-0.29 4a13.13 13.13 0 0 0-2.35 1.3l-3.28-2.08c-0.45 0.38-0.88 0.77-1.29 1.19l1.77 3.46a13 13 0 0 0-1.49 2.24l-4-0.07a15.56 15.56 0 0 0-0.57 1.62l3.35 2c-0.08 0.43-0.14 0.86-0.18 1.3a11.12 11.12 0 0 0 0 1.29l-3.7 2a12.48 12.48 0 0 0 0.29 1.62l4-0.07a10.36 10.36 0 0 0 1.1 2.24l-2.38 3.46a15.25 15.25 0 0 0 1.08 1.19l3.65-2.08a10.39 10.39 0 0 0 2.12 1.3l-0.42 4c0.52 0.17 1 0.32 1.58 0.44l2.27-3.53c0.42 0 0.85 0.07 1.29 0.07s0.87 0 1.3-0.07l1.65 3.53c0.56-0.12 1.11-0.27 1.66-0.44l0.28-4a13.22 13.22 0 0 0 2.36-1.3l3.28 2.08c0.44-0.38 0.87-0.77 1.29-1.19l-1.78-3.46a13 13 0 0 0 1.46-2.28l4 0.07c0.22-0.53 0.41-1.07 0.58-1.62l-3.36-2c0.08-0.39 0.18-0.82 0.22-1.25zm-12.37 5.05a4.55 4.55 0 0 1-4.61-5.05 5.62 5.62 0 0 1 5.49-5.06 4.56 4.56 0 0 1 4.62 5.06 5.63 5.63 0 0 1-5.5 5.05z" fill="#737167"/>
    <ellipse cx="250" cy="415.7" rx="193.9" ry="11.32" fill="#474740"/>
    <path d="m252.9 301.1-19.1 98.24h49l19.1-98.24zm20.32 62.84-2.75 14.14a9 9 0 0 1-8.44 7.07 5.66 5.66 0 0 1-5.69-7.07l2.74-14.14a9 9 0 0 1 8.45-7.07 5.66 5.66 0 0 1 5.69 7.07z" fill="#263238"/>
    <path d="m252.9 301.1-19.1 98.24h49l19.1-98.24zm20.32 62.84-2.75 14.14a9 9 0 0 1-8.44 7.07 5.66 5.66 0 0 1-5.69-7.07l2.74-14.14a9 9 0 0 1 8.45-7.07 5.66 5.66 0 0 1 5.69 7.07z" fill="#fff" opacity=".3"/>
    <polygon points="233.9 399.3 229.6 399.3 248.7 301.1 253 301.1" fill="#263238"/>
    <polygon points="233.9 399.3 229.6 399.3 248.7 301.1 253 301.1" fill="#fff" opacity=".6"/>
    <polygon points="238.5 353.5 291.7 353.5 301.9 301.1 253 301.1 252.9 301.1 248.7 301.1" opacity=".2"/>
    <path d="m267.5 356.9a7.67 7.67 0 0 0-2 0.27 5.64 5.64 0 0 1 3.82 6.8l-2.74 14.14a9.12 9.12 0 0 1-6.48 6.8 6.65 6.65 0 0 0 1.87 0.27 9 9 0 0 0 8.44-7.07l2.75-14.14a5.66 5.66 0 0 0-5.66-7.07z" fill="#263238"/>
    <path d="m267.5 356.9a7.67 7.67 0 0 0-2 0.27 5.64 5.64 0 0 1 3.82 6.8l-2.74 14.14a9.12 9.12 0 0 1-6.48 6.8 6.65 6.65 0 0 0 1.87 0.27 9 9 0 0 0 8.44-7.07l2.75-14.14a5.66 5.66 0 0 0-5.66-7.07z" fill="#fff" opacity=".6"/>
    <rect x="189.8" y="398.9" width="54.34" height="15.76" fill="#c0c3c5" stroke-width=".879"/>
    <rect x="244.2" y="398.9" width="108.8" height="15.76" fill="#a8adaf" stroke-width="1.083"/>
    <path d="m144.8 347.7h247.1a8.13 8.13 0 0 0 8.28-8 7.67 7.67 0 0 0-0.05-1.07l-15.61-178.5a10.05 10.05 0 0 0-9.82-9.05h-247.1a8.13 8.13 0 0 0-8.28 8 7.67 7.67 0 0 0 0 1.07l15.69 178.5a10 10 0 0 0 9.79 9.04z" fill="#263238"/>
    <path d="m144.8 347.7h247.1a8.13 8.13 0 0 0 8.28-8 7.67 7.67 0 0 0-0.05-1.07l-15.61-178.5a10.05 10.05 0 0 0-9.82-9.05h-247.1a8.13 8.13 0 0 0-8.28 8 7.67 7.67 0 0 0 0 1.07l15.69 178.5a10 10 0 0 0 9.79 9.04z" fill="#fff" opacity=".3"/>
    <path d="m398.4 337.3 1.68 3.96a8.14 1.671 0 0 1-7.16 1.848 7.6 1.56 0 0 1-1.07 0.0102h-247.1a10 2.053 0 0 1-9.81-1.858l-1.7-3.96z" fill="#676f73" stroke-width=".4531" style="isolation:isolate"/>
    <path d="m142 313.9h246.8a4.4 4.4 0 0 0 4.49-4.32 3.71 3.71 0 0 0 0-0.58l-12.93-147.6a5.44 5.44 0 0 0-5.33-4.89h-246.7a4.41 4.41 0 0 0-4.5 4.32 5.44 5.44 0 0 0 0 0.57l12.93 147.6a5.45 5.45 0 0 0 5.33 4.87z" fill="#fff" style="isolation:isolate"/>
    <path d="m304.9 165.4 8.349 96.05 65.21-0.0343-10.33-96.13z" fill="#a0a0a0"/>
    <path d="m310.5 162.7 8.349 96.05 65.21-0.0343-10.33-96.13z" fill="#c4c4c4"/>
    <g transform="matrix(.299 -.019 .01956 .3117 279.2 189.7)" fill="#ca1212" stroke-width="1.253" aria-label="90">
     <path d="m263.7 0.8327q-4e-3 4.806-1.101 8.725-1.072 3.919-3.261 6.681-2.213 2.811-5.541 4.342-3.329 1.531-7.821 1.535-1.263 0.0011-2.38-0.1457-1.117-0.1222-1.991-0.4171l4e-3 -4.707 0.2429-2.2e-4q0.7039 0.369 1.991 0.7129 1.287 0.3192 2.865 0.3178 5.367-0.0048 8.406-3.261 3.063-3.28 3.554-9.023-2.26 1.382-4.252 1.975-1.992 0.5932-4.348 0.5954-2.234 0.00201-4.055-0.4399-1.797-0.442-3.617-1.722-2.136-1.501-3.226-3.817-1.066-2.316-1.063-5.544 6e-3 -5.619 3.652-9.146 3.646-3.527 8.892-3.532 2.623-0.0024 4.856 0.8335 2.233 0.8112 3.908 2.461 2.062 2.044 3.176 5.271 1.114 3.203 1.109 8.304zm-4.905-1.055q3e-3 -3.82-0.7713-6.136-0.7749-2.316-2.134-3.596-1.14-1.108-2.451-1.575-1.311-0.4917-2.841-0.4903-3.497 0.0031-5.539 2.223-2.018 2.22-2.022 6.237-2e-3 2.341 0.652 3.819 0.6543 1.478 2.208 2.586 1.092 0.763 2.403 1.033 1.311 0.2453 2.914 0.2438 1.894-0.00171 3.838-0.521 1.943-0.5193 3.644-1.507 0.0248-0.5175 0.0496-1.01 0.0492-0.5176 0.0499-1.306z"/>
     <path d="m290.3 15.3c-3.385 1.934-4.65 6.829-7.536 6.832-4.339 0.0039-7.511-1.554-9.515-4.674-1.988-3.12-2.98-7.916-2.973-14.39 7e-3 -6.522 1.023-11.34 3.049-14.44 2.027-3.123 5.185-4.687 9.476-4.691 1.951-0.0018 3.59 3.238 5.145 4.627 8.708-1.095 9.287 24.72 2.354 26.74zm-1.408-1.109c0.5679-1.331 0.9499-2.892 1.146-4.683 0.2122-1.807 0.3195-3.976 0.3219-6.506 2e-3 -2.497-0.1012-4.666-0.3095-6.506-0.1925-1.84-0.5796-3.4-1.161-4.681-0.5654-1.265-1.342-2.217-2.329-2.857-0.9708-0.6399-2.225-0.9591-3.763-0.9577-1.522 0.0013-2.785 0.3228-3.789 0.9645-0.9882 0.6416-1.774 1.612-2.358 2.91-0.5516 1.216-0.9336 2.802-1.146 4.757-0.1962 1.955-0.2954 4.099-0.2976 6.432-2e-3 2.563 0.085 4.707 0.261 6.432 0.1764 1.725 0.5554 3.269 1.137 4.632 0.533 1.281 1.285 2.258 2.256 2.931 0.987 0.6727 2.29 1.008 3.909 1.007 1.522-0.0013 2.785-0.3228 3.789-0.9645 1.004-0.6416 1.782-1.612 2.334-2.91z"/>
    </g>
    <path d="m370.6 179a1.987 1.955 87.79 0 1-1.826 2.107 1.987 1.955 87.79 0 1-2.075-1.859 1.987 1.955 87.79 0 1 1.826-2.107 1.987 1.955 87.79 0 1 2.075 1.859z" fill="none" stroke="#ca1212" stroke-linecap="round" stroke-linejoin="round" stroke-width=".6306"/>
    <path d="m122.1 151.1h5.46a8.13 8.13 0 0 0-8.28 8 7.6 7.6 0 0 0 0 1.07l15.69 178.5a10 10 0 0 0 9.81 9.05h-5.46a10.05 10.05 0 0 1-9.82-9.05l-15.64-178.5a8.15 8.15 0 0 1 7.19-9 9.23 9.23 0 0 1 1.05-0.03z" fill="#263238"/>
    <path d="m122.1 151.1h5.46a8.13 8.13 0 0 0-8.28 8 7.6 7.6 0 0 0 0 1.07l15.69 178.5a10 10 0 0 0 9.81 9.05h-5.46a10.05 10.05 0 0 1-9.82-9.05l-15.64-178.5a8.15 8.15 0 0 1 7.19-9 9.23 9.23 0 0 1 1.05-0.03z" fill="#fff" opacity=".6" style="isolation:isolate"/>
    <path d="m265.5 251.8s-0.5267 4.25 2.117 7.151c1.688 1.854 5.192-0.2077 8.072-2.506-0.6143-0.7551-1.077-1.658-1.333-2.647-6.255 0.7574-8.857-1.998-8.857-1.998zm4.153-10.87s-3.213 2.459-3.179 6.408c0.0208 2.527 4.009 3.786 7.679 4.408 0.0512-1.009 0.3222-1.952 0.771-2.766-5.176-4.22-5.272-8.049-5.272-8.049zm10.3-4.177s-4.019-0.7683-6.616 1.911c-1.667 1.718 0.469 5.593 2.784 8.783 0.6723-0.6145 1.486-1.06 2.393-1.288-1.037-6.753 1.441-9.406 1.441-9.406zm-0.0833 22c-0.9615-0.0953-1.872-0.4342-2.667-0.9565-3.7 5.263-7.273 5.179-7.273 5.179s2.47 3.547 6.176 3.703c2.367 0.1051 3.353-4.057 3.764-7.924zm8.015-24.7-51.15 0.5298c-3.566 0.0369-9.244 2.939-10.38 6.56 3.22-1.767 8.143-2.725 11.32-2.758l0.3945-4e-3c2.264-1.409 4.934-2.356 7.84-2.386 2.906-0.0301 5.678 0.8605 8.092 2.221l17.39-0.1801c2.264-1.409 4.934-2.356 7.84-2.386 2.906-0.0301 5.678 0.8605 8.092 2.221l0.0415-5e-5c3.175-0.0329 8.197 0.8222 11.61 2.521-1.529-3.593-7.518-6.374-11.08-6.337zm-0.9296 31.97c1.656-1.71-0.4434-5.544-2.743-8.727-0.679 0.6308-1.504 1.089-2.421 1.321 1.003 6.689-1.453 9.317-1.453 9.317s4.016 0.7683 6.616-1.911zm-2.779-28.03c-2.381-0.1009-3.369 4.126-3.775 8.021 0.9462 0.0915 1.845 0.4224 2.632 0.9285 3.716-5.328 7.314-5.244 7.314-5.244s-2.463-3.551-6.173-3.707zm10.61 14.89s0.5266-4.25-2.117-7.151c-1.696-1.862-5.229 0.2283-8.115 2.543 0.6214 0.7469 1.088 1.637 1.354 2.615 6.273-0.7697 8.88 1.994 8.88 1.994zm-14.33 5.118c2.909-0.0302 5.131-2.572 4.962-5.677-0.1697-3.105-2.667-5.598-5.576-5.568-2.909 0.0302-5.131 2.572-4.962 5.677 0.17 3.109 2.667 5.598 5.576 5.568zm-48.27-5.871s-0.5266 4.25 2.117 7.151c1.688 1.854 5.192-0.2077 8.072-2.506-0.6143-0.7551-1.077-1.658-1.333-2.647-6.255 0.7574-8.857-1.998-8.857-1.998zm18.69-13.79c-2.381-0.1009-3.369 4.126-3.775 8.021 0.9462 0.0915 1.845 0.4224 2.632 0.9285 3.717-5.328 7.314-5.244 7.314-5.244s-2.463-3.551-6.173-3.707zm-3.733 20.01c2.909-0.0302 5.131-2.572 4.962-5.677-0.1697-3.105-2.667-5.598-5.576-5.568-2.909 0.0302-5.131 2.572-4.962 5.677 0.17 3.109 2.667 5.598 5.576 5.568zm14.34-5.118s0.5267-4.25-2.117-7.151c-1.696-1.862-5.229 0.2283-8.115 2.543 0.6215 0.7469 1.088 1.637 1.354 2.615 6.273-0.7698 8.88 1.994 8.88 1.994zm32.34 4.107c-0.0206-2.523-4.006-3.782-7.676-4.408-0.0348 1.017-0.2985 1.968-0.7391 2.794 5.138 4.208 5.236 8.017 5.236 8.017s3.213-2.455 3.18-6.404zm-57.49-16.08s-3.213 2.459-3.179 6.408c0.0208 2.527 4.009 3.786 7.679 4.408 0.0476-1.009 0.3222-1.952 0.771-2.766-5.173-4.22-5.272-8.049-5.272-8.049zm17.3 25.09c1.656-1.71-0.4434-5.544-2.743-8.727-0.6791 0.6308-1.504 1.089-2.421 1.321 1.003 6.689-1.453 9.317-1.453 9.317s4.019 0.7683 6.616-1.911zm3.682-2.27s3.213-2.463 3.179-6.408c-0.0206-2.523-4.005-3.782-7.676-4.408-0.0348 1.017-0.2985 1.968-0.7392 2.794 5.142 4.212 5.236 8.021 5.236 8.021zm-10.77-5c-0.9616-0.0953-1.872-0.4342-2.668-0.9564-3.7 5.263-7.273 5.179-7.273 5.179s2.467 3.547 6.176 3.703c2.367 0.1051 3.353-4.057 3.764-7.924zm17.82-6.454c-0.2917-5.335 1.761-10.41 5.236-13.21l-13.65 0.1414c3.778 2.731 6.382 7.754 6.673 13.09 0.2917 5.335-1.761 10.41-5.236 13.21l13.65-0.1414c-3.778-2.731-6.382-7.754-6.673-13.09zm-24.34-13.64c-1.667 1.718 0.4727 5.593 2.784 8.783 0.6723-0.6145 1.486-1.06 2.393-1.288-1.041-6.757 1.437-9.41 1.437-9.41s-4.015-0.7643-6.612 1.915zm-12.53 23.95c2.348 1.45 6.618 2.706 10.22 2.984-3.745-3.052-6.419-7.745-6.709-13.04-0.2897-5.299 1.85-10.05 5.265-13.17-3.572 0.3165-7.696 1.534-9.884 3.031zm61.4 3.644c-2.227 2.101-4.934 2.356-7.84 2.386-2.906 0.0301-5.641-0.1684-8.092-2.221l-17.39 0.1801c-2.226 2.101-4.934 2.356-7.84 2.386-2.906 0.0301-5.641-0.1684-8.092-2.221l-0.3944 4e-3c-3.175 0.0329-8.188-0.6483-11.6-2.351 1.529 3.593 7.528 6.548 11.09 6.511l51.15-0.5298c3.566-0.0369 9.234-3.109 10.37-6.734-3.22 1.767-8.152 2.555-11.33 2.588zm7.032-14.37c0.2881 5.271-1.412 9.997-4.793 13.12 3.492-0.4048 7.459-1.71 9.975-3.153l-1.104-20.2c-2.672-1.394-6.778-2.494-10.31-2.789 3.731 3.052 5.945 7.742 6.233 13.02zm-57.74 22.25c0.0703 1.287 1.156 2.677 2.362 2.665l31.46-0.3259c1.206-0.0125 2.559-1.428 2.489-2.715l-0.1179-2.158-36.32 0.3762zm-20.09-39.35-2.909 0.0302c-0.5576 5e-3 -0.9808 0.4557-0.9483 1.051 0.0325 0.5951 0.508 1.031 1.062 1.026l2.909-0.0302c1.536-0.0159 2.676 0.4219 3.386 1.188 0.5694 0.6124 0.9406 1.564 1.111 2.346l1.934 35.38c0.0323 0.591 0.6389 1.067 1.193 1.061 0.5538-5e-3 1.108-0.4935 1.075-1.084l-1.929-35.29c-0.0212-0.3886-0.3235-2.309-1.697-3.818-1.131-1.248-3.048-1.884-5.187-1.862z" fill="#fe7a01" stroke-width=".3919"/>
    <g transform="matrix(.3794 -.004227 .02231 .4388 -172.2 274.2)" fill="#3b3a35">
     <g fill="#3b3a35" aria-label="Testing 56%">
      <path d="m1045-134.1h-10.39v25.64h-3.867v-25.64h-10.39v-3.438h24.65z"/>
      <path d="m1063-119h-16.07q0 2.012 0.6054 3.516 0.6055 1.484 1.66 2.441 1.016 0.9375 2.402 1.406 1.406 0.4688 3.086 0.4688 2.226 0 4.473-0.8789 2.266-0.8984 3.223-1.758h0.1953v4.004q-1.856 0.7812-3.789 1.309t-4.062 0.5273q-5.43 0-8.476-2.93-3.047-2.949-3.047-8.359 0-5.352 2.91-8.496 2.93-3.145 7.695-3.145 4.414 0 6.797 2.578 2.402 2.578 2.402 7.324zm-3.574-2.812q-0.02-2.891-1.465-4.473-1.426-1.582-4.356-1.582-2.949 0-4.707 1.738-1.738 1.738-1.973 4.316z"/>
      <path d="m1084-114.7q0 2.988-2.48 4.902-2.461 1.914-6.738 1.914-2.422 0-4.453-0.5664-2.012-0.5859-3.379-1.27v-4.121h0.1953q1.738 1.309 3.867 2.09 2.129 0.7617 4.082 0.7617 2.422 0 3.789-0.7812t1.367-2.461q0-1.289-0.7422-1.953-0.7422-0.6641-2.852-1.133-0.7813-0.1758-2.051-0.4102-1.25-0.2344-2.285-0.5078-2.871-0.7617-4.082-2.227-1.191-1.484-1.191-3.633 0-1.348 0.5469-2.539 0.5664-1.191 1.699-2.129 1.094-0.918 2.773-1.445 1.699-0.5469 3.789-0.5469 1.953 0 3.945 0.4883 2.012 0.4688 3.34 1.152v3.926h-0.1953q-1.406-1.035-3.418-1.738-2.012-0.7227-3.945-0.7227-2.012 0-3.398 0.7812-1.387 0.7617-1.387 2.285 0 1.348 0.8398 2.031 0.8203 0.6836 2.656 1.113 1.016 0.2344 2.266 0.4688 1.27 0.2344 2.109 0.4297 2.559 0.5859 3.945 2.012 1.387 1.445 1.387 3.828z"/>
      <path d="m1101-108.6q-1.035 0.2734-2.266 0.4492-1.211 0.1758-2.168 0.1758-3.34 0-5.078-1.797-1.738-1.797-1.738-5.762v-11.6h-2.48v-3.086h2.48v-6.27h3.672v6.27h7.578v3.086h-7.578v9.941q0 1.719 0.078 2.695 0.078 0.957 0.5469 1.797 0.4297 0.7812 1.172 1.152 0.7617 0.3516 2.305 0.3516 0.8984 0 1.875-0.2539 0.9765-0.2734 1.406-0.4492h0.1953z"/>
      <path d="m1109-133.9h-4.141v-3.809h4.141zm-0.2344 25.47h-3.672v-21.82h3.672z"/>
      <path d="m1134-108.4h-3.672v-12.42q0-1.504-0.1758-2.812-0.1757-1.328-0.6445-2.07-0.4883-0.8203-1.406-1.211-0.918-0.4102-2.383-0.4102-1.504 0-3.144 0.7422-1.641 0.7422-3.144 1.895v16.29h-3.672v-21.82h3.672v2.422q1.719-1.426 3.555-2.227 1.836-0.8008 3.77-0.8008 3.535 0 5.391 2.129 1.856 2.129 1.856 6.133z"/>
      <path d="m1159-110.9q0 5.547-2.52 8.145-2.52 2.598-7.754 2.598-1.738 0-3.398-0.2539-1.641-0.2344-3.242-0.6836v-3.75h0.1953q0.8984 0.3516 2.852 0.8594 1.953 0.5274 3.906 0.5274 1.875 0 3.105-0.4492 1.23-0.4492 1.914-1.25 0.6836-0.7617 0.9766-1.836 0.2929-1.074 0.2929-2.402v-1.992q-1.66 1.328-3.184 1.992-1.504 0.6445-3.848 0.6445-3.906 0-6.211-2.812-2.285-2.832-2.285-7.969 0-2.812 0.7812-4.844 0.8008-2.051 2.168-3.535 1.27-1.387 3.086-2.148 1.816-0.7812 3.613-0.7812 1.895 0 3.164 0.3906 1.289 0.3711 2.715 1.152l0.2344-0.9375h3.438zm-3.672-3.516v-11.89q-1.465-0.6641-2.734-0.9375-1.25-0.293-2.5-0.293-3.027 0-4.766 2.031-1.738 2.031-1.738 5.898 0 3.672 1.289 5.566 1.289 1.895 4.277 1.895 1.602 0 3.203-0.6055 1.621-0.625 2.969-1.66z"/>
      <path d="m1199-117.7q0 2.031-0.7422 3.887t-2.031 3.125q-1.406 1.367-3.359 2.109-1.934 0.7227-4.492 0.7227-2.383 0-4.59-0.5078-2.207-0.4883-3.73-1.191v-4.121h0.2735q1.602 1.016 3.75 1.738 2.148 0.7031 4.219 0.7031 1.387 0 2.676-0.3906 1.309-0.3906 2.324-1.367 0.8594-0.8398 1.289-2.012 0.4492-1.172 0.4492-2.715 0-1.504-0.5273-2.539-0.5078-1.035-1.426-1.66-1.016-0.7422-2.48-1.035-1.445-0.3125-3.242-0.3125-1.719 0-3.32 0.2344-1.582 0.2344-2.734 0.4688v-14.98h17.5v3.418h-13.73v7.734q0.8398-0.0781 1.719-0.1172 0.8789-0.0391 1.524-0.0391 2.363 0 4.141 0.4102 1.777 0.3906 3.262 1.406 1.562 1.074 2.422 2.773t0.8594 4.258z"/>
      <path d="m1225-117.9q0 4.434-2.93 7.246-2.91 2.793-7.148 2.793-2.148 0-3.906-0.6641-1.758-0.6641-3.105-1.973-1.68-1.621-2.598-4.297-0.8984-2.676-0.8984-6.445 0-3.867 0.8203-6.855 0.8398-2.988 2.656-5.312 1.719-2.207 4.434-3.438 2.715-1.25 6.328-1.25 1.152 0 1.934 0.0977 0.7813 0.0977 1.582 0.3516v3.73h-0.1953q-0.5469-0.293-1.66-0.5469-1.094-0.2734-2.246-0.2734-4.199 0-6.699 2.637-2.5 2.617-2.91 7.09 1.641-0.9961 3.223-1.504 1.602-0.5274 3.691-0.5274 1.856 0 3.262 0.3516 1.426 0.332 2.91 1.367 1.719 1.191 2.578 3.008 0.8789 1.816 0.8789 4.414zm-3.965 0.1562q0-1.816-0.5469-3.008-0.5274-1.191-1.758-2.07-0.8985-0.625-1.992-0.8203-1.094-0.1953-2.285-0.1953-1.66 0-3.086 0.3906-1.426 0.3906-2.93 1.211-0.039 0.4297-0.059 0.8398-0.02 0.3906-0.02 0.9961 0 3.086 0.625 4.883 0.6445 1.777 1.758 2.812 0.8984 0.8594 1.934 1.27 1.055 0.3906 2.285 0.3906 2.832 0 4.453-1.719 1.621-1.738 1.621-4.98z"/>
      <path d="m1245-129.4q0 4.375-1.856 6.504-1.836 2.129-5.312 2.129-3.555 0-5.371-2.129-1.816-2.129-1.816-6.484 0-4.375 1.856-6.504t5.332-2.129q3.535 0 5.352 2.148t1.816 6.465zm13.5-8.066-15.23 29.08h-3.223l15.23-29.08zm9.375 21.02q0 4.375-1.856 6.504-1.855 2.129-5.332 2.129-3.535 0-5.352-2.148t-1.816-6.465q0-4.375 1.836-6.504 1.855-2.129 5.332-2.129 3.555 0 5.371 2.129t1.816 6.484zm-26.35-12.95q0-3.359-0.8789-4.688-0.8593-1.328-2.812-1.328-1.992 0-2.852 1.328-0.8594 1.328-0.8594 4.707 0 3.379 0.8594 4.707 0.8593 1.309 2.852 1.309 1.953 0 2.812-1.309 0.8789-1.328 0.8789-4.727zm22.87 12.95q0-3.359-0.8789-4.688-0.8594-1.328-2.812-1.328-1.992 0-2.852 1.328-0.8594 1.328-0.8594 4.707 0 3.379 0.8594 4.707 0.8593 1.309 2.852 1.309 1.953 0 2.812-1.309 0.8789-1.328 0.8789-4.727z"/>
     </g>
    </g>
    <rect x="325" y="242.7" width="52.5" height="7.479" rx="4.201" ry="5.536" fill="#acacac"/>
    <rect x="323.5" y="224.8" width="52.5" height="7.479" rx="4.201" ry="5.536" fill="#acacac"/>
    <rect x="321.8" y="207" width="52.5" height="7.479" rx="4.201" ry="5.536" fill="#acacac"/>
    <g transform="matrix(.9026 -.0489 .06091 1.105 0 0)" fill="#acacac" stroke-width=".2281" aria-label="Temp">
     <path d="m348.6 183.6h-2.072v5.351h-1.711v-5.351h-2.072v-1.283h5.854z"/>
     <path d="m354.7 186.7-3.902 0.0243c0.0238 0.392 0.1723 0.692 0.4455 0.8999 0.2762 0.2079 0.6816 0.3119 1.216 0.3119 0.3386 0 0.6668-0.0609 0.9846-0.1827 0.3178-0.1218 0.5688-0.2525 0.7529-0.392l0.3919-0.0556 0.2122 2.088c-0.3624 0.1455-1.13-0.4935-1.451-0.4281-0.3208 0.0653-0.6757 0.098-1.065 0.098-1.004 0-1.773-0.2257-2.308-0.6772-0.5346-0.4515-0.8019-1.094-0.8019-1.929 0-0.8257 0.2525-1.479 0.7574-1.96 0.5079-0.4841 1.203-0.7262 2.085-0.7262 0.8138 0 0.9842-0.3455 1.394 0.0673 2.04-1.102 1.484 1.957 1.403 2.329zm-1.826-0.9157c-9e-3 -0.3356-0.0921-0.5881-0.2495-0.7574-0.1574-0.1693-0.4024-0.254-0.7351-0.254-0.3089 0-0.5628 0.0802-0.7618 0.2406-0.199 0.1604-0.3104 0.4173-0.3341 0.7708z"/>
     <path d="m361.3 184.9-7e-3 4.417-1.957 2e-3 5e-3 -3.113q7.8e-4 -0.455-0.0203-0.7713-0.021-0.3218-0.118-0.5214-0.0969-0.1996-0.2968-0.2882-0.1945-0.0941-0.5513-0.0937-0.2866 6e-4 -0.5571 0.1227-0.2705 0.1169-0.487 0.2503l-7e-3 4.417-1.946 2e-3 0.0108-6.231 1.946-2e-3 -1e-3 0.688q0.5035-0.4056 0.9634-0.6337 0.4599-0.228 1.017-0.2287 0.6001-1e-3 1.059 0.2762 0.4591 0.2714 0.7176 0.8037 0.5848-0.5056 1.137-0.7948 0.552-0.2892 1.082-0.2898 0.984-1e-3 1.491 0.6031 0.5126 0.6042 0.5106 1.742l-7e-3 4.056-1.957 2e-3 5e-3 -3.113q7.4e-4 -0.4605-0.0202-0.7768-0.0157-0.3162-0.1127-0.5159-0.0916-0.1997-0.2914-0.2882-0.1999-0.0941-0.5621-0.0937-0.2433-1.1e-4 -0.4759 0.0893-0.2326 0.0834-0.5682 0.2836z" stroke-width=".2804"/>
     <path d="m373.4 186.1q-2e-3 0.7713-0.2349 1.404-0.2282 0.6328-0.6019 1.044-0.39 0.4333-0.8824 0.6558-0.4924 0.2225-1.055 0.2232-0.519 5.3e-4 -0.881-0.1156-0.362-0.1106-0.7401-0.3154l-4e-3 2.597-1.946 2e-3 0.0148-8.517 1.946-2e-3 -1e-3 0.6492q0.4494-0.3667 0.9147-0.5948 0.4708-0.228 1.082-0.2288 1.135-6.7e-4 1.761 0.8524 0.6311 0.8538 0.6285 2.346zm-2.006 0.0412q2e-3 -0.91-0.3005-1.32-0.302-0.4102-0.9562-0.4095-0.2757 6.4e-4 -0.5678 0.0894-0.2921 0.0835-0.5573 0.2448l-5e-3 3.135q0.1945 0.0775 0.4161 0.0994 0.2216 0.0219 0.4379 0.0217 0.7731-1e-3 1.152-0.4619 0.3792-0.4665 0.3809-1.399z" stroke-width=".2804"/>
    </g>
    <g transform="matrix(.9127 0 0 .9143 42.32 27.38)">
     <rect transform="rotate(-10 339.8 201.1)" x="337.3" y="198.6" width="5.04" height="5.04"/>
     <rect transform="matrix(.9843 -.1767 .1707 .9853 0 0)" x="297.6" y="252.3" width="4.464" height="4.54" fill="#fff" opacity=".5" stroke-width=".8932"/>
     <rect transform="matrix(.9843 -.1767 .1707 .9853 0 0)" x="296.5" y="255.5" width="6.51" height="26.7" rx="2.586" stroke-width=".8932"/>
     <path d="m330.3 154.2c-20.83 5.018-21.04 30.96-6.059 39.59 13.59 7.826 33.39-3.301 30.48-22.66-2.176-12.54-12.11-19.13-24.42-16.92zm6.975 39.04c-15.95 2.866-26.92-15.23-17.62-28.74 9.292-13.51 29.99-8.837 32.8 7.408 0.8808 10.63-5.31 19.31-15.17 21.33z" fill="#fe7a01" stroke-width=".8932"/>
     <path d="m416 204.3c1 1.53 1.82 3 2.68 4.51s1.66 3 2.44 4.58a103.9 103.9 0 0 1 4.28 9.55c0.66 1.64 1.22 3.33 1.76 5l0.1 0.33 0.14 0.53a10.11 10.11 0 0 1 0.19 1.1 8.91 8.91 0 0 1-0.05 2.25 9.65 9.65 0 0 1-1.45 3.77 14.37 14.37 0 0 1-4.68 4.36 19.1 19.1 0 0 1-2.54 1.31 20.76 20.76 0 0 1-2.69 1l-1.89-4a34.75 34.75 0 0 0 3.31-3.09 9.46 9.46 0 0 0 2.06-3.09 1.31 1.31 0 0 0 0-1.27l-0.07-0.13a0.25 0.25 0 0 1 0-0.07l-0.11-0.27q-0.89-2.19-1.91-4.38c-1.36-2.93-2.85-5.83-4.41-8.71l-2.37-4.31-2.48-4.24z" fill="#ffc3bd"/>
     <path d="m416.3 238-4.4-1.15-0.25 7.12s3.44 0.51 5.55-1.6z" fill="#ffc3bd"/>
     <polygon points="406.7 241.9 411.6 244 411.9 236.8 405.7 235.6" fill="#ffc3bd"/>
     <path d="m387.4 175.6c-0.1 0.48-0.44 0.83-0.76 0.76s-0.49-0.51-0.39-1 0.43-0.83 0.75-0.76 0.5 0.51 0.4 1z" fill="#263238"/>
     <path d="m387 176.4a17.75 17.75 0 0 1-3.18 3.7 2.87 2.87 0 0 0 2.24 0.91z" fill="#ed847e"/>
     <path d="m389.8 173.2a0.31 0.31 0 0 0 0.2-0.07 0.3 0.3 0 0 0 0-0.42 2.89 2.89 0 0 0-2.48-1 0.3 0.3 0 0 0-0.24 0.34 0.29 0.29 0 0 0 0.34 0.23 2.38 2.38 0 0 1 2 0.79 0.27 0.27 0 0 0 0.18 0.13z" fill="#263238"/>
     <path d="m401.3 182.4c-0.88 4.5-1.77 12.76 1.39 15.77 0 0-1.24 4.57-9.61 4.57-9.21 0-4.4-4.57-4.4-4.57 5-1.2 4.9-4.93 4-8.43z" fill="#ffc3bd"/>
     <path d="m404.5 199c0.68-1.25 1.42-2.68-0.12-3.13s-12.52-1.41-15.7-0.48c1 1.74-0.68 3.88-0.68 3.88z" fill="#fe7a01"/>
     <path d="m404.5 199c0.68-1.25 1.42-2.68-0.12-3.13s-12.52-1.41-15.7-0.48c1 1.74-0.68 3.88-0.68 3.88z" opacity=".3"/>
     <polygon points="388.8 409.8 388.2 395.6 394.3 395.6 395 409.8" fill="#ffc3bd"/>
     <polygon points="434.1 408.3 428.1 395 434.1 393.7 440.2 407" fill="#ffc3bd"/>
     <path d="m433.6 407.7 6.77-1.47a0.54 0.54 0 0 1 0.6 0.3l2.35 5.1a0.91 0.91 0 0 1-0.65 1.26c-2.37 0.47-3.55 0.58-6.53 1.22-1.83 0.4-6 1.41-8.48 1.95s-3.4-1.88-2.42-2.33c4.42-2 6.27-3.79 7.47-5.45a1.46 1.46 0 0 1 0.89-0.58z" fill="#263238"/>
     <path d="m388.8 409.1h6.72a0.54 0.54 0 0 1 0.53 0.42l1.22 5.44a0.9 0.9 0 0 1-0.89 1.1c-2.43 0-5.93-0.18-9-0.18-3.57 0-6.65 0.19-10.83 0.19-2.53 0-3.24-2.56-2.18-2.79 4.82-1.05 8.76-1.17 12.92-3.73a2.86 2.86 0 0 1 1.51-0.45z" fill="#263238"/>
     <path d="m413.7 199.6c5.77 1.32 10.53 16.06 10.53 16.06l-11.59 8.84a25.24 25.24 0 0 1-6.15-11.38c-1.99-7.73 1.3-14.87 7.21-13.52z" fill="#fe7a01"/>
     <path d="m408.8 210.4c3.14 3.1 4.16 8.75 4.4 13.67l-0.51 0.39a25.31 25.31 0 0 1-6.16-11.38q-0.17-0.71-0.3-1.38z" opacity=".2"/>
     <path d="m379.2 199.9s-6.55 7.4-0.36 53.25h32.95c0.23-5.06-2.95-29.74 1.93-53.57a86.4 86.4 0 0 0-11-1.39 119 119 0 0 0-14 0 61.19 61.19 0 0 0-9.52 1.71z" fill="#fe7a01"/>
     <path d="m376.3 213.9 0.13-0.11 7.49 1.79c0.43 5.07-4.78 11.12-7.47 13.89a146 146 0 0 1-0.15-15.57z" opacity=".2"/>
     <polygon points="388.5 402.9 394.6 402.9 394.3 395.6 388.2 395.6" opacity=".2"/>
     <polygon points="428.1 395 431.2 401.9 437.2 400.6 434.1 393.7" opacity=".2"/>
     <path d="m403.9 177.8c-1.58 5.9-2.21 9.44-5.85 11.89-5.49 3.7-12.31-0.54-12.53-6.8-0.19-5.64 2.43-14.35 8.77-15.54a8.35 8.35 0 0 1 9.61 10.45z" fill="#ffc3bd"/>
     <path d="m390.5 253.2s7 47.08 10.83 64.71c4.2 19.32 26.74 83.22 26.74 83.22l11-2.39s-15.76-52.07-19.29-79.08c-1.16-8.87-2.8-17.31-4.3-29.79-0.55-4.62-0.09-14.1-0.57-18.18-0.51-4.29-2-8.12-2.32-11.17l-0.86-7.32z" fill="#fe7a01"/>
     <path d="m425.5 397.4c-0.05 0 2 4 2 4l12.41-2.69-1-3.71z" fill="#fe7a01"/>
     <path d="m425.5 397.4c-0.05 0 2 4 2 4l12.41-2.69-1-3.71z" opacity=".3"/>
     <path d="m395 269.9c8.08 1.59 7.23 31.73 6.25 47.24-2.33-11-5.74-32.05-8.07-47a2.77 2.77 0 0 1 1.82-0.24z" opacity=".3"/>
     <path d="m378.8 253.2s-0.85 46.06-0.18 64.84c0.7 19.54 7.52 83.53 7.52 83.53h10.44s0.38-62.84 0.85-82c0.5-20.93 3-66.34 3-66.34z" fill="#fe7a01"/>
     <path d="m384.2 397.4 0.59 4.33h12.7l0.34-3.86z" fill="#fe7a01"/>
     <path d="m384.2 397.4 0.59 4.33h12.7l0.34-3.86z" opacity=".3"/>
     <path d="m376.3 205.6c-0.95 1.49-2 3.14-3.11 4.68s-2.21 3.08-3.36 4.57-2.33 3-3.57 4.33c-0.59 0.71-1.24 1.34-1.86 2s-1.28 1.28-1.94 1.85l-1 0.88-1 0.79-0.41 0.33a4.61 4.61 0 0 1-1.06-0.33 15.88 15.88 0 0 1-2.14-1.12 72.34 72.34 0 0 1-8.84-6.92l-3.47 2.8a42.86 42.86 0 0 0 8.08 9.79 19.69 19.69 0 0 0 2.87 2.1 11 11 0 0 0 4.18 1.55 7.27 7.27 0 0 0 3.14-0.27 6.79 6.79 0 0 0 1.59-0.73l0.71-0.47c0.47-0.31 1-0.62 1.42-0.95l1.32-1a61.14 61.14 0 0 0 9-9.05c1.3-1.63 2.58-3.26 3.76-5s2.31-3.37 3.42-5.29zm-15.88 19.46a1 1 0 0 1-0.3 0h0.1c0.19-0.06 0.27-0.06 0.2 0z" fill="#ffc3bd"/>
     <path d="m388.3 209.2c2 8.26-13 16.34-13 16.34l-9.7-11.37a80.6 80.6 0 0 1 9.91-12c6.81-6.49 11.29 0.74 12.79 7.03z" fill="#fe7a01"/>
     <path d="m345.4 220.4-5.58-5.3 5.36-4.09s4.42 3.17 3.32 7.51z" fill="#ffc3bd"/>
     <polygon points="341.8 208.8 345.2 211.1 339.8 215.1 338.1 213.1" fill="#ffc3bd"/>
     <path d="m391.3 176.4s-3.33-3.84-2.83-7.47c0 0-3.1-5.2-0.2-7s4.73 2.07 4.73 2.07 1.87-4.07 4.56-3.57 2 4.07 2 4.07 3.6-3.14 5.85-2.17 0.93 4.48 0.93 4.48 3.68-0.7 4.53 1.59a3.2 3.2 0 0 1-1.35 3.68s3.31 1.23 3.41 4.32-3.46 2.77-3.46 2.77-0.61 4.6-7.68 8.51a1.88 1.88 0 0 1-1.47 0.16 5.25 5.25 0 0 0-2.79-0.07 1.9 1.9 0 0 1-2-0.72 31.56 31.56 0 0 1-2.92-4.37 42.72 42.72 0 0 1-1.31-6.28z" fill="#263238"/>
     <path d="m406.4 180c-2.19 3.93-4.88-2.45-4.88-2.45-2 5.12-5.75-1.8-5.75-1.8-0.94 3.62-4.49 0.65-4.49 0.65a42.72 42.72 0 0 0 1.37 6.28 30.68 30.68 0 0 0 2.92 4.37 1.9 1.9 0 0 0 2 0.72 5.25 5.25 0 0 1 2.79 0.07 1.88 1.88 0 0 0 1.47-0.16c7.07-3.91 7.68-8.51 7.68-8.51-0.99 3.12-3.11 0.83-3.11 0.83z" fill="#fff" opacity=".3"/>
     <path d="m384.3 177.9a1.24 1.24 0 0 1-0.27 0 1.06 1.06 0 0 1-0.67-0.59c-0.58-1.33 1-4.59 1.17-5l0.18-0.37 6.8 4.12-0.39 0.65-4.48-2.72c-0.2 0.85-0.81 3.15-1.79 3.74a1 1 0 0 1-0.55 0.17zm0.71-4.91c-0.6 1.3-1.29 3.26-1 3.95a0.24 0.24 0 0 0 0.18 0.17 0.23 0.23 0 0 0 0.23 0c0.65-0.39 1.26-2.35 1.5-3.51z" fill="#fe7a01"/>
     <path d="m393.8 178.1a6.88 6.88 0 0 1-2.49 3.68c-1.6 1.19-2.8 0-2.68-1.8 0.1-1.63 1.06-4.22 2.83-4.7s2.8 1.05 2.34 2.82z" fill="#ffc3bd"/>
    </g>
    <g transform="matrix(1.202 0 0 1.221 -63.33 -86.23)">
     <path d="m204.9 372.7h-48.47a5.94 5.94 0 0 1-5.55-3.79l-18.74-48.2a9 9 0 0 0-11.7-5.15s-49.29-1.81-53.94 0l-3.69 1.46 24.31 62.5a9.7 9.7 0 0 0 9 6.17h117.8v-3.95a9 9 0 0 0-9.04-9.04z" fill="#fe7a01"/>
     <path d="m204.9 372.7h-48.47a5.94 5.94 0 0 1-5.55-3.79l-18.74-48.2a9 9 0 0 0-11.7-5.15s-49.29-1.81-53.94 0l-3.69 1.46 24.31 62.5a9.7 9.7 0 0 0 9 6.17h117.8v-3.95a9 9 0 0 0-9.04-9.04z" fill="#fff" opacity=".3"/>
     <path d="m96.93 368.9-18.74-48.2a9 9 0 0 0-11.7-5.15l-3.69 1.46 24.31 62.5a9.7 9.7 0 0 0 9 6.17h63.89v-3.95a9 9 0 0 0-9-9h-48.52a5.94 5.94 0 0 1-5.55-3.83z" opacity=".2"/>
     <polygon points="132.8 415.9 136.6 415.9 144.1 400.1 201 400.1 208.4 415.9 212.3 415.9 205.4 391 139.6 391" fill="#263238"/>
     <polygon points="132.8 415.9 136.6 415.9 144.1 400.1 201 400.1 208.4 415.9 212.3 415.9 205.4 391 139.6 391" fill="#fff" opacity=".2"/>
     <polygon points="129.6 415.9 133.5 415.9 140.9 400.1 197.9 400.1 205.3 415.9 209.2 415.9 202.3 391 136.5 391" fill="#263238"/>
     <polygon points="129.6 415.9 133.5 415.9 140.9 400.1 197.9 400.1 205.3 415.9 209.2 415.9 202.3 391 136.5 391" fill="#fff" opacity=".3"/>
     <polygon points="85.93 415.9 89.8 415.9 97.23 400.1 154.2 400.1 161.6 415.9 165.5 415.9 158.6 391 92.82 391" fill="#263238"/>
     <polygon points="85.93 415.9 89.8 415.9 97.23 400.1 154.2 400.1 161.6 415.9 165.5 415.9 158.6 391 92.82 391" fill="#fff" opacity=".2"/>
     <polygon points="82.81 415.9 86.67 415.9 94.11 400.1 151 400.1 158.5 415.9 162.4 415.9 155.5 391 89.7 391" fill="#263238"/>
     <polygon points="82.81 415.9 86.67 415.9 94.11 400.1 151 400.1 158.5 415.9 162.4 415.9 155.5 391 89.7 391" fill="#fff" opacity=".4"/>
     <rect x="93.8" y="385.7" width="60.18" height="5.32" fill="#263238"/>
     <rect x="93.8" y="385.7" width="60.18" height="5.32" fill="#fff" opacity=".2"/>
     <rect x="154" y="385.7" width="47.18" height="5.32" fill="#263238"/>
     <rect x="154" y="385.7" width="47.18" height="5.32" fill="#fff" opacity=".1"/>
     <polygon points="173.9 374.8 161.6 372.3 163.7 365.2 175.2 369.9" fill="#ce7a63"/>
     <path d="m124.4 348.6s55.13-19.1 59.67-1.55-37.23 29.65-59.12 28.92-0.55-27.37-0.55-27.37z" fill="#263238"/>
     <path d="m124.4 348.6s55.13-19.1 59.67-1.55-37.23 29.65-59.12 28.92-0.55-27.37-0.55-27.37z" opacity=".3"/>
     <path d="m165.3 350.4-26.75 17 4.27 7s-2.58 0.86-6.16-7.7l16.55-10.94s-5.18-0.52-5.05-1.33c0.22-1.33 11.6-3.86 16.79-5a0.5156 0.5156 0 0 1 0.35 0.97z" opacity=".7"/>
     <path d="m137.6 366.7 4.64 7.87a88.46 88.46 0 0 1-17.35 1.43 15.81 15.81 0 0 1-5.59-1.06l-1.63-3.12 3.51-7.39z" opacity=".7"/>
     <polygon points="135.3 376 143.2 374.8 138.1 367.9 132.9 372.3" fill="#ce7a63"/>
     <polygon points="136.7 368.1 141.4 375.5 144.6 374.9 139.1 366.3" fill="#fe7a01"/>
     <path d="m105 366.9c-3-5-8.68-20.15 5.08-22.79s58.92 22.79 58.92 22.79l-2.1 6.62-42.79-7.06s11.9 10.76-1.12 9.43c-10.33-1.07-15.13-4.1-17.99-8.99z" fill="#263238"/>
     <polygon points="167.9 374.3 170.3 366.8 167.9 365.2 165.2 373.9" fill="#fe7a01"/>
     <path d="m132.6 371.1 4.12 4.89a0.51 0.51 0 0 1 0 0.65l-3.24 4.24a0.86 0.86 0 0 1-1.2 0.16 0.49 0.49 0 0 1-0.13-0.12c-1.46-1.79-2.68-3.44-4.53-5.64-2.19-2.59-1.94-1.67-4.55-4.69-1.57-1.81 0.23-3.91 1-3.21 3.45 3.18 4.84 2.65 7.27 2.95a2 2 0 0 1 1.26 0.77z" fill="#fe7a01"/>
     <path d="m132.6 371.1 4.12 4.89a0.51 0.51 0 0 1 0 0.65l-3.24 4.24a0.86 0.86 0 0 1-1.2 0.16 0.49 0.49 0 0 1-0.13-0.12c-1.46-1.79-2.68-3.44-4.53-5.64-2.19-2.59-1.94-1.67-4.55-4.69-1.57-1.81 0.23-3.91 1-3.21 3.45 3.18 4.84 2.65 7.27 2.95a2 2 0 0 1 1.26 0.77z" opacity=".3"/>
     <path d="m174.3 369.3-2 6.09a0.51 0.51 0 0 0 0.22 0.61l4.59 2.73a0.85 0.85 0 0 0 1.18-0.29 0.8 0.8 0 0 0 0.08-0.16c0.69-2.21 1.21-4.2 2.12-6.94 1.06-3.22 1.18-2.28 2.48-6.05 0.79-2.28-1.67-3.55-2.12-2.63-2 4.26-3.51 4.27-5.66 5.46a2 2 0 0 0-0.89 1.18z" fill="#fe7a01"/>
     <path d="m174.3 369.3-2 6.09a0.51 0.51 0 0 0 0.22 0.61l4.59 2.73a0.85 0.85 0 0 0 1.18-0.29 0.8 0.8 0 0 0 0.08-0.16c0.69-2.21 1.21-4.2 2.12-6.94 1.06-3.22 1.18-2.28 2.48-6.05 0.79-2.28-1.67-3.55-2.12-2.63-2 4.26-3.51 4.27-5.66 5.46a2 2 0 0 0-0.89 1.18z" opacity=".3"/>
     <path d="m141.5 311.9s3.64 17.9 6.09 20.87 13.13 10.95 13.13 10.95l6.35-1.33 4.55 3.8-3 2.35-3.52-1.33a32.82 32.82 0 0 1-5.82 0.51c-3.28 0-16.61-7.84-19.25-12.25s-6.34-21-6.34-21z" fill="#ce7a63"/>
     <path d="m133.6 317.2s-4.61-14 1.47-18.69 8.93 16.1 8.93 16.1z" fill="#fe7a01"/>
     <polygon points="144.9 315.4 144.5 313 132.4 316 133.3 318.4" fill="#fe7a01"/>
     <path d="m102 350.8s-7.51-22.76 2.46-52.37c0 0 12.94-6 31.4-1.6a3.88 3.88 0 0 1 2.86 4.75c-1.85 7.18-4.7 24.3 2.19 45.94a299 299 0 0 1-38.91 3.28z" fill="#fe7a01"/>
     <path d="m102 350.8s-7.51-22.76 2.46-52.37c0 0 12.94-6 31.4-1.6a3.88 3.88 0 0 1 2.86 4.75c-1.85 7.18-4.7 24.3 2.19 45.94a299 299 0 0 1-38.91 3.28z" fill="#fff" opacity=".8"/>
     <path d="m123 299.7s2.34 2.58 4.38 0l1.12-0.17s-0.08 2.75-1.58 3.67a318.5 318.5 0 0 1 5.14 33.33l-2 1.43-2.49-1.43s0.62-8.67-2.13-33.12a6.5 6.5 0 0 1-3.94-3.88z" fill="#263238"/>
     <path d="m119.2 295.4 6.25 5.42 3.63-3.22c-1.38-1-1-3.32-0.23-5.81l-8.87-7c0.45 3.29 0.79 7.79-0.78 10.61z" fill="#ce7a63"/>
     <path d="m111.2 307.4s4 19.62 6.67 22.87 14.4 12 14.4 12l7-1.46 5 4.16-3.26 2.58-3.86-1.45a36.49 36.49 0 0 1-6.38 0.55c-3.6 0-18.21-8.6-21.1-13.42s-7-23-7-23z" fill="#ce7a63"/>
     <path d="m116.9 295.5 2.48-1.44 6.08 6.72s-3.34-1.37-4.28-0.82-0.26 2.65-1.24 2.67c-2.18 0.04-3.04-7.13-3.04-7.13z" fill="#fe7a01"/>
     <path d="m125.4 300.8 3.16-6.26 2.59 1.4s2.41 6.07 0.57 6.71c-1.12 0.39-1.55-2.45-2.66-2.86-0.89-0.33-3.66 1.01-3.66 1.01z" fill="#fe7a01"/>
     <path d="m103 317.2s-4.62-14 1.46-18.69 8.93 16.1 8.93 16.1z" fill="#fe7a01"/>
     <polygon points="114.3 315.4 113.9 313 101.8 316 102.7 318.4" fill="#fe7a01"/>
     <path d="m120.1 285.9c0-0.4-0.1-0.79-0.15-1.16l8.87 7a14.78 14.78 0 0 0-0.66 3c-5.35 0.05-7.38-5.87-8.06-8.84z" opacity=".1"/>
     <path d="m121.6 274.6c-1.84 6.25-2.76 8.88-0.81 13.09 2.93 6.41 11 7.31 14.69 1.74 3.28-5 5.8-14.39 0.67-19a8.9 8.9 0 0 0-14.55 4.18z" fill="#ce7a63"/>
     <path d="m129.2 281.9c-0.18 0.5-0.06 1 0.26 1.12s0.74-0.19 0.92-0.69 0.06-1-0.26-1.11-0.74 0.18-0.92 0.68z" fill="#263238"/>
     <path d="m134.8 284c-0.19 0.49-0.06 1 0.26 1.11s0.73-0.19 0.92-0.69 0.06-1-0.26-1.11-0.71 0.15-0.92 0.69z" fill="#263238"/>
     <path d="m132.3 283.2a14.58 14.58 0 0 0 0.61 3.82 2.27 2.27 0 0 1-1.89-0.31z" fill="#ba4d3c"/>
     <path d="m128.5 277.5a0.32 0.32 0 0 0 0.33 0.16 3.75 3.75 0 0 1 2.75 1.13 0.3112 0.3112 0 0 0 0.45-0.43 4.42 4.42 0 0 0-3.29-1.32 0.31 0.31 0 0 0-0.26 0.35 0.2 0.2 0 0 0 0.02 0.11z" fill="#263238"/>
     <path d="m137.9 281.5a0.3 0.3 0 0 0 0.31-0.06 0.3 0.3 0 0 0 0-0.43 3.07 3.07 0 0 0-2.61-1.16 0.31 0.31 0 0 0-0.27 0.35 0.31 0.31 0 0 0 0.35 0.27 2.5 2.5 0 0 1 2.05 0.94 0.42 0.42 0 0 0 0.17 0.09z" fill="#263238"/>
     <path d="m120.4 278.2a2.16 2.16 0 0 0 2-2.74s3.88-0.1 4-3c0 0 3.38 3 4.58 0.66 0 0 4.16 3.71 4.7 1.26 0 0 4.32 5.35 4.1 2.07 0 0 4.86-0.49 0.49-4.7 0 0 4-3.49-2.46-4.91 0 0 0.57-4.15-4-2.32 0 0-1.05-4.51-5-1.89 0 0-2.12-3.16-4.45 1.1 0 0-3.42-2-4.52 2.46 0 0-6.2 0.75-3.64 4.83 0 0 1.91 13.69 3.64 13.69 1.28 0.05 0.56-6.51 0.56-6.51z" fill="#263238"/>
     <path d="m129.2 288.6a3.8 3.8 0 0 0 0.67 0.14 0.15 0.15 0 0 0 0.16-0.11 0.15 0.15 0 0 0-0.13-0.15 3.68 3.68 0 0 1-2.8-1.81 0.14 0.14 0 0 0-0.18-0.06 0.12 0.12 0 0 0-0.06 0.18 3.76 3.76 0 0 0 2.34 1.81z" fill="#263238"/>
     <path d="m170.5 349.8h-24.81a2.1 2.1 0 0 1-2.11-2.11h29a2.1 2.1 0 0 1-2.08 2.11z" fill="#263238"/>
     <path d="m170.5 349.8h-24.81a2.1 2.1 0 0 1-2.11-2.11h29a2.1 2.1 0 0 1-2.08 2.11z" fill="#fff" opacity=".2"/>
     <path d="m152.2 349.8h-18a2.11 2.11 0 0 1-2.12-2.11h22.26a2.11 2.11 0 0 1-2.14 2.11z" fill="#263238"/>
     <path d="m152.2 349.8h-18a2.11 2.11 0 0 1-2.12-2.11h22.26a2.11 2.11 0 0 1-2.14 2.11z" fill="#fff" opacity=".5"/>
     <path d="m170.7 349.2h-16.32a0.51 0.51 0 0 1-0.48-0.67l7.27-20.74a1.42 1.42 0 0 1 1.34-1h16.33a0.5 0.5 0 0 1 0.47 0.67l-7.29 20.78a1.43 1.43 0 0 1-1.32 0.96z" fill="#263238"/>
     <path d="m170.7 349.2h-16.32a0.51 0.51 0 0 1-0.48-0.67l7.27-20.74a1.42 1.42 0 0 1 1.34-1h16.33a0.5 0.5 0 0 1 0.47 0.67l-7.29 20.78a1.43 1.43 0 0 1-1.32 0.96z" fill="#fff" opacity=".5"/>
     <path d="m171.3 349.2h-16.32a0.51 0.51 0 0 1-0.48-0.67l7.26-20.74a1.42 1.42 0 0 1 1.35-1h16.33a0.5 0.5 0 0 1 0.47 0.67l-7.26 20.74a1.43 1.43 0 0 1-1.35 1z" fill="#263238"/>
     <path d="m171.3 349.2h-16.32a0.51 0.51 0 0 1-0.48-0.67l7.26-20.74a1.42 1.42 0 0 1 1.35-1h16.33a0.5 0.5 0 0 1 0.47 0.67l-7.26 20.74a1.43 1.43 0 0 1-1.35 1z" fill="#fff" opacity=".7"/>
     <path d="m168.6 338c-0.17 0.8-0.72 1.44-1.23 1.44s-0.78-0.64-0.62-1.44 0.72-1.43 1.23-1.43 0.79 0.61 0.62 1.43z" fill="#fff"/>
     <path d="m121.6 273.2a2.34 2.34 0 0 1-2.13 0c-0.87-0.63 0.24-2.38 0.24-2.38-2.21 1.29-3.41 0.29-3.41 0.29s1.91 13.69 3.64 13.69c1.18 0 0.46-6.56 0.46-6.56a2.16 2.16 0 0 0 2-2.74c-2.09-0.4-0.8-2.3-0.8-2.3z" fill="#fff" opacity=".3"/>
     <path d="m138.3 282.2a2.23 2.23 0 0 0-1.35-1.48 2.8 2.8 0 0 0-3.31 1.84l-1.2-0.49a3.16 3.16 0 0 0-0.16-1.85 2.73 2.73 0 0 0-1.6-1.56 2.93 2.93 0 0 0-3.45 1.3l-1.53-0.61-4.09-2.27-0.24 0.44 4.11 2.28 1.52 0.61-0.09 0.19a3.28 3.28 0 0 0 0 2.35 2.73 2.73 0 0 0 1.6 1.56 2.67 2.67 0 0 0 0.92 0.17 2.76 2.76 0 0 0 1.3-0.33 3.22 3.22 0 0 0 1.55-1.77l1.16 0.47a3.48 3.48 0 0 0 0 2.07 2.28 2.28 0 0 0 1.35 1.48 2.16 2.16 0 0 0 0.71 0.12 2.49 2.49 0 0 0 1.28-0.38 3.58 3.58 0 0 0 1.43-1.81 3.53 3.53 0 0 0 0.09-2.33zm-7.65 1.93a2.49 2.49 0 0 1-2 0.15 2.53 2.53 0 0 1-1.45-1.42 3 3 0 0 1 0-2.17 2.86 2.86 0 0 1 2.62-1.94 2.45 2.45 0 0 1 0.83 0.14 2.52 2.52 0 0 1 1.45 1.43 3 3 0 0 1 0 2.17 3 3 0 0 1-1.45 1.64zm7.34 0.29a3.2 3.2 0 0 1-1.33 1.69 1.92 1.92 0 0 1-3-1.09 3.22 3.22 0 0 1 0.07-2.14 2.86 2.86 0 0 1 2.48-2 1.66 1.66 0 0 1 0.62 0.11 2 2 0 0 1 1.2 1.32 3.29 3.29 0 0 1-0.05 2.11z" fill="#fe7a01"/>
     <path d="m138.3 282.2a2.23 2.23 0 0 0-1.35-1.48 2.8 2.8 0 0 0-3.31 1.84l-1.2-0.49a3.16 3.16 0 0 0-0.16-1.85 2.73 2.73 0 0 0-1.6-1.56 2.93 2.93 0 0 0-3.45 1.3l-1.53-0.61-4.09-2.27-0.24 0.44 4.11 2.28 1.52 0.61-0.09 0.19a3.28 3.28 0 0 0 0 2.35 2.73 2.73 0 0 0 1.6 1.56 2.67 2.67 0 0 0 0.92 0.17 2.76 2.76 0 0 0 1.3-0.33 3.22 3.22 0 0 0 1.55-1.77l1.16 0.47a3.48 3.48 0 0 0 0 2.07 2.28 2.28 0 0 0 1.35 1.48 2.16 2.16 0 0 0 0.71 0.12 2.49 2.49 0 0 0 1.28-0.38 3.58 3.58 0 0 0 1.43-1.81 3.53 3.53 0 0 0 0.09-2.33zm-7.65 1.93a2.49 2.49 0 0 1-2 0.15 2.53 2.53 0 0 1-1.45-1.42 3 3 0 0 1 0-2.17 2.86 2.86 0 0 1 2.62-1.94 2.45 2.45 0 0 1 0.83 0.14 2.52 2.52 0 0 1 1.45 1.43 3 3 0 0 1 0 2.17 3 3 0 0 1-1.45 1.64zm7.34 0.29a3.2 3.2 0 0 1-1.33 1.69 1.92 1.92 0 0 1-3-1.09 3.22 3.22 0 0 1 0.07-2.14 2.86 2.86 0 0 1 2.48-2 1.66 1.66 0 0 1 0.62 0.11 2 2 0 0 1 1.2 1.32 3.29 3.29 0 0 1-0.05 2.11z" fill="#fff" opacity=".5"/>
     <path d="m118.3 278.8a4.77 4.77 0 0 0 1.49 3.32c1.22 1.14 2.61 0.23 2.9-1.33 0.26-1.39 0-3.67-1.58-4.22a2.15 2.15 0 0 0-2.71 1.38 2.17 2.17 0 0 0-0.1 0.85z" fill="#ce7a63"/>
    </g>
   </g>
  </g>
  <g transform="matrix(8.223 0 0 8.248 1563 1018)">
   <g transform="matrix(.157 0 0 .1721 147.2 -358.9)">
    <path d="m3724 3291h-1067c-54.52 0-98.73-43.65-98.73-97.5v-246.6c0-53.84 44.2-97.5 98.73-97.5h1067c54.52 0 98.73 43.65 98.73 97.5v246.6c0.011 53.85-44.19 97.5-98.72 97.5z" fill="#514f49" stroke-width="1.078"/>
    <rect x="2607" y="3070" width="1167" height="117.4" fill="#e2e2e2" stroke-width="1.078"/>
    <g transform="matrix(1.085,0,0,1.072,1669,2395)" fill="#32c95c">
     <rect x="865.3" y="629.6" width="804.9" height="109.6"/>
     <rect class="control-icon stop" x="1683" y="629.6" width="37.38" height="109.6" opacity="0"/>
     <rect class="control-icon stop" x="1736" y="629.6" width="37.38" height="109.6" opacity="0"/>
     <rect class="control-icon play" x="1791" y="629.6" width="37.38" height="109.6" opacity="0"/>
    </g>
    <g transform="matrix(2.471,0,0,2.496,1268,2266)" fill="#fff" aria-label="ЗАГРУЗКА">
     <path d="m673.4 289.6c0.1004 3.633-2.007 7.176-5.278 8.78-4.611 2.486-10.04 2.504-15.13 2.127-3.111-0.3121-6.19-1.001-9.121-2.095v-7.875c1.326-0.1843 2.284 1.022 3.48 1.406 2.999 1.37 6.25 2.488 9.598 2.173 2.526-0.1317 5.562-0.7813 6.762-3.272 0.7113-1.965 0.3618-4.816-1.833-5.667-2.746-0.9557-5.7-0.5506-8.555-0.6401h-2.632v-6.234c2.849-0.0511 5.708 0.1264 8.547-0.145 1.741-0.1186 3.73-1.164 3.812-3.115 0.3252-1.438-0.5199-2.947-1.94-3.375-4.291-1.493-9.019-0.4568-13.04 1.361-0.9925 0.3986-1.903 1.198-3.027 1.032v-7.336c6.476-2.22 13.59-3.079 20.31-1.504 3.121 0.7566 6.418 2.835 6.988 6.235 0.6902 3.303-1.093 6.777-4.027 8.364-0.7009 0.774-2.515 0.5483-2.783 1.436 3.144 0.4832 6.366 2.284 7.453 5.43 0.3195 0.9347 0.4203 1.93 0.4219 2.914z"/>
     <path d="m712.7 300h-9.305l-2.414-7.055h-12.94l-2.414 7.055h-9.07l12.89-34.9h10.36zm-13.9-13.45-4.289-12.52-4.289 12.52z"/>
     <path d="m742.9 271.8h-16.17v28.15h-9v-34.9h25.17z"/>
     <path d="m777.1 276.1c0.0234 3.756-1.621 7.609-4.798 9.749-2.913 2.298-6.713 2.888-10.32 2.767h-4.685v11.37h-9v-34.9c5.534 0.0259 11.07-0.0548 16.6 0.0464 4.071 0.1648 8.593 1.559 10.79 5.263 1.039 1.707 1.423 3.728 1.416 5.707zm-9.305 0.2109c0.0991-2.289-1.869-4.147-4.037-4.465-2.133-0.3512-4.308-0.2145-6.463-0.2461v10.45c2.688-0.0691 5.522 0.2965 8.034-0.8525 1.83-0.8844 2.529-2.978 2.466-4.89z"/>
     <path d="m814.2 265.1c-4.383 9.592-8.707 19.21-13.13 28.79-1.626 3.404-4.999 5.99-8.821 6.228-3.021 0.2579-6.06 0.0211-9.082-0.1157v-7.617c1.573 0.1049 3.135 0.5359 4.734 0.4453 1.844-0.0761 4.05-0.0261 5.432-1.44 0.1136-0.5805-0.5478-1.167-0.7543-1.75-4.442-8.179-8.884-16.36-13.33-24.54h9.773c2.891 5.516 5.781 11.03 8.672 16.55 2.383-5.516 4.766-11.03 7.148-16.55 3.117-2e-5 6.234-3e-5 9.352-5e-5z"/>
     <path d="m845.7 289.6c0.1004 3.633-2.007 7.176-5.278 8.78-4.611 2.486-10.04 2.504-15.13 2.127-3.111-0.3121-6.19-1.001-9.121-2.095v-7.875c1.326-0.1843 2.284 1.022 3.48 1.406 2.999 1.37 6.25 2.488 9.598 2.173 2.526-0.1317 5.562-0.7813 6.762-3.272 0.7113-1.965 0.3618-4.816-1.833-5.667-2.746-0.9557-5.7-0.5506-8.555-0.6401h-2.632v-6.234c2.849-0.0511 5.708 0.1264 8.547-0.145 1.741-0.1186 3.73-1.164 3.812-3.115 0.3252-1.438-0.5199-2.947-1.94-3.375-4.291-1.493-9.019-0.4568-13.04 1.361-0.9925 0.3986-1.903 1.198-3.027 1.032v-7.336c6.476-2.22 13.59-3.079 20.31-1.504 3.121 0.7566 6.418 2.835 6.988 6.235 0.6902 3.303-1.093 6.777-4.027 8.364-0.7009 0.774-2.515 0.5483-2.783 1.436 3.144 0.4832 6.366 2.284 7.453 5.43 0.3195 0.9347 0.4203 1.93 0.4219 2.914z"/>
     <path d="m885.3 300h-11.04c-3.438-4.695-6.875-9.391-10.31-14.09h-2.203v14.09h-9v-34.9h9v14.23c1.676 0.0577 3.362-0.6005 4.343-2.005 2.896-3.514 3.935-8.498 7.914-11.1 2.832-1.58 6.177-1.144 9.282-1.124v7.57c-1.998 0.0886-4.367-0.4347-5.869 1.254-2.25 2.455-2.866 6.207-5.78 8.074 4.555 6 9.109 12 13.66 18z"/>
     <path d="m922.1 300h-9.305l-2.414-7.055h-12.94l-2.414 7.055h-9.07l12.89-34.9h10.36zm-13.9-13.45-4.289-12.52-4.289 12.52z"/>
    </g>
   </g>
  </g>
  <g transform="matrix(50.35 0 0 53.5 487.8 -515.6)" stroke-width=".1889">
   <path d="m32.03 10.72c-0.4557 0.1982-0.8532 0.4828-1.272 0.7587-0.9149 0.5714-1.606 1.407-1.317 2.748 0.06028 0.4525 0.2391 1.025 0.1203 1.198-0.1557-0.2399-0.2131-0.4615-0.3988-0.6563-0.1341 0.2725-0.2197 0.4705-0.3609 0.7393-0.1751-0.1326-0.3461-0.2584-0.3672-0.3761-0.08168-0.8072 0.1425-1.875-0.3102-2.505-0.3604-0.5321-1.864-1.277-2.304-1.275 0.0049 0.1509 0.09676 0.3936 0.2532 0.7141 0.2644 0.4121 0.9583 0.8358 0.8864 1.377-0.1544 0.9348-0.4133 1.796-0.8102 2.754-0.3954-0.448-0.5046-0.8703-0.4431-1.23 0.1299-0.3553 0.6995-1.047 1.12-1.517-0.2021-0.223-0.387-0.395-0.5635-0.5418-0.6369 0.4348-0.9373 1.164-1.177 1.836-0.6116 0.9328-1.129 1.964-1.14 3.519 0.08639 0.536 0.2551 1.164 0.2532 1.326-0.05948 0.1186-0.116 0.2402-0.1519 0.3825 0.08985 0.2207 0.2173 0.4982 0.3545 0.7902-0.1262 0.4444-0.1151 0.9086-0.07597 1.377 0.3481 1.347 0.8167 2.235 2.355 4.003 0.1801 0.1877 0.911 0.627 1.264 0.6754 1.209 0.1675 2.495 0.4696 3.751 0.1833 0.4569-0.0993 2.839-1.24 3.077-1.723 0.2498-0.06509 1.076-2.067 0.9995-3.7-0.1234-1.089-0.5686-2.115-1.317-3.085 0.2719-0.5879 0.3777-1.155 0.3798-1.709-0.1178-0.0033-0.2361 0.02586-0.3545 0.07009 0.1119-0.3588 0.1696-0.7926 0.1203-1.045-0.137-0.911-0.7322-1.676-1.165-2.843 0.072-0.3659 0.2232-0.6427 0.3482-0.9561-0.2248-0.1155-0.4522-0.2301-0.7597-0.3123-0.3395 0.3909-0.2422 0.7946-0.2659 1.186-0.2189 0.5336-0.3238 1.077-0.1393 1.644 0.09509 0.5268 0.4019 0.9998 0.2406 1.587-0.1266 0.03773-0.1962 0.02161-0.3229-0.02544 0.01496-0.3364 0.02196-0.6161-0.01267-0.9687-0.266 0.1529-0.3947 0.3834-0.5443 0.5865-0.6425-0.8222-0.7752-1.641-0.785-2.377 0.03608-1.013 1.065-2.63 0.8359-2.607zm-1.734 7.723c0.7434 0.2527 1.454 0.994 2.176 1.578 0.2221 0.1859 0.6247 1.401 0.6803 2.281-0.1059 0.4612-0.3715 0.8442-0.7108 1.54-0.5233 0.5297-1.05 1.031-1.62 1.136-1.076-0.01651-1.565-0.6554-1.764-0.8382l-0.7516-0.9199c-0.613-0.6554-0.7257-1.386-0.6234-1.946l0.197-1.469c0.132-0.398 0.2782-0.7941 0.7611-1.145 0.4733-0.1517 1.041-0.2086 1.656-0.2164z" fill="url(#linearGradient1270)"/>
   <g transform="matrix(1.08,0,0,1.09,42.3,-18.79)" fill="url(#linearGradient8113)" stroke-linecap="round" stroke-linejoin="round">
    <path d="m-2.639 39.14v-4.804c0.03856-0.1591-0.05693-0.35-0.1437-0.5389 0.13-0.3912 0.3986-0.6479 0.6515-0.9199 0.09959-0.2874-0.04397-0.6688-0.1629-1.004 0.2752 0.07796 0.5453 0.206 0.7952 0.5296 0.03178 0.2742 0.1366 0.5129 0.02874 0.8548 0.1519-0.04086 0.2882-0.07663 0.3641-0.09292l0.3258-0.09292c-0.2414-0.2137-0.323-0.4274-0.3353-0.6411 0.06224-0.1862 0.2768-0.2837 0.4599-0.3995 0.00451 0.5511 0.2045 0.632 0.3545 1.069 0.1493-0.1057 0.2557-0.2322 0.3545-0.3624 0.03826 0.1117 0.1104 0.08223 0.2108 0.158 0.1275-0.107 0.2256-0.2282 0.2012-0.4088 0.02407-0.1822-0.04346-0.3682-0.412-0.5668-0.1585-0.116 0.3298-0.2162 0.6132-0.1951 0.41 0.1029 0.4213 0.4438 0.5174 0.734-0.03101 0.1515-0.01354 0.3218-0.1629 0.4274 0.06903 0.116 0.1362 0.2247 0.2299 0.4367 0.0528 0.0754 0.07469 0.1636 0.2108 0.2044-0.03665-0.1951 0.03391-0.3282 0.1246-0.4739l0.4311-0.04646-0.1533-0.5203c-0.0095-0.3035 0.1842-0.4755 0.3162-0.6876l0.3832 0.9199c0.2235 0.2013 0.2864 0.4913 0.3449 0.7155 0.00451 0.1889 0.03294 0.3407-0.1054 0.5296-0.1142 0.1472-0.08448 0.5342-0.1054 0.8455h-3.44l-0.00958 1.087 1.725-0.01858c0.0861 0.3082 0.1564 0.6241 0.1916 0.957l-1.964 0.03717-0.01916 2.267z"/>
    <path d="m3.503 35.23-0.2108-0.9663c-0.2404-0.2675-0.04802-0.5544 0.07665-0.8455 0.1377-0.1806 0.2969-0.2358 0.4599-0.2695-0.0343 0.3874-0.1056 0.7354 0.1054 1.384 0.07995 0.1792 0.1942 0.3089 0.3162 0.4274l0.1054-0.2137 0.3737 0.1951c0.01004-0.4254-0.2065-0.8344-0.3449-1.236 0.306 0.1306 0.6497 0.2247 0.7856 0.5203l0.08623 1.161c-0.2407 0.6037-0.07004 1.307-0.02874 1.979 0.02697 0.1753 0.07479 0.4091 0.3737 0.446 0.1476 0.0024 0.2572-0.2364 0.3066-0.5389 0.04696-0.5165 0.0488-1.048 0.01916-1.589l-0.1916-0.3438 0.2204-0.2137-0.3162-0.9942c0.01018-0.5817 0.3512-0.8518 0.6036-1.199l0.06707 1.217c0.3091-0.03041 0.4409 0.03603 0.4695 0.07433 0.2585 0.03149 0.4495 0.1362 0.6323 0.4367 0.05093 0.3318 0.1406 0.6287-0.00959 0.9849 0.01477 0.3443 0.0687 0.7341 0.2108 1.226 0.04473 0.2849 0.1588 0.8922-0.3353 1.477-0.2982 0.3154-0.6154 0.52-0.9389 0.6876-0.2701 0.1838-1.332 0.2229-1.6 0.09292-1.259-0.8404-1.121-1.662-1.341-2.509l-0.2299-0.7805-0.182-0.381c0.05769-0.192 0.1253-0.3841 0.2587-0.5761z"/>
    <path d="m7.819 34.62c0.00451 0.2892 0.00904 0.5783 0.01355 0.8673 0.252 0.2378 0.564 0.3578 0.4878 0.8804l0.2845 2.786h1.836l-0.0067-2.142c0.04689-0.3093 0.4178-0.4168 0.9078-0.4862 0.1083-0.0105 0.4965 0.2204 0.6707 0.4796 0.0366-0.3092 0.05291-0.5965 0.1965-0.9921-0.8087-0.6255-1.438-0.5117-1.958 0.05256-0.07579-0.1819-0.0045-0.4522 0.02031-0.6504 0.1092-0.781-0.04435-1.204-0.6436-1.656 0.0334 0.4065-0.0141 0.7715-0.08807 1.143-0.09939-0.3258-0.253-0.2611-0.3455-0.1314-0.1189-0.6928-0.1542-1.364-0.07453-2.004-0.3815 0.2426-0.6112 0.6174-0.8875 0.979 0.06393 0.4057 0.02476 0.7465 0.1219 1.281-0.1943-0.1743-0.3769-0.3204-0.5352-0.4074z"/>
    <path d="m13.17 36.17c0.1387-0.03899 0.3809 0.111 0.4607 0.2497l-0.271 0.3417c0.02753 0.1305 0.03184 0.3284 0.1761 0.3942l1.192-2.641 0.06097-1.196c0.07258-0.1778 0.1602-0.2678 0.2507-0.3416l0.08808-0.4468 0.4675-0.1577 0.06775-0.6505c0.1501-0.03646 0.3061-0.02221 0.4742 0.09855l0.01355 0.6833c-0.02311 0.3044 0.02321 0.6462 0.1626 1.038 0.1068 0.3101 0.2497 0.6418 0.149 0.749 0.2716 0.7389 0.6149 1.641 0.8333 2.122l0.7791-2.05c-0.1249-0.4792-0.1269-0.747 0.271-1.084 0.101-0.1927 0.0041-0.3855-0.02711-0.5782 0.09989-0.3487 0.3537-0.544 0.542-0.7556 0.1605 0.32 0.1374 0.7939 0.1965 1.229 0.3049-0.3287 0.5797-0.1108 0.5826 0.07884-0.218 0.2643-0.136 0.4205-0.0841 0.5419l1.125 2.851 0.1857-0.5945c0.09123-0.0114 0.1986 0.0084 0.3658 0.1445l-0.1761 0.8147 0.2303-0.8804c0.1219-0.03899 0.2439-0.03039 0.3658 0.07884-0.0668 0.2925-0.1348 0.5823-0.02711 1.261 0.01489 0.3176-0.09454 1.043 0 1.537l-1.721 0.03238-0.8768-2.453-1.239 2.468-1.274-0.0077-1.072-2.483-1.06 2.522-1.687-0.1183c-0.5404-0.7208-0.04371-0.9699 0.1152-1.432-0.2426-0.4555-0.2437-0.9111 0.3591-1.367z"/>
    <path d="m24.02 33.28c-0.4785 0.1491-0.7647 0.4537-1.03 0.7753-0.04325 0.2894-0.02835 0.7196 0 1.183-0.1634-0.04359-0.3063-0.2061-0.4336-0.4598-0.08659 0.2716-0.1736 0.5431-0.1897 0.8147 0.0055 0.1306 0.0471 0.2891 0.2303 0.4337-0.5163 0.3833-0.9277 1.87 0.4065 2.576 0.4739 0.2063 1.464 0.4587 2.737 0.09194v0.46l1.789-0.2892-0.4201-4.165-1.648-0.04409-0.03235 0.8982c-0.0194-1.045-0.4524-1.045-0.915-1.74-0.1758 0.3492 0.4084 0.689 0.2567 1.187-0.1184-0.04354-0.2826-0.2682-0.4257-0.4197-0.0096 0.1444-0.01254 0.2901 0.04072 0.4468-0.4066-0.265-0.6533-0.5411-0.5556-0.8411 0.07944-0.1924 0.1327-0.5591 0.1897-0.9066zm1.15 2.927c0.1263 0.0011 0.2555 0.01074 0.3812 0.01005l0.04734 1.485c-0.02994 0.1951-0.1062 0.2252-0.1896 0.23-0.5577-0.1271-1.144-0.3076-1.145-0.6964 0.02887-0.3202 0.0186-0.6547 0.3253-0.8739 0.1674-0.1342 0.3703-0.1564 0.5808-0.1546z"/>
    <path d="m28.49 39.1 1.822 0.0657 0.02031-2.208c0.3577-0.2017 0.621-0.4163 0.8673-0.4098 0.1691 0.0045 0.3012 0.1028 0.5893 0.423 0.1647-0.071 0.2085-0.5582 0.2236-0.8673-0.2024-0.3161-0.9784-0.5057-1.098-0.4599-0.2025 0.03893-0.542 0.1862-0.7927 0.4336-0.02586-0.2791-0.06405-0.5866 0.09485-0.8147-0.02887-0.8822-0.3986-1.265-0.7046-1.485-0.1717 0.3229 0.02409 0.7527-0.1016 1.11l-0.1558-0.3022-0.149 0.23c0.03169-0.3402 0.0078-0.6355-0.1761-0.8016-0.0498-0.3532 0.04691-0.685 0.1694-1.078-0.3717-0.1804-0.8618 0.6806-0.9146 0.8344-0.02275 0.3766-0.07754 0.7565 0.0067 1.202-0.2182-0.06357-0.3031-0.2824-0.4404-0.4402-0.2021 0.2985-0.1564 0.632-0.07452 0.8738 0.178 0.266 0.5788 0.4055 0.4268 0.8935z"/>
    <path d="m32.08 39.18 1.993-0.05575 0.09581-1.292 1.619 1.384c0.4333-0.07961 0.9266-0.3919 1.408-0.6597 0.2643-0.1962 0.4859-0.4172 0.6228-0.6876l-0.2491-0.8084c-0.08594-0.1364-0.04681-0.4775-0.03831-0.6597-0.1424-0.1696-0.5174 0.06504-0.5174 0.06504-0.08645 0.2493-0.1777 0.4978-0.115 0.7712l-0.5365-0.6597c-0.1595 0.2291 0.1967 0.6508 0.06707 1.05l-0.9294-0.6783 0.9964-0.8734c0.2564-0.5161 0.2084-0.8707 0.1725-1.245-0.1851 0.1933-0.3099 0.299-0.3928 0.3438-0.1782-0.4531-0.2007-0.8811-0.2299-1.31-0.5368 0.3562-0.5296 0.7124-0.5174 1.069l-0.1246-0.4367c-0.1767 0.2003-0.3455 0.3851-0.5461 0.6318-0.1005 0.1949-0.197 0.3921-0.1725 0.6597l-0.6419 0.5947-0.08623-2.072c0.2831-0.7062 0.03184-1.44-0.4024-2.146 0.1629-0.07555 0.2137-0.1972 0.2491-0.3717 0.04771-0.2671-0.1924-0.4316-0.3737-0.4274-0.4134 0.3357-0.9401 0.5981-0.8431 1.264-0.1532 0.2447-0.3031 0.491-0.5557 0.6876-0.1387 0.2299-0.06809 0.7555 0.1533 1.031z"/>
   </g>
  </g>
  <path d="m6845 902.7-6.2 516.5-194.3 3.105 302.8 224.6 292.4-245.3-177.7 11.38-25.01-510.1z" fill="#737167"/>
  <path d="m6734 1740 426.5-0.082v120h-425.3z" fill="#737167"/>
 </g>
 <style type="text/css">.custom-controls {
height: 64px;
fill: #fff;
}

.control-icon {
opacity: 0;
animation: icon-fade-in-out 4s ease-in-out infinite;
animation-fill-mode: forwards;
}

.stop {
animation-delay: .3s;
}

.play {
animation-delay: .5s;
}

.gamepad {
animation-delay: .7s;
padding: 0 0 0 20px;
}

@keyframes icon-fade-in-out {
0% {
opacity: 0;
}

10% {
opacity: 1;
}

80% {
opacity: 1;
}

90% {
opacity: 0;
}

100% {
opacity: 0;
}
}</style>
</svg>
