<svg width="200" height="200" version="1.1" viewBox="1 0 33 42" xmlns="http://www.w3.org/2000/svg">
 <g transform="matrix(.2091 0 0 .21 -3.38 .1254)">
  <path d="m200 40.4s-7.1 3.3-7.1 12.6c-0.1 0 7.6-1.9 7.1-12.6z" enable-background="new    " fill="#f07e1a" opacity=".5"/>
  <g fill="#f07e1a" opacity=".5">
   <path d="m164.9 120.5c10.9-10.9 18.2-30.6 23-50.6 0.3-0.8 2.2-9 2.2-9s-5.1 5.7-6 6.6c-4.2 3.7-9.3 6.3-14.8 7.3-1.2 0.2-2.4-0.6-2.7-1.9-7.2-28.3 13.4-50 24.2-59.1 5.7-4.3 9-4.3 9-4.3s-9.7 0.1-10.9 0.3c-1.4 0.1-11.7 1-16.5 2.2-8 1.9-23.2 7.3-23.2 7.3-1.5 0.2 7.5-8 6-7.8-26 4.3-54.4 14.7-69.5 29.8-4 4-7.2 8.5-9.6 13.3-5.1 10.2-13.8 18.3-24.4 22.7-6.1 2.5-11.7 6.2-16.6 11.1-10.9 10.9-18.2 30.6-23 50.6-0.3 0.8-2.2 9-2.2 9s5.1-5.7 6-6.6c4.2-3.7 9.3-6.3 14.8-7.3 1.2-0.2 2.4 0.6 2.7 1.9 7.2 28.3-13.4 50-24.2 59.1-5.7 4.3-9 4.3-9 4.3s9.7-0.1 10.9-0.3c1.4-0.1 11.7-1 16.5-2.2 8-1.9 23.2-7.3 23.2-7.3 1.5-0.2-7.5 8-6 7.8 26-4.3 54.4-14.7 69.5-29.8 4-4 7.2-8.5 9.6-13.3 5.1-10.3 13.8-18.3 24.4-22.7 6.1-2.6 11.7-6.2 16.6-11.1z"/>
   <path d="m0 168.4s7.1-3.3 7.1-12.6c0.1 0-7.6 1.9-7.1 12.6z"/>
  </g>
  <path d="m119.5 137.7c3.1-6.7 8.6-11.9 15.1-15.4 2.9-1.6 5.6-3.6 8-6 14.5-14.5 19.9-51.9 21.6-68.9 0.3-1.4 0.3-9 0.3-9s-4.2 6.1-4.8 6.8c-7.1 7.6-20.8 18.8-38.3 14.9-1.4-0.3-2.3-1.7-2-3.1v-0.1c0.7-2.5 1.8-4.9 3.3-7 0.9-1.1 5.8-6.2 5.8-6.2-0.7-0.6-7.9 1.8-8.7 2.1-13 3.3-25.4 8.2-32.5 15.2-3 3-5.3 6.3-7 10-3.1 6.7-8.6 11.9-15.1 15.4-2.9 1.6-5.6 3.6-8 6-14.5 14.5-19.9 51.9-21.6 68.9-0.3 1.4-0.3 9-0.3 9s4.2-6.1 4.8-6.8c7.1-7.6 20.8-18.8 38.3-14.9 1.4 0.3 2.3 1.7 2 3.1v0.1c-0.7 2.5-1.8 4.9-3.3 7-0.9 1.1-5.8 6.2-5.8 6.2 0.7 0.6 7.9-1.8 8.7-2.1 13-3.3 25.4-8.2 32.5-15.2 3-3 5.3-6.4 7-10z" enable-background="new    " fill="#ffdb05" opacity=".5"/>
  <g fill="#fff">
   <path d="m129.1 98c0-0.1 0.1-0.3 0 0z" enable-background="new    " opacity=".5"/>
   <path d="m72.4 112.3c0 0.1-0.1 0.3 0 0z" enable-background="new    " opacity=".5"/>
   <path d="m110.6 127.4c1.3-1.4 2.4-3 3.3-4.6 1.9-3.7 4.5-6.8 7.5-9.7h0.1c3.7-4.3 6.3-9.5 7.7-15-0.1 0.2-0.1 0.3 0 0 1.6-5.1 1.9-6.5 0.1-5.5l-3.8 2.4c-0.3 0.1-0.8 0.3-1.1 0.3-1.4 0.1-2.4-1.1-2.5-2.5-0.6-6.4 1.7-12.7 6.2-17.2 0.6-0.6 6.9-5 6.9-5s-7.9 0.4-9.3 0.7c-10.3 1.3-27.4 4.4-34.5 11.5l-0.2 0.2c-1.3 1.4-2.4 3-3.3 4.6-1.9 3.7-4.5 6.8-7.5 9.7h-0.1c-3.7 4.3-6.3 9.5-7.7 15 0.1-0.2 0.1-0.3 0 0-1.6 5.1-1.9 6.5-0.1 5.5l3.8-2.4c0.3-0.1 0.8-0.3 1.1-0.3 1.4-0.1 2.4 1.1 2.5 2.5 0.6 6.4-1.7 12.7-6.2 17.2-0.6 0.6-6.9 5-6.9 5s7.9-0.4 9.3-0.7c10.3-1.3 27.4-4.4 34.5-11.5l0.2-0.2z" enable-background="new    " opacity=".5"/>
  </g>
  <g fill="#e52421">
   <polygon points="56.3 125 34.9 119.1 104.6 58.9 128.4 81.7 108.1 65.4"/>
   <polygon points="82.4 168.6 87.6 182.7 106.8 125"/>
   <polyline points="80.9 118.2 109.7 81.1 136.7 111 179.2 56.5 146.4 58.1 197.7 37.4 189.3 92 184.4 60.3 136.4 139.2 110.2 91.1 86 152.6"/>
  </g>
  <path d="m103.4 132.5c1.3 0 2.3-1.1 2.1-2.4-0.2-1.1-1.2-1.8-2.3-1.8h-10.3v-8.6h6.2c1.1 0 2.1-0.7 2.3-1.8 0.2-1.3-0.8-2.4-2.1-2.4h-6.4v-10.7h-10.7v-6.2c0-1.1-0.7-2.1-1.8-2.3-1.3-0.2-2.4 0.8-2.4 2.1v6.4h-8.6v-10.6c0-1.1-0.7-2.1-1.8-2.3-1.3-0.2-2.4 0.8-2.4 2.1v10.6h-8.6v-6.2c0-1.1-0.7-2.1-1.8-2.3-1.3-0.2-2.4 0.8-2.4 2.1v6.4h-8.6v-10.5c0-1.1-0.7-2.1-1.8-2.3-1.3-0.2-2.4 0.8-2.4 2.1v10.6h-8.6v-6.2c0-1.1-0.7-2.1-1.8-2.3-1.3-0.2-2.4 0.8-2.4 2.1v6.4h-10.9v10.7h-6.2c-1.1 0-2.1 0.7-2.3 1.8-0.2 1.3 0.8 2.4 2.1 2.4h6.4v8.6h-10.4c-1.1 0-2.1 0.7-2.3 1.8-0.2 1.3 0.8 2.4 2.1 2.4h10.6v8.6h-6.2c-1.1 0-2.1 0.7-2.3 1.8-0.2 1.3 0.8 2.4 2.1 2.4h6.4v8.6h-10.4c-1.1 0-2.1 0.7-2.3 1.8-0.2 1.3 0.8 2.4 2.1 2.4h10.6v8.6h-6.2c-1.1 0-2.1 0.7-2.3 1.8-0.2 1.3 0.8 2.4 2.1 2.4h6.4v10.7h10.7v6.2c0 1.1 0.7 2.1 1.8 2.3 1.3 0.2 2.4-0.8 2.4-2.1v-6.4h8.6v10.5c0 1.1 0.7 2.1 1.8 2.3 1.3 0.2 2.4-0.8 2.4-2.1v-10.6h8.6v6.2c0 1.1 0.7 2.1 1.8 2.3 1.3 0.2 2.4-0.8 2.4-2.1v-6.4h8.6v10.5c0 1.1 0.7 2.1 1.8 2.3 1.3 0.2 2.4-0.8 2.4-2.1v-10.6h8.6v6.2c0 1.1 0.7 2.1 1.8 2.3 1.3 0.2 2.4-0.8 2.4-2.1v-6.4h10.7v-10.5h6.2c1.1 0 2.1-0.7 2.3-1.8 0.2-1.3-0.8-2.4-2.1-2.4h-6.4v-8.6h10.4c1.1 0 2.1-0.7 2.3-1.8 0.2-1.3-0.8-2.4-2.1-2.4h-10.4v-8.6h6.2c1.1 0 2.1-0.7 2.3-1.8 0.2-1.3-0.8-2.4-2.1-2.4h-6.4v-8.6z" fill="#2b2b2f"/>
  <path d="m88.6 109v68.4h-68.4v-68.4z" fill="#89898b"/>
  <path d="m84.3 113.3h-59.8v59.9h59.9z" fill="#2b2b2f"/>
  <rect x="28.8" y="117.5" width="51.3" height="51.3" fill="#f3f3f3"/>
  <g fill="#e52421" stroke="#e30613" stroke-miterlimit="10">
   <path d="m167.2 22.3-1.1 1c-0.8-0.8-1.6-1.4-2.6-1.8s-1.8-0.6-2.7-0.6c-1.1 0-2.2 0.3-3.2 0.8s-1.8 1.3-2.3 2.2-0.8 1.9-0.8 2.9c0 1.1 0.3 2.1 0.9 3 0.6 1 1.4 1.7 2.4 2.2s2.1 0.8 3.3 0.8c1.4 0 2.7-0.4 3.7-1.2s1.6-1.9 1.8-3.2h-4.6v-1.4h6.1c0 2.2-0.7 3.9-1.9 5.2-1.3 1.3-3 1.9-5.1 1.9-2.6 0-4.7-0.9-6.2-2.7-1.2-1.4-1.8-2.9-1.8-4.7 0-1.3 0.3-2.6 1-3.7s1.6-2 2.8-2.7c1.2-0.6 2.5-1 4-1 1.2 0 2.3 0.2 3.4 0.6 0.9 0.8 1.9 1.5 2.9 2.4z"/>
   <path d="m170.7 19.9h1.4v5.9h7.2v-5.9h1.4v14.1h-1.4v-6.8h-7.2v6.8h-1.4z"/>
   <path d="m183.1 23.6h7.6l-5.9 9.2h5.7v1.2h-8l5.9-9.2h-5.3z"/>
  </g>
  <path d="m90.9 46.4c-5 3.9-10 7.7-15.1 11.4s-10.2 7.3-15.4 10.9-10.4 7.1-15.7 10.6-10.6 6.8-16 10.1c5-3.9 10-7.7 15.1-11.4s10.2-7.3 15.4-10.9 10.4-7.1 15.7-10.6c5.3-3.4 10.6-6.8 16-10.1z" fill="#e52421"/>
  <path d="m117.7 146.2c-0.5 3-1.2 5.9-2 8.8s-1.6 5.8-2.5 8.7-1.9 5.7-2.9 8.5-2.2 5.6-3.5 8.4c0.5-3 1.2-5.9 2-8.8s1.6-5.8 2.5-8.7 1.9-5.7 2.9-8.5c1.1-2.9 2.2-5.7 3.5-8.4z" fill="#e52421"/>
 </g>
</svg>
