<svg width="200" height="200" version="1.1" viewBox="1 0 33 42" xmlns="http://www.w3.org/2000/svg">
 <g transform="matrix(.2086 0 0 .21 -3.332 -.5019)">
  <path d="m200 39.7s-7.1 3.3-7.1 12.6c-0.1 0 7.6-1.9 7.1-12.6z" enable-background="new    " fill="#f07e1a" opacity=".5"/>
  <g fill="#f07e1a" opacity=".5">
   <path d="m164.9 119.7c10.9-10.9 18.2-30.6 23-50.6 0.3-0.8 2.2-9 2.2-9s-5.1 5.7-6 6.6c-4.2 3.7-9.3 6.3-14.8 7.3-1.2 0.2-2.4-0.6-2.7-1.9-7.2-28.3 13.4-50 24.2-59.1 5.7-4.3 9-4.3 9-4.3s-9.5 0.1-10.8 0.3c-1.4 0.1-11.7 1-16.5 2.2-8 1.9-23.2 7.3-23.2 7.3-1.5 0.2 7.5-8 6-7.8-26 4.3-54.4 14.7-69.5 29.8-4 4-7.2 8.5-9.6 13.3-5.2 10.3-13.9 18.3-24.5 22.7-6.1 2.5-11.7 6.2-16.6 11.1-10.9 10.9-18.2 30.6-23 50.6-0.3 0.8-2.2 9-2.2 9s5.1-5.7 6-6.6c4.2-3.7 9.3-6.3 14.8-7.3 1.2-0.2 2.4 0.6 2.7 1.9 7.2 28.3-13.4 50-24.2 59.1-5.7 4.3-9 4.3-9 4.3s9.7-0.1 10.9-0.3c1.4-0.1 11.7-1 16.5-2.2 8-1.9 23.2-7.3 23.2-7.3 1.5-0.2-7.5 8-6 7.8 26-4.3 54.4-14.7 69.5-29.8 4-4 7.2-8.5 9.6-13.3 5.1-10.3 13.8-18.3 24.4-22.7 6.1-2.5 11.7-6.2 16.6-11.1z"/>
   <path d="m0 167.6s7.1-3.3 7.1-12.6c0.1 0-7.6 1.9-7.1 12.6z"/>
  </g>
  <path d="m119.5 136.9c3.1-6.7 8.6-11.9 15.1-15.4 2.9-1.6 5.6-3.6 8-6 14.5-14.5 19.9-51.9 21.6-68.9 0.3-1.4 0.3-9 0.3-9s-4.2 6.1-4.8 6.8c-7.1 7.6-20.8 18.8-38.3 14.9-1.4-0.3-2.3-1.7-2-3.1v-0.1c0.7-2.5 1.8-4.9 3.3-7 0.9-1.1 5.8-6.2 5.8-6.2-0.7-0.6-7.9 1.8-8.7 2.1-13 3.3-25.4 8.2-32.5 15.2-3 3-5.3 6.3-7 10-3.1 6.7-8.6 11.9-15.1 15.4-2.9 1.6-5.6 3.6-8 6-14.5 14.5-19.9 51.9-21.6 68.9-0.3 1.4-0.3 9-0.3 9s4.2-6.1 4.8-6.8c7.1-7.6 20.8-18.8 38.3-14.9 1.4 0.3 2.3 1.7 2 3.1v0.1c-0.7 2.5-1.8 4.9-3.3 7-0.9 1.1-5.8 6.2-5.8 6.2 0.7 0.6 7.9-1.8 8.7-2.1 13-3.3 25.4-8.2 32.5-15.2 3-3 5.3-6.3 7-10z" enable-background="new    " fill="#ffdb05" opacity=".5"/>
  <g fill="#fff">
   <path d="m129.1 97.3c0-0.2 0.1-0.4 0 0z" enable-background="new    " opacity=".5"/>
   <path d="m72.4 111.5c0 0.1-0.1 0.3 0 0z" enable-background="new    " opacity=".5"/>
   <path d="m110.6 126.6c1.3-1.4 2.4-3 3.3-4.6 1.9-3.7 4.5-6.8 7.5-9.7h0.1c3.7-4.3 6.3-9.5 7.7-15-0.1 0.2-0.1 0.3 0 0 1.6-5.1 1.9-6.5 0.1-5.5l-3.8 2.4c-0.3 0.1-0.8 0.3-1.1 0.3-1.4 0.1-2.4-1.1-2.5-2.5-0.6-6.4 1.7-12.7 6.2-17.2 0.6-0.6 6.9-5 6.9-5s-7.9 0.4-9.3 0.7c-10.3 1.3-27.4 4.4-34.5 11.5-0.2 0-0.2 0.1-0.3 0.1-1.3 1.4-2.4 3-3.3 4.6-1.9 3.7-4.5 6.8-7.5 9.7h-0.1c-3.7 4.3-6.3 9.5-7.7 15 0.1-0.2 0.1-0.3 0 0-1.6 5.1-1.9 6.5-0.1 5.5l3.8-2.4c0.3-0.1 0.8-0.3 1.1-0.3 1.4-0.1 2.4 1.1 2.5 2.5 0.6 6.4-1.7 12.7-6.2 17.2-0.6 0.6-6.9 5-6.9 5s7.9-0.4 9.3-0.7c10.3-1.3 27.4-4.4 34.5-11.5 0.2 0.1 0.2 0 0.3-0.1z" enable-background="new    " opacity=".5"/>
  </g>
  <path d="m154.6 58.2-9 2.6c-0.2 0.2-0.2 0.5 0 0.7l2.9 1.2-13.7 14.9-6.7-6.2-1.9-1.8-1.7 1.9-25.3 27.4 1.9 1.8 25.3-27.4 6.5 6.4 1.9 1.8 15.7-17 1.4 3.5c0.2 0.2 0.5 0.2 0.7 0 0 0 2.6-8.5 2.6-9.1s-0.6-0.7-0.6-0.7z" fill="#2b2b2f"/>
  <rect x="50.5" y="79.2" width="12" height="75.1" fill="#e25d22"/>
  <rect x="65.2" y="86.7" width="12" height="67.6" fill="#e08f24"/>
  <rect x="94.8" y="124.2" width="12" height="30.1" fill="#98c33b"/>
  <rect x="80" y="64.2" width="12" height="90.2" fill="#e52421"/>
  <rect x="138.6" y="86.7" width="12" height="67.6" fill="#e25d22"/>
  <rect x="109.1" y="105.4" width="12" height="48.9" fill="#d0d830"/>
  <rect x="123.9" y="93.4" width="12" height="61" fill="#e08f24"/>
  <polygon points="41 167.6 158.7 167.6 158.7 161.6 41 161.6 41 47.6 35 47.6 35 167.6 38.7 167.6" fill="#2b2b2f"/>
  <path d="m109.1 69.6c2.6-3.3 5.5-6.4 8.4-9.3 1.5-1.5 3-2.9 4.5-4.4 1.5-1.4 3-2.9 4.6-4.3l0.7-0.6 0.6 0.7c0.6 0.7 1.1 1.5 1.6 2.3 0.5 0.7 1.1 1.5 1.6 2.3 1.1 1.5 2.1 3.1 3 4.7-1.4-1.3-2.7-2.6-3.9-4-0.6-0.7-1.3-1.4-1.9-2.1s-1.2-1.4-1.8-2.1l1.3 0.1c-1.5 1.5-2.9 3-4.4 4.4s-3 2.9-4.6 4.3c-3.2 2.7-6.3 5.5-9.7 8z" fill="#e52421"/>
  <path d="m51.9 52.4c1.2-0.4 2.4-0.5 3.5-0.5 1.2 0 2.4 0.1 3.5 0.5-1.2 0.4-2.4 0.5-3.5 0.5-1.2 0-2.3-0.1-3.5-0.5z" fill="#e52421"/>
  <path d="m65.2 59.9c1.4-0.4 2.8-0.5 4.3-0.5 1.4 0 2.8 0.1 4.3 0.5-1.4 0.4-2.8 0.5-4.3 0.5-1.4 0-2.8-0.1-4.3-0.5z" fill="#e52421"/>
  <path d="m80 43.4c1.7-0.4 3.4-0.5 5.2-0.5 1.7 0 3.4 0.1 5.2 0.5-1.7 0.4-3.4 0.5-5.2 0.5-1.7-0.1-3.5-0.1-5.2-0.5z" fill="#e52421"/>
  <path d="m96.8 75.6c1.2-0.4 2.5-0.5 3.7-0.5s2.5 0.1 3.7 0.5c-1.2 0.4-2.5 0.5-3.7 0.5s-2.4-0.1-3.7-0.5z" fill="#e52421"/>
 </g>
</svg>
