<svg width="139.7" height="156.1" version="1.1" viewBox="0 0 140 156" xmlns="http://www.w3.org/2000/svg">
 <defs>
  <linearGradient id="linearGradient1270" x1="30.49" x2="30.59" y1="10.92" y2="26.58" gradientTransform="matrix(7.581,0,0,7.849,-169.2,-84.79)" gradientUnits="userSpaceOnUse">
   <stop stop-color="#fe0802" offset="0"/>
   <stop stop-color="#fef200" offset="1"/>
  </linearGradient>
 </defs>
 <rect x="-.503" y="-.595" width="141" height="158" rx="0" ry="0" fill="#fff" style="paint-order:stroke fill markers"/>
 <rect x="24.75" y="14.87" width="94.57" height="101" rx="5.26" ry="5.545" clip-rule="evenodd" fill="#e3e3e3" fill-rule="evenodd" image-rendering="optimizeQuality" shape-rendering="geometricPrecision" style="paint-order:stroke fill markers"/>
 <g transform="matrix(.6975 0 0 .683 27.49 18.81)">
  <path d="m75.11 0.6332c-3.548 1.545-6.643 3.764-9.906 5.915-7.123 4.455-12.51 10.97-10.25 21.42 0.4693 3.528 1.861 7.991 0.9364 9.341-1.212-1.87-1.659-3.598-3.105-5.117-1.044 2.124-1.71 3.668-2.809 5.763-1.363-1.034-2.694-2.014-2.859-2.932-0.6359-6.293 1.11-14.62-2.415-19.53-2.806-4.149-14.51-9.957-17.94-9.938 0.03814 1.176 0.7533 3.069 1.972 5.567 2.059 3.213 7.461 6.516 6.901 10.73-1.202 7.287-3.218 14-6.308 21.47-3.079-3.492-3.929-6.784-3.45-9.591 1.011-2.77 5.446-8.161 8.723-11.83-1.573-1.739-3.013-3.079-4.387-4.224-4.958 3.39-7.297 9.072-9.167 14.31-4.762 7.272-8.789 15.31-8.873 27.43 0.6726 4.179 1.986 9.076 1.972 10.34-0.4631 0.9243-0.9029 1.873-1.183 2.982 0.6995 1.721 1.692 3.884 2.76 6.161-0.9829 3.465-0.8964 7.083-0.5915 10.73 2.711 10.5 6.359 17.42 18.34 31.21 1.402 1.463 7.093 4.888 9.843 5.265 9.411 1.306 19.43 3.661 29.2 1.429 3.557-0.7741 22.1-9.667 23.96-13.43 1.945-0.5074 8.375-16.11 7.782-28.85-0.9604-8.486-4.427-16.49-10.25-24.05 2.117-4.584 2.941-9.001 2.957-13.32-0.9174-0.02572-1.838 0.2016-2.76 0.5464 0.8712-2.797 1.32-6.179 0.9364-8.15-1.066-7.102-5.7-13.07-9.069-22.16 0.5606-2.853 1.737-5.011 2.711-7.454-1.751-0.9008-3.521-1.794-5.915-2.435-2.644 3.048-1.885 6.195-2.07 9.243-1.704 4.16-2.521 8.396-1.085 12.82 0.7403 4.107 3.129 7.794 1.873 12.37-0.9858 0.2941-1.528 0.1685-2.514-0.1983 0.1165-2.622 0.171-4.803-0.09864-7.552-2.071 1.192-3.073 2.989-4.238 4.572-5.002-6.41-6.035-12.79-6.111-18.53 0.2809-7.896 8.294-20.5 6.508-20.32zm-13.5 60.21c5.788 1.97 11.32 7.749 16.94 12.3 1.729 1.449 4.864 10.92 5.297 17.78-0.8243 3.595-2.892 6.581-5.534 12.01-4.074 4.13-8.174 8.036-12.62 8.853-8.374-0.1287-12.18-5.109-13.73-6.535l-5.852-7.172c-4.773-5.109-5.65-10.81-4.853-15.17l1.534-11.45c1.028-3.103 2.166-6.191 5.926-8.925 3.685-1.183 8.101-1.626 12.9-1.687z" fill="#605841"/>
  <path d="m81.15 0.06395c-3.548 1.545-6.643 3.764-9.906 5.915-7.123 4.455-12.51 10.97-10.25 21.42 0.4693 3.528 1.861 7.991 0.9364 9.341-1.212-1.87-1.659-3.598-3.105-5.117-1.044 2.124-1.71 3.668-2.809 5.763-1.363-1.034-2.694-2.014-2.859-2.932-0.6359-6.293 1.11-14.62-2.415-19.53-2.806-4.149-14.51-9.957-17.94-9.938 0.03814 1.176 0.7533 3.069 1.972 5.567 2.059 3.213 7.461 6.516 6.901 10.73-1.202 7.287-3.218 14-6.308 21.47-3.079-3.492-3.929-6.784-3.45-9.591 1.011-2.77 5.446-8.161 8.723-11.83-1.573-1.739-3.013-3.079-4.387-4.224-4.958 3.39-7.297 9.072-9.167 14.31-4.762 7.272-8.789 15.31-8.873 27.43 0.6726 4.179 1.986 9.076 1.972 10.34-0.4631 0.9243-0.9029 1.873-1.183 2.982 0.6995 1.721 1.692 3.884 2.76 6.161-0.9829 3.465-0.8964 7.083-0.5915 10.73 2.711 10.5 6.359 17.42 18.34 31.21 1.402 1.463 7.093 4.888 9.843 5.265 9.411 1.306 19.43 3.661 29.2 1.429 3.557-0.7741 22.1-9.667 23.96-13.43 1.945-0.5074 8.375-16.11 7.782-28.85-0.9604-8.486-4.427-16.49-10.25-24.05 2.117-4.584 2.941-9.001 2.957-13.32-0.9174-0.02572-1.838 0.2016-2.76 0.5464 0.8712-2.797 1.32-6.179 0.9364-8.15-1.066-7.102-5.7-13.07-9.069-22.16 0.5606-2.853 1.737-5.011 2.711-7.454-1.751-0.9008-3.521-1.794-5.915-2.435-2.644 3.048-1.885 6.195-2.07 9.243-1.704 4.16-2.521 8.396-1.085 12.82 0.7403 4.107 3.129 7.794 1.873 12.37-0.9858 0.2941-1.528 0.1685-2.514-0.1983 0.1165-2.622 0.171-4.803-0.09864-7.552-2.071 1.192-3.073 2.989-4.238 4.572-5.002-6.41-6.035-12.79-6.111-18.53 0.2809-7.896 8.294-20.5 6.508-20.32zm-13.5 60.21c5.788 1.97 11.32 7.749 16.94 12.3 1.729 1.449 4.864 10.92 5.297 17.78-0.8243 3.595-2.892 6.581-5.534 12.01-4.074 4.13-8.174 8.036-12.62 8.853-8.374-0.1287-12.18-5.109-13.73-6.535l-5.852-7.172c-4.773-5.109-5.65-10.81-4.853-15.17l1.534-11.45c1.028-3.103 2.166-6.191 5.926-8.925 3.685-1.183 8.101-1.626 12.9-1.687z" fill="url(#linearGradient1270)"/>
 </g>
 <g transform="matrix(.2938 0 0 .3128 64.31 66.25)" clip-rule="evenodd" fill="#fe5a01" fill-rule="evenodd" image-rendering="optimizeQuality" shape-rendering="geometricPrecision" stroke-linejoin="round" stroke-width="14.97" style="paint-order:stroke fill markers">
  <path d="m62.87 72.08-13.71 13.56-33.47-12.16 0.2962 35.58 46.8 17.64 47.4-17.03v-40.44l14.81-6.081-15.4-16.12-18.37-6.385 0.2962 5.816 11.26 3.914-39.7 15.06-39.1-14.45 11.26-4.257v-6.385l-19.25 7.906-15.11 15.2 47.4 17.64 14.81-15.2 14.81 15.2 27.25-10.03 0.2962 34.36-42.06 15.51z" fill="#fe5a01" stroke="#fef200" stroke-linejoin="round" stroke-width="14.97" style="paint-order:stroke fill markers"/>
  <g clip-rule="nonzero" fill-rule="nonzero" shape-rendering="auto">
   <path d="m65.98-2.006c-1.721-0.6463-3.62-0.6366-5.334 0.02734l-24.55 9.506c-2.847 1.102-4.739 3.824-4.781 6.877l-0.4199 31.07c-0.04189 3.119 1.856 5.938 4.762 7.072l24.51 9.568c1.725 0.6734 3.639 0.6831 5.371 0.02734l25.16-9.525c2.907-1.101 4.831-3.884 4.834-6.992l0.02539-31.33c-0.0045-0.02281-9e-3 -0.0456-0.01367-0.06836-0.01033-0.06003-0.0214-0.1199-0.0332-0.1797-0.07541-1.274-0.4755-2.508-1.162-3.584-0.1371-0.2433-0.2877-0.4787-0.4512-0.7051-0.7878-1.03-1.83-1.838-3.023-2.344-0.05601-0.04443-0.1127-0.08805-0.1699-0.1309z" color="#000000" fill="#fef200" style="-inkscape-stroke:none"/>
   <path d="m84.01 15.66 4.07-1.372-0.0244 31.33-25.16 9.524-24.51-9.568 0.4189-31.07 24.55-9.506 24.73 9.284-24.86 10.13-0.1594 25.81 20.95-7.963z" color="#000000" style="-inkscape-stroke:none"/>
  </g>
  <path d="m68.37 114-0.3049-32.08c5.583 3.539 21.49-2.615 32.32-4.01l1.525 24.63z" fill="#fef200"/>
 </g>
 <g transform="translate(-21.04 -9.211)" aria-label="UltraISO-Install.exe">
  <path d="m108.3 147.3h-1.552v-1.851h1.552z"/>
  <path d="m117.1 143.8h-5.345q0 0.6689 0.2013 1.169 0.2013 0.4936 0.552 0.8118 0.3377 0.3117 0.7988 0.4676 0.4676 0.1559 1.026 0.1559 0.7403 0 1.487-0.2922 0.7533-0.2987 1.072-0.5845h0.0649v1.331q-0.6169 0.2598-1.26 0.4351t-1.351 0.1753q-1.805 0-2.818-0.9741-1.013-0.9806-1.013-2.779 0-1.779 0.9676-2.825 0.9741-1.046 2.559-1.046 1.468 0 2.26 0.8572 0.7988 0.8572 0.7988 2.435zm-1.188-0.9352q-6e-3 -0.9611-0.4871-1.487-0.4741-0.526-1.448-0.526-0.9806 0-1.565 0.578-0.578 0.578-0.6559 1.435z"/>
  <path d="m125 147.3h-1.539l-2.059-2.786-2.072 2.786h-1.422l2.831-3.617-2.805-3.637h1.539l2.046 2.741 2.052-2.741h1.429l-2.851 3.572z"/>
  <path d="m132.3 143.8h-5.345q0 0.6689 0.2013 1.169 0.2013 0.4936 0.552 0.8118 0.3377 0.3117 0.7988 0.4676 0.4676 0.1559 1.026 0.1559 0.7403 0 1.487-0.2922 0.7533-0.2987 1.072-0.5845h0.0649v1.331q-0.6169 0.2598-1.26 0.4351t-1.351 0.1753q-1.805 0-2.818-0.9741-1.013-0.9806-1.013-2.779 0-1.779 0.9676-2.825 0.9741-1.046 2.559-1.046 1.468 0 2.26 0.8572 0.7988 0.8572 0.7988 2.435zm-1.188-0.9352q-6e-3 -0.9611-0.4871-1.487-0.4741-0.526-1.448-0.526-0.9806 0-1.565 0.578-0.578 0.578-0.6559 1.435z"/>
 </g>
 <g transform="matrix(.9661 0 0 1.035 0 -10.39)" stroke-width=".3259" aria-label="FurMark">
  <path d="m39.19 135h-4.793v2.673h4.118v1.12h-4.118v4.564h-1.26v-9.477h6.053z"/>
  <path d="m46.43 143.4h-1.197v-0.7892q-0.6047 0.4774-1.158 0.732-0.5537 0.2546-1.222 0.2546-1.12 0-1.744-0.681-0.6238-0.6874-0.6238-2.011v-4.615h1.197v4.048q0 0.541 0.05092 0.9293 0.05092 0.3819 0.2164 0.6556 0.1719 0.28 0.4455 0.4074 0.2737 0.1273 0.7956 0.1273 0.4646 0 1.012-0.2419 0.5537-0.2419 1.031-0.6174v-5.308h1.197z"/>
  <path d="m53.22 137.6h-0.06365q-0.2673-0.0636-0.5219-0.0891-0.2482-0.0318-0.5919-0.0318-0.5537 0-1.069 0.2482-0.5156 0.2419-0.9929 0.6301v5.047h-1.197v-7.11h1.197v1.05q0.7129-0.5728 1.254-0.8083 0.5474-0.2419 1.114-0.2419 0.3119 0 0.4519 0.0191 0.14 0.0127 0.4201 0.0573z"/>
  <path d="m62.88 143.4h-1.26v-8.166l-2.635 5.557h-0.7511l-2.616-5.557v8.166h-1.177v-9.477h1.719l2.527 5.276 2.444-5.276h1.75z"/>
  <path d="m70.86 143.4h-1.19v-0.7574q-0.1591 0.1082-0.4328 0.3055-0.2673 0.1909-0.5219 0.3055-0.2991 0.1464-0.6874 0.2419-0.3883 0.1018-0.9102 0.1018-0.9611 0-1.629-0.6365-0.6683-0.6365-0.6683-1.623 0-0.8083 0.3437-1.305 0.3501-0.5028 0.9929-0.7892 0.6492-0.2864 1.559-0.3883 0.9102-0.1018 1.954-0.1528v-0.1846q0-0.4074-0.1464-0.6747-0.14-0.2673-0.4074-0.4201-0.2546-0.1464-0.611-0.1973t-0.7447-0.0509q-0.471 0-1.05 0.1273-0.5792 0.1209-1.197 0.3564h-0.06365v-1.216q0.3501-0.0955 1.012-0.21 0.6619-0.1146 1.305-0.1146 0.7511 0 1.305 0.1273 0.5601 0.1209 0.9675 0.4201 0.401 0.2928 0.611 0.7574t0.21 1.152zm-1.19-1.75v-1.979q-0.5474 0.0318-1.292 0.0955-0.7383 0.0636-1.171 0.1846-0.5156 0.1464-0.8338 0.4583-0.3182 0.3055-0.3182 0.8465 0 0.611 0.3692 0.9229 0.3692 0.3055 1.127 0.3055 0.6301 0 1.152-0.2419 0.5219-0.2482 0.9675-0.5919z"/>
  <path d="m77.6 137.6h-0.06365q-0.2673-0.0636-0.5219-0.0891-0.2482-0.0318-0.5919-0.0318-0.5537 0-1.069 0.2482-0.5156 0.2419-0.9929 0.6301v5.047h-1.197v-7.11h1.197v1.05q0.7129-0.5728 1.254-0.8083 0.5474-0.2419 1.114-0.2419 0.3119 0 0.4519 0.0191 0.14 0.0127 0.4201 0.0573z"/>
  <path d="m85.18 143.4h-1.578l-2.851-3.112-0.7765 0.7383v2.374h-1.197v-9.904h1.197v6.352l3.456-3.558h1.508l-3.303 3.284z"/>
 </g>
</svg>
