<svg version="1.1" viewBox="0 0 304.3 89.04" xmlns="http://www.w3.org/2000/svg" xmlns:xlink="http://www.w3.org/1999/xlink">
 <defs>
  <linearGradient id="linearGradient8111">
   <stop stop-color="#fef200" offset="0"/>
   <stop stop-color="#fb0501" offset="1"/>
  </linearGradient>
  <linearGradient id="linearGradient1270" x1="30.49" x2="30.59" y1="10.92" y2="26.58" gradientTransform="matrix(.9738 0 0 1.007 -.1223 -.1678)" gradientUnits="userSpaceOnUse">
   <stop stop-color="#fe0802" offset="0"/>
   <stop stop-color="#fef200" offset="1"/>
  </linearGradient>
  <linearGradient id="linearGradient8113" x1="17.79" x2="17.91" y1="39.05" y2="31.56" gradientUnits="userSpaceOnUse" xlink:href="#linearGradient8111"/>
 </defs>
 <g transform="matrix(4.762 0 0 4.762 -102.4 -45.35)" stroke-width=".1889">
  <path d="m32.03 10.72c-0.4557 0.1982-0.8532 0.4828-1.272 0.7587-0.9149 0.5714-1.606 1.407-1.317 2.748 0.06028 0.4525 0.2391 1.025 0.1203 1.198-0.1557-0.2399-0.2131-0.4615-0.3988-0.6563-0.1341 0.2725-0.2197 0.4705-0.3609 0.7393-0.1751-0.1326-0.3461-0.2584-0.3672-0.3761-0.08168-0.8072 0.1425-1.875-0.3102-2.505-0.3604-0.5321-1.864-1.277-2.304-1.275 0.0049 0.1509 0.09676 0.3936 0.2532 0.7141 0.2644 0.4121 0.9583 0.8358 0.8864 1.377-0.1544 0.9348-0.4133 1.796-0.8102 2.754-0.3954-0.448-0.5046-0.8703-0.4431-1.23 0.1299-0.3553 0.6995-1.047 1.12-1.517-0.2021-0.223-0.387-0.395-0.5635-0.5418-0.6369 0.4348-0.9373 1.164-1.177 1.836-0.6116 0.9328-1.129 1.964-1.14 3.519 0.08639 0.536 0.2551 1.164 0.2532 1.326-0.05948 0.1186-0.116 0.2402-0.1519 0.3825 0.08985 0.2207 0.2173 0.4982 0.3545 0.7902-0.1262 0.4444-0.1151 0.9086-0.07597 1.377 0.3481 1.347 0.8167 2.235 2.355 4.003 0.1801 0.1877 0.911 0.627 1.264 0.6754 1.209 0.1675 2.495 0.4696 3.751 0.1833 0.4569-0.0993 2.839-1.24 3.077-1.723 0.2498-0.06509 1.076-2.067 0.9995-3.7-0.1234-1.089-0.5686-2.115-1.317-3.085 0.2719-0.5879 0.3777-1.155 0.3798-1.709-0.1178-0.0033-0.2361 0.02586-0.3545 0.07009 0.1119-0.3588 0.1696-0.7926 0.1203-1.045-0.137-0.911-0.7322-1.676-1.165-2.843 0.072-0.3659 0.2232-0.6427 0.3482-0.9561-0.2248-0.1155-0.4522-0.2301-0.7597-0.3123-0.3395 0.3909-0.2422 0.7946-0.2659 1.186-0.2189 0.5336-0.3238 1.077-0.1393 1.644 0.09509 0.5268 0.4019 0.9998 0.2406 1.587-0.1266 0.03773-0.1962 0.02161-0.3229-0.02544 0.01496-0.3364 0.02196-0.6161-0.01267-0.9687-0.266 0.1529-0.3947 0.3834-0.5443 0.5865-0.6425-0.8222-0.7752-1.641-0.785-2.377 0.03608-1.013 1.065-2.63 0.8359-2.607zm-1.734 7.723c0.7434 0.2527 1.454 0.994 2.176 1.578 0.2221 0.1859 0.6247 1.401 0.6803 2.281-0.1059 0.4612-0.3715 0.8442-0.7108 1.54-0.5233 0.5297-1.05 1.031-1.62 1.136-1.076-0.01651-1.565-0.6554-1.764-0.8382l-0.7516-0.9199c-0.613-0.6554-0.7257-1.386-0.6234-1.946l0.197-1.469c0.132-0.398 0.2782-0.7941 0.7611-1.145 0.4733-0.1517 1.041-0.2086 1.656-0.2164z" fill="url(#linearGradient1270)"/>
  <g transform="matrix(1.08 0 0 1.09 42.45 -20.29)" fill="url(#linearGradient8113)" stroke-linecap="round" stroke-linejoin="round">
   <path d="m-2.639 39.14v-4.804c0.03856-0.1591-0.05693-0.35-0.1437-0.5389 0.13-0.3912 0.3986-0.6479 0.6515-0.9199 0.09959-0.2874-0.04397-0.6688-0.1629-1.004 0.2752 0.07796 0.5453 0.206 0.7952 0.5296 0.03178 0.2742 0.1366 0.5129 0.02874 0.8548 0.1519-0.04086 0.2882-0.07663 0.3641-0.09292l0.3258-0.09292c-0.2414-0.2137-0.323-0.4274-0.3353-0.6411 0.06224-0.1862 0.2768-0.2837 0.4599-0.3995 0.00451 0.5511 0.2045 0.632 0.3545 1.069 0.1493-0.1057 0.2557-0.2322 0.3545-0.3624 0.03826 0.1117 0.1104 0.08223 0.2108 0.158 0.1275-0.107 0.2256-0.2282 0.2012-0.4088 0.02407-0.1822-0.04346-0.3682-0.412-0.5668-0.1585-0.116 0.3298-0.2162 0.6132-0.1951 0.41 0.1029 0.4213 0.4438 0.5174 0.734-0.03101 0.1515-0.01354 0.3218-0.1629 0.4274 0.06903 0.116 0.1362 0.2247 0.2299 0.4367 0.0528 0.0754 0.07469 0.1636 0.2108 0.2044-0.03665-0.1951 0.03391-0.3282 0.1246-0.4739l0.4311-0.04646-0.1533-0.5203c-0.0095-0.3035 0.1842-0.4755 0.3162-0.6876l0.3832 0.9199c0.2235 0.2013 0.2864 0.4913 0.3449 0.7155 0.00451 0.1889 0.03294 0.3407-0.1054 0.5296-0.1142 0.1472-0.08448 0.5342-0.1054 0.8455h-3.44l-0.00958 1.087 1.725-0.01858c0.0861 0.3082 0.1564 0.6241 0.1916 0.957l-1.964 0.03717-0.01916 2.267z"/>
   <path d="m3.503 35.23-0.2108-0.9663c-0.2404-0.2675-0.04802-0.5544 0.07665-0.8455 0.1377-0.1806 0.2969-0.2358 0.4599-0.2695-0.0343 0.3874-0.1056 0.7354 0.1054 1.384 0.07995 0.1792 0.1942 0.3089 0.3162 0.4274l0.1054-0.2137 0.3737 0.1951c0.01004-0.4254-0.2065-0.8344-0.3449-1.236 0.306 0.1306 0.6497 0.2247 0.7856 0.5203l0.08623 1.161c-0.2407 0.6037-0.07004 1.307-0.02874 1.979 0.02697 0.1753 0.07479 0.4091 0.3737 0.446 0.1476 0.0024 0.2572-0.2364 0.3066-0.5389 0.04696-0.5165 0.0488-1.048 0.01916-1.589l-0.1916-0.3438 0.2204-0.2137-0.3162-0.9942c0.01018-0.5817 0.3512-0.8518 0.6036-1.199l0.06707 1.217c0.3091-0.03041 0.4409 0.03603 0.4695 0.07433 0.2585 0.03149 0.4495 0.1362 0.6323 0.4367 0.05093 0.3318 0.1406 0.6287-0.00959 0.9849 0.01477 0.3443 0.0687 0.7341 0.2108 1.226 0.04473 0.2849 0.1588 0.8922-0.3353 1.477-0.2982 0.3154-0.6154 0.52-0.9389 0.6876-0.2701 0.1838-1.332 0.2229-1.6 0.09292-1.259-0.8404-1.121-1.662-1.341-2.509l-0.2299-0.7805-0.182-0.381c0.05769-0.192 0.1253-0.3841 0.2587-0.5761z"/>
   <path d="m7.819 34.62c0.00451 0.2892 0.00904 0.5783 0.01355 0.8673 0.252 0.2378 0.564 0.3578 0.4878 0.8804l0.2845 2.786h1.836l-0.0067-2.142c0.04689-0.3093 0.4178-0.4168 0.9078-0.4862 0.1083-0.0105 0.4965 0.2204 0.6707 0.4796 0.0366-0.3092 0.05291-0.5965 0.1965-0.9921-0.8087-0.6255-1.438-0.5117-1.958 0.05256-0.07579-0.1819-0.0045-0.4522 0.02031-0.6504 0.1092-0.781-0.04435-1.204-0.6436-1.656 0.0334 0.4065-0.0141 0.7715-0.08807 1.143-0.09939-0.3258-0.253-0.2611-0.3455-0.1314-0.1189-0.6928-0.1542-1.364-0.07453-2.004-0.3815 0.2426-0.6112 0.6174-0.8875 0.979 0.06393 0.4057 0.02476 0.7465 0.1219 1.281-0.1943-0.1743-0.3769-0.3204-0.5352-0.4074z"/>
   <path d="m13.17 36.17c0.1387-0.03899 0.3809 0.111 0.4607 0.2497l-0.271 0.3417c0.02753 0.1305 0.03184 0.3284 0.1761 0.3942l1.192-2.641 0.06097-1.196c0.07258-0.1778 0.1602-0.2678 0.2507-0.3416l0.08808-0.4468 0.4675-0.1577 0.06775-0.6505c0.1501-0.03646 0.3061-0.02221 0.4742 0.09855l0.01355 0.6833c-0.02311 0.3044 0.02321 0.6462 0.1626 1.038 0.1068 0.3101 0.2497 0.6418 0.149 0.749 0.2716 0.7389 0.6149 1.641 0.8333 2.122l0.7791-2.05c-0.1249-0.4792-0.1269-0.747 0.271-1.084 0.101-0.1927 0.0041-0.3855-0.02711-0.5782 0.09989-0.3487 0.3537-0.544 0.542-0.7556 0.1605 0.32 0.1374 0.7939 0.1965 1.229 0.3049-0.3287 0.5797-0.1108 0.5826 0.07884-0.218 0.2643-0.136 0.4205-0.0841 0.5419l1.125 2.851 0.1857-0.5945c0.09123-0.0114 0.1986 0.0084 0.3658 0.1445l-0.1761 0.8147 0.2303-0.8804c0.1219-0.03899 0.2439-0.03039 0.3658 0.07884-0.0668 0.2925-0.1348 0.5823-0.02711 1.261 0.01489 0.3176-0.09454 1.043 0 1.537l-1.721 0.03238-0.8768-2.453-1.239 2.468-1.274-0.0077-1.072-2.483-1.06 2.522-1.687-0.1183c-0.5404-0.7208-0.04371-0.9699 0.1152-1.432-0.2426-0.4555-0.2437-0.9111 0.3591-1.367z"/>
   <path d="m24.02 33.28c-0.4785 0.1491-0.7647 0.4537-1.03 0.7753-0.04325 0.2894-0.02835 0.7196 0 1.183-0.1634-0.04359-0.3063-0.2061-0.4336-0.4598-0.08659 0.2716-0.1736 0.5431-0.1897 0.8147 0.0055 0.1306 0.0471 0.2891 0.2303 0.4337-0.5163 0.3833-0.9277 1.87 0.4065 2.576 0.4739 0.2063 1.464 0.4587 2.737 0.09194v0.46l1.789-0.2892-0.4201-4.165-1.648-0.04409-0.03235 0.8982c-0.0194-1.045-0.4524-1.045-0.915-1.74-0.1758 0.3492 0.4084 0.689 0.2567 1.187-0.1184-0.04354-0.2826-0.2682-0.4257-0.4197-0.0096 0.1444-0.01254 0.2901 0.04072 0.4468-0.4066-0.265-0.6533-0.5411-0.5556-0.8411 0.07944-0.1924 0.1327-0.5591 0.1897-0.9066zm1.15 2.927c0.1263 0.0011 0.2555 0.01074 0.3812 0.01005l0.04734 1.485c-0.02994 0.1951-0.1062 0.2252-0.1896 0.23-0.5577-0.1271-1.144-0.3076-1.145-0.6964 0.02887-0.3202 0.0186-0.6547 0.3253-0.8739 0.1674-0.1342 0.3703-0.1564 0.5808-0.1546z"/>
   <path d="m28.49 39.1 1.822 0.0657 0.02031-2.208c0.3577-0.2017 0.621-0.4163 0.8673-0.4098 0.1691 0.0045 0.3012 0.1028 0.5893 0.423 0.1647-0.071 0.2085-0.5582 0.2236-0.8673-0.2024-0.3161-0.9784-0.5057-1.098-0.4599-0.2025 0.03893-0.542 0.1862-0.7927 0.4336-0.02586-0.2791-0.06405-0.5866 0.09485-0.8147-0.02887-0.8822-0.3986-1.265-0.7046-1.485-0.1717 0.3229 0.02409 0.7527-0.1016 1.11l-0.1558-0.3022-0.149 0.23c0.03169-0.3402 0.0078-0.6355-0.1761-0.8016-0.0498-0.3532 0.04691-0.685 0.1694-1.078-0.3717-0.1804-0.8618 0.6806-0.9146 0.8344-0.02275 0.3766-0.07754 0.7565 0.0067 1.202-0.2182-0.06357-0.3031-0.2824-0.4404-0.4402-0.2021 0.2985-0.1564 0.632-0.07452 0.8738 0.178 0.266 0.5788 0.4055 0.4268 0.8935z"/>
   <path d="m32.08 39.18 1.993-0.05575 0.09581-1.292 1.619 1.384c0.4333-0.07961 0.9266-0.3919 1.408-0.6597 0.2643-0.1962 0.4859-0.4172 0.6228-0.6876l-0.2491-0.8084c-0.08594-0.1364-0.04681-0.4775-0.03831-0.6597-0.1424-0.1696-0.5174 0.06504-0.5174 0.06504-0.08645 0.2493-0.1777 0.4978-0.115 0.7712l-0.5365-0.6597c-0.1595 0.2291 0.1967 0.6508 0.06707 1.05l-0.9294-0.6783 0.9964-0.8734c0.2564-0.5161 0.2084-0.8707 0.1725-1.245-0.1851 0.1933-0.3099 0.299-0.3928 0.3438-0.1782-0.4531-0.2007-0.8811-0.2299-1.31-0.5368 0.3562-0.5296 0.7124-0.5174 1.069l-0.1246-0.4367c-0.1767 0.2003-0.3455 0.3851-0.5461 0.6318-0.1005 0.1949-0.197 0.3921-0.1725 0.6597l-0.6419 0.5947-0.08623-2.072c0.2831-0.7062 0.03184-1.44-0.4024-2.146 0.1629-0.07555 0.2137-0.1972 0.2491-0.3717 0.04771-0.2671-0.1924-0.4316-0.3737-0.4274-0.4134 0.3357-0.9401 0.5981-0.8431 1.264-0.1532 0.2447-0.3031 0.491-0.5557 0.6876-0.1387 0.2299-0.06809 0.7555 0.1533 1.031z"/>
  </g>
 </g>
 <text x="95.810989" y="79.910217" fill="#feec00" font-family="sans-serif" font-size="13px" font-weight="bold" style="line-height:1.25" xml:space="preserve"><tspan x="95.810989" y="79.910217" fill="#feec00" font-family="Arial" font-size="13px" font-weight="900">НЕОФИЦИАЛЬНЫЙ САЙТ</tspan></text>
</svg>
