<svg version="1.1" viewBox="0 0 182.4 53.66" xmlns="http://www.w3.org/2000/svg" xmlns:xlink="http://www.w3.org/1999/xlink">
 <defs>
  <linearGradient id="linearGradient3345" x1="140.4" x2="139.3" y1="50.95" y2="2.215" gradientUnits="userSpaceOnUse">
   <stop stop-color="#fef200" offset="0"/>
   <stop stop-color="#fe0902" offset="1"/>
  </linearGradient>
  <linearGradient id="linearGradient19058" x1="32.04" x2="32.18" y1="43.92" y2="4.841" gradientUnits="userSpaceOnUse">
   <stop stop-color="#fee700" offset="0"/>
   <stop stop-color="#fb1c01" offset="1"/>
  </linearGradient>
 </defs>
 <path d="m132.6 31.91s-0.6208 3.144 1.412 5.313c1.298 1.386 4.256-0.114 6.714-1.794-0.4687-0.564-0.8071-1.236-0.9716-1.971-5.15 0.513-7.155-1.548-7.155-1.548zm3.883-8.018s-2.738 1.797-2.887 4.722c-0.0962 1.872 3.11 2.835 6.084 3.324 0.0869-0.7469 0.3508-1.443 0.7543-2.043-4.045-3.165-3.952-6.002-3.952-6.002zm8.608-3.015s-3.253-0.5999-5.497 1.365c-1.44 1.26 0.1335 4.146 1.884 6.527 0.5774-0.45 1.263-0.7739 2.015-0.9359-0.5463-5.01 1.599-6.956 1.599-6.956zm-1.884-3.732h0.686c-0.0559-0.255-0.0497-0.504-0.0497-0.504s-0.267 0.246-0.6363 0.504zm0.8319 20.03c-0.7822-0.07799-1.512-0.336-2.139-0.7289-3.262 3.87-6.18 3.78-6.18 3.78s1.862 2.646 4.886 2.79c1.931 0.09599 2.924-2.979 3.433-5.84zm-28.1-20.03h0.686c-0.0559-0.255-0.0497-0.504-0.0497-0.504s-0.267 0.246-0.6363 0.504zm35.76 1.794h-41.86c-2.918 0-7.692 2.106-8.781 4.779 2.713-1.284 6.782-1.956 9.381-1.956h0.3228c1.915-1.026 4.141-1.707 6.519-1.707s4.606 0.6809 6.519 1.707h14.23c1.915-1.026 4.141-1.707 6.519-1.707s4.606 0.6809 6.519 1.707h0.0341c2.598 0 6.668 0.6719 9.381 1.956-1.09-2.673-5.864-4.779-8.781-4.779zm-42.35-1.794h5.454c0.5308-0.255 1.114-1.275 1.751-1.77-2.455 0.171-5.24 0.8699-7.22 1.71 6e-3 0 9e-3 0.05999 0.0155 0.05999zm40.16 25.47c1.431-1.254-0.1148-4.11-1.853-6.485-0.5836 0.462-1.279 0.7949-2.039 0.9599 0.5215 4.962-1.605 6.89-1.605 6.89s3.25 0.5999 5.497-1.365zm-24.33-29.11s-3.253-0.54-5.497 1.425c-0.5743 0.504-0.6674 1.446-0.4625 2.214h4.417c0.4097-2.307 1.543-3.639 1.543-3.639zm23.31 8.33c-1.943-0.09299-2.94 3.03-3.446 5.912 0.7698 0.07499 1.49 0.327 2.111 0.7079 3.278-3.918 6.217-3.828 6.217-3.828s-1.856-2.649-4.883-2.793zm8.009 11.11s0.6208-3.144-1.412-5.313c-1.304-1.392-4.287 0.129-6.751 1.821 0.4749 0.558 0.8164 1.221 0.9902 1.947 5.165-0.522 7.174 1.545 7.174 1.545zm-11.95 3.681c2.381 0 4.312-1.866 4.312-4.167s-1.931-4.167-4.312-4.167-4.312 1.866-4.312 4.167c0 2.304 1.931 4.167 4.312 4.167zm-39.22-4.719s-0.6208 3.144 1.412 5.313c1.298 1.386 4.256-0.114 6.714-1.794-0.4687-0.564-0.8071-1.236-0.9716-1.971-5.15 0.513-7.155-1.548-7.155-1.548zm15.9-10.07c-1.943-0.09299-2.94 3.03-3.446 5.912 0.7698 0.07499 1.49 0.327 2.111 0.7079 3.278-3.918 6.217-3.828 6.217-3.828s-1.856-2.649-4.883-2.793zm-3.948 14.79c2.381 0 4.312-1.866 4.312-4.167s-1.931-4.167-4.312-4.167-4.312 1.866-4.312 4.167c0 2.304 1.931 4.167 4.312 4.167zm11.96-3.681s0.6208-3.144-1.412-5.313c-1.304-1.392-4.287 0.129-6.751 1.821 0.4749 0.558 0.8164 1.221 0.9902 1.947 5.165-0.522 7.174 1.545 7.174 1.545zm-13.14-23.98c2.713-1.284 6.782-1.83 9.381-1.83h0.3228c1.915-1.539 4.141-1.707 6.519-1.707s4.606 0.168 6.519 1.707h14.23c1.915-1.539 4.141-1.707 6.519-1.707s4.606 0.168 6.519 1.707h0.0341c2.598 0 6.668 0.543 9.381 1.83-1.09-2.673-5.864-4.908-8.781-4.908h-41.86c-2.918 0-7.692 2.235-8.781 4.908zm39.41 27.27c0.0962-1.869-3.107-2.832-6.081-3.324-0.0745 0.7529-0.3321 1.455-0.7295 2.064 4.014 3.156 3.924 5.978 3.924 5.978s2.738-1.794 2.887-4.719zm-46.3-12.35s-2.738 1.797-2.887 4.722c-0.0962 1.872 3.11 2.835 6.084 3.324 0.0838-0.7469 0.3508-1.443 0.7543-2.043-4.042-3.165-3.952-6.002-3.952-6.002zm13.03 18.72c1.431-1.254-0.1148-4.11-1.853-6.485-0.5836 0.462-1.279 0.7949-2.039 0.9599 0.5215 4.962-1.605 6.89-1.605 6.89s3.253 0.5999 5.497-1.365zm3.113-1.653s2.738-1.8 2.887-4.722c0.0962-1.869-3.107-2.832-6.081-3.324-0.0745 0.7529-0.3321 1.455-0.7295 2.064 4.017 3.159 3.924 5.981 3.924 5.981zm-8.586-3.786c-0.7822-0.07799-1.512-0.336-2.139-0.7289-3.262 3.87-6.18 3.78-6.18 3.78s1.859 2.646 4.886 2.79c1.931 0.09599 2.924-2.979 3.433-5.84zm14.86-4.644c0-3.954 1.906-7.694 4.873-9.746h-11.17c2.968 2.052 4.873 5.792 4.873 9.746s-1.906 7.694-4.873 9.746h11.17c-2.968-2.052-4.873-5.792-4.873-9.746zm-19.3-10.29c-1.44 1.26 0.1366 4.146 1.884 6.527 0.5774-0.45 1.263-0.7739 2.015-0.9359-0.5494-5.013 1.596-6.959 1.596-6.959s-3.25-0.5969-5.494 1.368zm-11.32 17.64c1.856 1.092 5.292 2.055 8.229 2.289-2.927-2.289-4.904-5.786-4.904-9.71 0-3.927 1.962-7.427 4.895-9.716-2.936 0.207-6.363 1.077-8.22 2.169zm33.56-22.74h7.425c0.5618-0.513 1.189-1.284 1.875-1.794h-11.17c0.686 0.51 1.313 1.281 1.875 1.794zm16.5 25.91c-1.915 1.539-4.141 1.707-6.519 1.707s-4.606-0.168-6.519-1.707h-14.23c-1.915 1.539-4.141 1.707-6.519 1.707s-4.606-0.168-6.519-1.707h-0.3228c-2.598 0-6.668-0.543-9.381-1.83 1.09 2.673 5.864 4.908 8.781 4.908h41.86c2.918 0 7.692-2.232 8.781-4.908-2.713 1.284-6.782 1.83-9.381 1.83zm6.394-10.59c0 3.906-1.602 7.394-4.507 9.683 2.874-0.273 6.177-1.209 8.3-2.259v-14.97c-2.123-1.053-5.432-1.899-8.31-2.145 2.915 2.289 4.516 5.78 4.516 9.692zm-57.91-18.65h2.381c1.257 0 2.17 0.048 2.716 0.6209 0.6705 0.7049 0.7388 1.539 0.7388 1.542 0.0587 0.3439 0.093 1.25 0.1366 1.941 0.5308-0.231 1.062-0.465 1.592-0.6479v-1.305c0-0.288-0.0652-1.557-1.121-2.688-0.8691-0.9299-2.313-1.26-4.063-1.26h-2.381c-0.4532 0-0.8226 0.459-0.8226 0.8969 0 0.444 0.3694 0.8999 0.8226 0.8999zm63.83 23.58c2.123-0.8279 4.048-2.175 4.696-3.765-1.347 0.6389-2.837 1.155-4.696 1.515zm-54.14 11.11c0 0.9539 0.8257 1.992 1.813 1.992h25.75c0.9871 0 2.157-1.038 2.157-1.992v-1.599h-29.72v1.599zm-14.67-29.3h-2.381c-0.4563 0-0.8226 0.33-0.8226 0.7709 0 0.441 0.3694 0.7679 0.8226 0.7679h2.381c1.257 0 2.17 0.333 2.716 0.9059 0.4384 0.458 0.6994 1.166 0.804 1.746v26.22c0 0.438 0.4749 0.7949 0.9281 0.7949s0.9281-0.357 0.9281-0.7949v-26.15c0-0.288-0.1614-1.713-1.217-2.841-0.8691-0.9329-2.409-1.419-4.159-1.419zm68.81 5.738c0.5308 0.288 0.5991 0.519 0.5991 0.519s0.5618-3.144-1.471-5.313c-0.447-0.477-1.006-0.6119-1.757-0.516 1.217 0.8729 2.362 2.01 2.626 3.477v1.833zm7.695 5.037c2.123-0.8279 4.048-2.175 4.696-3.765-1.347 0.6389-3.104 1.155-4.696 1.515zm-3.179-22.11c2.915 2.289 4.821 5.78 4.821 9.692 0 2.241-0.5774 4.341-1.639 6.158v3.015c1.856-0.435 3.716-1.068 5.041-1.752v-14.97c-2.123-1.053-5.345-1.899-8.223-2.142zm3.179 9.659c0.2638 0.288 0.5898 0.519 0.5898 0.519s0.5587-3.144-1.474-5.313c-0.447-0.477-0.9964-0.6119-1.751-0.516 1.217 0.8729 2.105 2.01 2.635 3.477zm-7.54-10.59c-1.17-0.057-1.999 1.056-2.583 2.583 0.5556 0.08399 2.477 0.408 4.492 1.2 1.751-1.026 2.977-0.9899 2.977-0.9899s-1.862-2.649-4.886-2.793zm1.409 18.05c0 2.241-0.239 4.341-1.564 6.158v3.015c1.856-0.435 3.716-1.068 5.041-1.752v-14.97c-1.856-1.053-5.277-1.899-8.154-2.145 2.915 2.289 4.678 5.78 4.678 9.695zm-42.46-15.26c0.5308-0.513 1.114-1.14 1.751-1.635-2.427 0.171-5.178 1.122-7.152 1.635zm1.133 0h0.686c-0.0559-0.258-0.0497-0.504-0.0497-0.504s-0.267 0.246-0.6363 0.504zm4.976 4.878c-1.167-0.057-1.99 1.02-2.573 2.559h7.279c-0.5339-0.513-2.229-2.439-4.706-2.559zm30.47-2.826h-41.86c-2.918 0-7.692 1.977-8.781 4.65 2.713-1.284 6.782-2.085 9.381-2.085h0.3228c1.915-1.281 4.141-1.707 6.519-1.707s4.606 0.426 6.519 1.707h14.23c1.915-1.281 4.141-1.707 6.519-1.707s4.606 0.426 6.519 1.707h0.0341c2.598 0 6.668 0.8009 9.381 2.085-1.09-2.676-5.864-4.65-8.781-4.65zm1.679 5.376s-1.859-2.646-4.886-2.79c-1.17-0.057-1.999 1.056-2.583 2.583 0.5556 0.08399 2.477 0.408 4.492 1.2 1.754-1.029 2.977-0.9929 2.977-0.9929zm-8.294-3.63s-3.253-0.54-5.497 1.425c-0.5743 0.504-0.6705 1.446-0.4625 2.214h4.417c0.4097-2.307 1.543-3.639 1.543-3.639zm-18.75-3.798h7.279c-0.5339-0.513-2.229-2.439-4.706-2.559-1.167-0.057-1.993 0.7619-2.573 2.559zm20.93-2.262c-0.5742 0.504-0.6674 1.749-0.4625 2.262h4.417c0.4066-2.565 1.543-3.579 1.543-3.579s-3.253-0.6479-5.497 1.317zm-47.4-1.587h2.381c1.257 0 2.17 0.315 2.716 0.8879 0.3987 0.4566 0.847 1.059 0.894 1.728v2.022c0.267-0.231 1.062-0.465 1.859-0.6479v-1.305c0-0.288-0.2049-1.695-1.26-2.823-0.8692-0.9299-2.455-1.398-4.206-1.398h-2.381c-0.4532 0-0.8226 0.33-0.8226 0.7709-3e-3 0.435 0.3632 0.7649 0.8195 0.7649zm25.63 0.201s-3.253-0.516-5.497 1.449c-0.5742 0.504-0.6705 1.683-0.4625 2.196h4.417c0.4066-2.562 1.543-3.645 1.543-3.645zm18.02 3.648h0.686c-0.0559-0.258-0.0497-0.504-0.0497-0.504s-0.2638 0.246-0.6363 0.504zm-8.636 0h7.425c0.5618-0.513 1.189-1.026 1.875-1.797h-11.17c0.686 0.7709 1.313 1.281 1.875 1.797z" fill="url(#linearGradient3345)" stroke-width=".3051"/>
 <ellipse cx="78.23" cy="11.48" rx="5.739" ry="5.638" fill="#fee900" stroke-width="2.227"/>
 <ellipse cx="78.33" cy="25.98" rx="5.739" ry="5.638" fill="#fee900" stroke-width="2.227"/>
 <ellipse cx="78.53" cy="41.08" rx="5.739" ry="5.638" fill="#fee900" stroke-width="2.227"/>
 <path d="m54.52 43.92h-4.346v-1.416h-18.13v1.416h-3.349c-0.7596 0-1.375 0.6729-1.375 1.416 0 0.7433 0.6157 1.416 1.375 1.416h25.83c0.7596 0 1.375-0.6729 1.375-1.416 0-0.7433-0.6157-1.416-1.375-1.416zm-40.9-10.67c1.407 0 2.547-1.116 2.547-2.495 0-1.377-1.14-2.495-2.547-2.495s-2.55 1.116-2.55 2.495c0.0021 1.377 1.143 2.495 2.55 2.495zm42.99-27.03h-31.14c-1.727 0-3.201 1.244-3.201 2.934v29.19c0 1.689 1.473 3.279 3.201 3.279h31.14c1.727 0 3.15-1.59 3.15-3.279v-29.19c0-1.691-1.424-2.934-3.15-2.934zm-28.04 33.72c-1.104 0-2.002-0.8778-2.002-1.959 0-1.081 0.8971-1.959 2.002-1.959 1.104 0 2.002 0.8758 2.002 1.959 0 1.083-0.8971 1.959-2.002 1.959zm28.48-5.395h-31.88v-25.14h31.88zm-37.43 10.44h-11.76c-0.5882 0-1.064 0.3106-1.064 0.8861 0 0.5735 0.4761 0.884 1.064 0.884h11.76c0.5882 0 1.062-0.3106 1.062-0.884 0-0.5756-0.4739-0.8861-1.062-0.8861zm-8.954-1.238h5.899c1.727 0 3-1.484 3-3.174v-20.27c0-1.689-1.272-2.932-3-2.932h-5.899c-1.727 0-3.22 1.242-3.22 2.932v20.27c0 1.687 1.494 3.174 3.22 3.174zm2.962-17.58c2.59 0 4.691 2.054 4.691 4.59 0 2.534-2.101 4.59-4.691 4.59s-4.691-2.056-4.691-4.59 2.101-4.59 4.691-4.59z" fill="url(#linearGradient19058)" stroke-width=".2093"/>
 <rect x="27.49" y="13.39" width="27.69" height="17.72" ry="2.027" fill="#fee700" stroke-width="2.227"/>
 <path d="m80.19 8.688a0.7566 0.7566 0 0 0-0.5293 0.2363l-1.283 1.359-1.268-1.33a0.7566 0.7566 0 0 0-1.07-0.02539 0.7566 0.7566 0 0 0-0.02539 1.07l1.322 1.387-1.33 1.406a0.7566 0.7566 0 0 0 0.0293 1.07 0.7566 0.7566 0 0 0 1.07-0.03125l1.275-1.35 1.268 1.328a0.7566 0.7566 0 0 0 1.068 0.02539 0.7566 0.7566 0 0 0 0.02539-1.07l-1.32-1.385 1.338-1.416a0.7566 0.7566 0 0 0-0.0293-1.07 0.7566 0.7566 0 0 0-0.541-0.2051z" fill="#2f2e2c"/>
 <path d="m80.24 23.48a0.7566 0.7566 0 0 0-0.5273 0.2363l-1.287 1.361-1.268-1.328a0.7566 0.7566 0 0 0-0.5273-0.2344h-0.001953a0.7566 0.7566 0 0 0-0.5371 0.209 0.7566 0.7566 0 0 0-0.02539 1.07l1.318 1.383-1.328 1.406a0.7566 0.7566 0 0 0 0.03125 1.07 0.7566 0.7566 0 0 0 1.07-0.03125l1.273-1.348 1.268 1.33a0.7566 0.7566 0 0 0 1.066 0.02539 0.7566 0.7566 0 0 0 0.02539-1.07l-1.32-1.385 1.34-1.42a0.7566 0.7566 0 0 0-0.03125-1.07 0.7566 0.7566 0 0 0-0.5391-0.2051z" fill="#2f2e2c"/>
 <path d="m81.48 38.6c-0.5265-0.05923-0.8103 0.3968-1.121 0.7247-0.7534 0.8357-1.507 1.671-2.26 2.507-0.5247-0.3723-1.049-0.7447-1.574-1.117-0.804-0.6262-1.89 0.5871-1.234 1.349 0.271 0.2927 0.6269 0.4838 0.942 0.7237 0.4979 0.3522 0.9946 0.7062 1.493 1.057 0.4112 0.3019 0.987 0.1269 1.277-0.2589 1.023-1.136 2.047-2.272 3.07-3.408 0.5054-0.5338 0.1781-1.531-0.5935-1.578z" fill="#2f2e2c" stroke-width="1.222"/>
 <g transform="scale(.9468 1.056)" fill="#2f2e2c" stroke-width=".2289" aria-label="TEST">
  <path d="m36.81 19.32h-2.078v5.368h-1.716v-5.368h-2.078v-1.287h5.873z"/>
  <path d="m42.66 24.69h-4.814v-6.656h4.814v1.287h-3.107v1.149h2.883v1.287h-2.883v1.645h3.107z"/>
  <path d="m49.43 22.59q0 0.9834-0.8359 1.6-0.8314 0.6124-2.262 0.6124-0.8269 0-1.444-0.143-0.6124-0.1475-1.149-0.371v-1.596h0.1877q0.5319 0.4246 1.189 0.6526 0.6615 0.228 1.269 0.228 0.1564 0 0.4112-0.02682t0.4157-0.0894q0.1967-0.08046 0.3218-0.2011 0.1296-0.1207 0.1296-0.3576 0-0.219-0.1877-0.3755-0.1833-0.1609-0.5409-0.2458-0.3755-0.0894-0.7956-0.1654-0.4157-0.08046-0.7822-0.2011-0.8403-0.2727-1.211-0.7375-0.3665-0.4693-0.3665-1.162 0-0.9297 0.8314-1.515 0.8359-0.59 2.146-0.59 0.6571 0 1.296 0.1296 0.6437 0.1252 1.113 0.3174v1.533h-0.1833q-0.4023-0.3218-0.9878-0.5364-0.5811-0.219-1.189-0.219-0.2146 0-0.4291 0.03129-0.2101 0.02682-0.4068 0.1073-0.1743 0.06705-0.2995 0.2056-0.1252 0.1341-0.1252 0.3084 0 0.2637 0.2011 0.4068 0.2011 0.1386 0.7599 0.2548 0.3665 0.07599 0.7018 0.1475 0.3397 0.07152 0.7286 0.1967 0.7643 0.2503 1.126 0.6839 0.3665 0.4291 0.3665 1.117z"/>
  <path d="m55.81 19.32h-2.078v5.368h-1.716v-5.368h-2.078v-1.287h5.873z"/>
 </g>
</svg>
